<svg width="60" height="64" viewBox="0 0 60 64" fill="none" xmlns="http://www.w3.org/2000/svg">
<g opacity="0.3">
<path d="M54 51.9707C57.3086 51.9707 60 49.2794 60 45.9707V15.9707C60 15.2129 59.62 14.5205 58.9422 14.1816L50.9661 10.1816C49.9759 9.6855 48.7886 10.0889 48.2945 11.0761C47.8004 12.0644 48.2067 13.2656 49.195 13.7598L52.2326 15.2771C52.1514 15.4946 52.0462 15.7246 52.0462 15.9707C52.0462 18.5747 54 20.774 56 21.6021V45.9707C56 47.0732 55.1025 47.9707 54 47.9707C52.8975 47.9707 52 47.0732 52 45.9707V29.9708C52 25.1419 48 21.1021 44 20.1729V7.97075C44 3.55962 40.5066 0 36.0955 0H12.0955C7.68437 0 4 3.55962 4 7.97075V52.7344L1.1055 54.1816C0.42775 54.5205 0 55.2129 0 55.9707V61.9707C0 63.0752 0.991 64 2.0955 64H46.0955C47.2 64 48 63.0752 48 61.9707V55.9707C48 55.2129 47.5723 54.5205 46.8945 54.1816L44 52.7344V24.3394C46 25.1675 48 27.3668 48 29.9708V45.9707C48 49.2794 50.6914 51.9707 54 51.9707ZM40 53.9707C40 54.7286 40.4277 55.421 41.1055 55.7599L44 57.207V60H4V57.207L6.8945 55.7598C7.57225 55.4209 8 54.7285 8 53.9706V7.97062C8 5.76462 9.88937 4 12.0955 4H36.0955C38.3015 4 40 5.76462 40 7.97075V53.9707ZM14 30H34C35.1046 30 36 29.1046 36 28V12C36 10.8954 35.1046 10 34 10H14C12.8954 10 12 10.8954 12 12V28C12 29.1046 12.8954 30 14 30ZM16 26V14H32V26H16Z" fill="white"/>
</g>
</svg>
