<svg width="153" height="149" fill="none" xmlns="http://www.w3.org/2000/svg"><path d="M0 78.421l119.542-66.774 33.379 52.798V0H0v78.421z" fill="#fff"/><path d="M0 84.943l118.766-67.952 34.155 53.563v21.584l-34.155-32.777L0 99.333v-14.39z" fill="#fff"/><path d="M0 104.165l119.542-38.814 33.379 30.893v16.635l-33.379-16.635L0 117.632v-13.467zm20.396 44.533h-6.051v-8.797H7.358v8.797H1.307v-21.585h6.05v8.011h6.988v-8.011h6.05v21.585zm25.627-10.823c0 2.237-.374 4.192-1.123 5.865-.727 1.653-1.892 2.942-3.493 3.869-1.58.927-3.65 1.391-6.207 1.391-2.495 0-4.544-.464-6.145-1.391a8.523 8.523 0 01-3.556-3.899c-.748-1.673-1.122-3.628-1.122-5.865s.384-4.182 1.154-5.834a8.355 8.355 0 013.555-3.87c1.602-.907 3.65-1.36 6.145-1.36 2.537 0 4.596.463 6.176 1.39 1.601.907 2.766 2.197 3.493 3.87.749 1.652 1.123 3.597 1.123 5.834zm-15.315 0c0 1.955.344 3.487 1.03 4.595.707 1.109 1.86 1.663 3.462 1.663 1.663 0 2.828-.554 3.493-1.663.666-1.108.998-2.64.998-4.595 0-1.955-.332-3.496-.998-4.625-.665-1.129-1.82-1.693-3.462-1.693-1.643 0-2.807.564-3.493 1.693-.686 1.129-1.03 2.67-1.03 4.625zm29.036 10.823l-4.554-15.539h-.125c.041.403.083.948.125 1.633.041.685.083 1.431.124 2.237.042.786.063 1.552.063 2.297v9.372h-5.334v-21.585h8.016l4.648 15.327h.125l4.553-15.327h8.017v21.585H69.88v-9.462a80.349 80.349 0 01.125-4.384c.041-.705.072-1.259.093-1.662h-.125l-4.491 15.508h-5.74zm33.68 0H80.199v-21.585h13.225v4.686h-7.205v3.386h6.675v4.685h-6.675v4.082h7.205v4.746zm13.719 0h-6.02V131.89h-5.428v-4.777h16.875v4.777h-5.427v16.808zm21.828 0h-13.225v-21.585h13.225v4.686h-7.205v3.386h6.675v4.685h-6.675v4.082h7.205v4.746zm23.95 0h-6.956l-4.336-6.742-4.304 6.742h-6.8l7.393-11.034-6.956-10.551h6.675l4.024 6.681 3.867-6.681h6.862l-7.049 11.004 7.58 10.581z" fill="#fff"/></svg>