<svg width="46" height="63" fill="none" xmlns="http://www.w3.org/2000/svg"><path d="M23.5 51.5c0 .3-.2.5-.5.5s-.5-.2-.5-.5c-.1-3.2-1.8-5.2-4.8-6.1C7.5 43 0 33.9 0 23 0 10.3 10.3 0 23 0s23 10.3 23 23c0 10.9-7.5 20-17.7 22.4-3 .9-4.6 3-4.8 6.1z" fill="#F93942"/><path fill-rule="evenodd" clip-rule="evenodd" d="M28 28v-1h3v1h-3zm-7.5-13v3h2v-3h-2zm-4 3v-3h2v3h-2zm4 2v6h2v-6h-2zm-4 6v-6h2v6h-2zm4.5 3.2V34h11.4c.3 0 .6-.3.6-.6V19.6c0-.3-.3-.6-.6-.6h-5l-.2 2H31v1h-3.8l-.2 2h4v1h-4l-.4 4.7c0 .1 0 .2-.1.2-.1.1-.1.1-.2.1-.2 0-.3-.1-.3-.3V13.4c0-.2-.2-.4-.4-.4H25v-.6c0-.2-.2-.4-.4-.4H14.4c-.2 0-.4.2-.4.4v.6h-.6c-.2 0-.4.2-.4.4v20c0 .3.3.6.6.6H18v-4.8c0-.1.1-.2.2-.2h2.6c.1 0 .2.1.2.2z" fill="#fff"/><path d="M23 63a4 4 0 100-8 4 4 0 000 8z" fill="#fff"/><g clip-path="url(#clip0)"><path fill-rule="evenodd" clip-rule="evenodd" d="M23 61c.7 0 1.4-.4 1.8-1 .4-.6.4-1.4 0-2-.4-.6-1.1-1-1.8-1-1.1 0-2 .9-2 2s.9 2 2 2z" fill="#DC3636"/></g><defs><clipPath id="clip0"><path fill="#fff" transform="translate(21 57)" d="M0 0h4v4H0z"/></clipPath></defs></svg>