<svg xmlns="http://www.w3.org/2000/svg" width="27" height="27"><path d="M2.078 10.892l2.35-1.03a.823.823 0 00.418-1.063.773.773 0 00-1.025-.434l-.583.256c1.787-4.234 5.829-6.99 10.316-6.99 5.138 0 9.617 3.6 10.905 8.76a.781.781 0 00.954.583.816.816 0 00.562-.99C24.509 4.105 19.399 0 13.554 0 8.42 0 3.792 3.178 1.772 8.048l-.268-.659a.773.773 0 00-1.025-.433.824.824 0 00-.417 1.064l.991 2.438a.773.773 0 001.025.434zm24.86 8.088l-.991-2.438a.771.771 0 00-1.025-.433l-2.35 1.029a.823.823 0 00-.418 1.063.773.773 0 001.025.434l.583-.256c-1.787 4.234-5.829 6.99-10.316 6.99-5.138 0-9.618-3.6-10.905-8.76a.782.782 0 00-.954-.583.816.816 0 00-.562.99C2.491 22.895 7.601 27 13.446 27c5.134 0 9.762-3.178 11.782-8.048l.268.659a.773.773 0 001.025.433.824.824 0 00.417-1.064z"/><path d="M14.351 9.626L15 10V7h-2v3l.644-.371a.694.694 0 01.707-.003z"/><path d="M10.49 10.825L10.487 7H7.77a.772.772 0 00-.77.776v10.448c0 .429.344.776.77.776h10.46c.426 0 .77-.347.77-.776V7.776A.772.772 0 0018.23 7h-2.717v3.825a.77.77 0 01-1.177.658L13 10.806l-1.401.71c-.515.26-1.11-.129-1.109-.691z"/></svg>