<svg xmlns="http://www.w3.org/2000/svg" width="27" height="16"><path d="M19.248.16c2.341.543 3.236 1.914 4.36 3.8h-4.36V.16zM5.568 4.118c.458 0 .79.221.79.74a.79.79 0 01-.788.791H.79a.792.792 0 000 1.584h7.12a.791.791 0 11.003 1.584H.79a.792.792 0 000 1.585h1.74v2.376c0 .437.354.792.791.792h1.59a3.033 3.033 0 005.944.001h8.032A3.034 3.034 0 0021.858 16a3.034 3.034 0 002.972-2.429h1.379a.792.792 0 00.791-.792V8.026c0-2.324-2.448-2.478-2.45-2.481h-6.093a.792.792 0 01-.791-.793V0H3.322a.79.79 0 00-.79.792v1.743h-.95a.791.791 0 000 1.584h3.986zm17.316 7.818a1.455 1.455 0 010 2.054c-.911.912-2.476.263-2.476-1.027s1.565-1.94 2.476-1.027zm-13.975 0a1.453 1.453 0 010 2.054c-.91.912-2.475.263-2.475-1.027s1.564-1.94 2.475-1.027z"/></svg>