<svg xmlns="http://www.w3.org/2000/svg" width="30" height="29"><path d="M29.868 5.953a.956.956 0 00-.768-.802l-.57-.102A13.986 13.986 0 0120.405.335c-.032-.038-.07-.07-.101-.102a.94.94 0 00-1.34.102 14 14 0 01-8.124 4.707l-.57.103a.948.948 0 00-.769.801c-.019.135-.444 3.13.387 6.965H.952a.956.956 0 00-.952.962v14.166c0 .531.425.961.952.961H17.79c.527 0 .952-.43.952-.962V25.37c.159.097.318.186.476.276.14.084.305.122.464.122a.948.948 0 00.47-.128c2.659-1.5 4.83-3.476 6.448-5.861 1.294-1.905 2.234-4.085 2.799-6.458.952-4.027.495-7.233.47-7.368zM1.904 14.84h8.492c.21.667.45 1.314.73 1.943H1.904V14.84zm0 3.867h4.748v8.375H1.904v-8.375zm6.652 8.375v-8.375h1.624v8.375H8.556zm8.282 0h-4.754v-8.375h.007a18.415 18.415 0 004.747 5.38v2.995zM27.52 12.949c-.514 2.136-1.365 4.085-2.526 5.79-1.352 1.989-3.135 3.656-5.312 4.964-2.177-1.308-3.96-2.975-5.313-4.963-1.161-1.706-2.012-3.655-2.526-5.79a20.797 20.797 0 01-.527-6.042c3.18-.615 6.093-2.2 8.366-4.527a15.85 15.85 0 008.365 4.527 20.365 20.365 0 01-.527 6.041z"/><path d="M23.478 8.102c-.462-.241-1.024-.039-1.255.444l-2.75 5.797-2.862-3.094a.908.908 0 00-1.324-.026 1.01 1.01 0 00-.025 1.384l3.786 4.093c.175.189.425.3.675.3.05 0 .094-.007.144-.013a.924.924 0 00.693-.535l3.337-7.044a.981.981 0 00-.419-1.306z"/></svg>