<svg xmlns="http://www.w3.org/2000/svg" width="35" height="28"><path d="M17.278 27.89L17 27.725c-.056 0-3.833-2.47-8.722-2.47-1.722 0-6.445.274-7.611.549L0 25.969V.604L.444.549C3 .165 6.222 0 8.278 0c4.555 0 8.055 1.867 9.055 2.47C18.5 1.923 22.833 0 27.611 0c3.722 0 6.445.494 6.556.549l.444.11v25.31l-.667-.165c-.055 0-4.11-.55-6.333-.55-5.222 0-10 2.471-10.055 2.471l-.278.165zm-9-3.733c4.5 0 8.055 1.867 9.055 2.47 1.167-.549 5.445-2.47 10.278-2.47 1.833 0 4.611.33 5.889.494V1.537c-.889-.164-3.111-.439-5.889-.439-5.167 0-10 2.47-10.055 2.47l-.278.165L17 3.57c-.056 0-3.778-2.471-8.722-2.471-1.834 0-4.778.11-7.167.44V24.65c1.889-.275 5.778-.494 7.167-.494z"/><path d="M19.722 8.125l-.389-1.043.5-.164c1.834-.66 4.723-1.428 7.723-1.428 1.555 0 3.944.165 4.055.22l.556.055-.111 1.098-.556-.055s-2.444-.22-3.944-.22c-2.834 0-5.556.714-7.334 1.373l-.5.164zm-4.5 0l-.5-.22c-1.444-.603-3.778-1.317-6.444-1.317-1.5 0-3.334.055-4.89.22l-.555.055-.11-1.098.555-.055c1.61-.11 3.444-.22 5-.22 2.833 0 5.333.769 6.889 1.428l.5.22-.445.987zm4.5 2.745l-.389-1.043.5-.164c1.834-.66 4.723-1.428 7.723-1.428 1.555 0 3.944.165 4.055.22l.556.055-.111 1.098-.556-.055s-2.444-.22-3.944-.22c-2.834 0-5.556.714-7.334 1.373l-.5.165zm-4.5 0l-.5-.219c-1.444-.604-3.778-1.318-6.444-1.318-1.5 0-3.334.055-4.89.22l-.555.055-.11-1.098.555-.055c1.61-.11 3.444-.22 5-.22 2.833 0 5.333.769 6.889 1.428l.5.22-.445.988zm4.5 2.746l-.389-1.043.5-.165c1.834-.659 4.723-1.428 7.723-1.428 1.555 0 3.944.165 4.055.22l.556.055-.111 1.098-.556-.055s-2.444-.22-3.944-.22c-2.834 0-5.556.714-7.334 1.373l-.5.165zm-4.5 0l-.5-.22c-1.444-.604-3.778-1.318-6.444-1.318-1.5 0-3.334.055-4.89.22l-.555.055-.11-1.098.555-.055c1.61-.11 3.444-.22 5-.22 2.833 0 5.333.769 6.889 1.428l.5.22-.445.988zm4.5 3.294l-.389-1.043.5-.165c1.834-.659 4.723-1.427 7.723-1.427 1.555 0 3.944.164 4.055.22l.556.054-.111 1.098-.556-.055s-2.444-.22-3.944-.22c-2.834 0-5.556.714-7.334 1.373l-.5.165zm-4.5 0l-.5-.22c-1.444-.604-3.778-1.317-6.444-1.317-1.5 0-3.334.054-4.89.22l-.555.054-.11-1.098.555-.055c1.61-.11 3.444-.22 5-.22 2.833 0 5.333.77 6.889 1.428l.5.22-.445.988zm4.5 3.294l-.389-1.043.5-.165c1.834-.659 4.723-1.427 7.723-1.427h.555v1.098h-.555c-2.834 0-5.556.713-7.334 1.372l-.5.165zm-4.5 0l-.5-.22c-1.444-.604-3.778-1.317-6.444-1.317-1.5 0-3.334.055-4.89.22l-.555.054-.11-1.098.555-.055c1.61-.11 3.444-.22 5-.22 2.833 0 5.333.77 6.889 1.428l.5.22-.445.988z"/></svg>