<svg xmlns="http://www.w3.org/2000/svg" width="30" height="30"><g fill="none" fill-rule="evenodd"><path d="M25.816 4.934v4.658h2.25V1.895h-7.698v2.25h4.658c.435 0 .79.355.79.79zM9.632 25.855H4.974a.792.792 0 01-.79-.79v-4.618h-2.25v7.698h7.698v-2.29z"/><path fill="#0A0C0A" fill-rule="nonzero" d="M19.579 5.724h4.658v4.658c0 .434.355.79.79.79h3.828c.434 0 .79-.356.79-.79V1.105a.793.793 0 00-.79-.79H19.58a.793.793 0 00-.79.79v3.83c0 .433.356.789.79.789zm.79-3.83h7.697v7.698h-2.25V4.934a.792.792 0 00-.79-.79h-4.658v-2.25zM1.145 29.684h9.276c.434 0 .79-.355.79-.79v-3.828a.793.793 0 00-.79-.79H5.763v-4.618a.792.792 0 00-.79-.79H1.146a.793.793 0 00-.79.79v9.276c0 .395.356.75.79.75zm.79-9.237h2.25v4.658c0 .434.354.79.789.79h4.658v2.25H1.934v-7.698zm3.039-6.592c.434 0 .79-.355.79-.79v-7.34h7.38c.435 0 .79-.356.79-.79a.792.792 0 00-.79-.79h-8.17a.792.792 0 00-.79.79v8.092c0 .474.355.83.79.83zm11.921 12h8.17c.435 0 .79-.355.79-.79v-8.091a.792.792 0 00-.79-.79.792.792 0 00-.789.79v7.302h-7.381a.793.793 0 00-.79.79c0 .434.356.79.79.79z"/></g></svg>