<svg xmlns="http://www.w3.org/2000/svg" width="33" height="33"><g fill="#FFF"><path d="M16.5 0C7.387 0 0 7.387 0 16.5S7.387 33 16.5 33 33 25.613 33 16.5 25.613 0 16.5 0zm0 31.5c-8.284 0-15-6.716-15-15 0-8.284 6.716-15 15-15 8.284 0 15 6.716 15 15 0 8.284-6.716 15-15 15z"/><path d="M21 9h-9a3 3 0 00-3 3v9a3 3 0 003 3h9a3 3 0 003-3v-9a3 3 0 00-3-3zm-1.5 2.25h2.25v2.25H19.5v-2.25zm-3 2.25a3 3 0 110 6 3 3 0 010-6zm6 7.5a1.5 1.5 0 01-1.5 1.5h-9a1.5 1.5 0 01-1.5-1.5v-5.25h1.575a4.5 4.5 0 108.85 0H22.5V21z"/></g></svg>