<svg width="25" height="25" fill="none" xmlns="http://www.w3.org/2000/svg"><path d="M17.188 0H7.813A7.81 7.81 0 000 7.813v9.375A7.81 7.81 0 007.813 25h9.375A7.81 7.81 0 0025 17.187V7.813A7.81 7.81 0 0017.187 0zm5.468 17.188a5.472 5.472 0 01-5.468 5.468H7.813a5.472 5.472 0 01-5.47-5.468V7.813a5.472 5.472 0 015.47-5.47h9.375a5.472 5.472 0 015.468 5.47v9.375z" fill="url(#paint0_linear)"/><path d="M12.5 6.25a6.25 6.25 0 100 12.5 6.25 6.25 0 100-12.5zm0 10.156A3.911 3.911 0 018.594 12.5 3.911 3.911 0 0112.5 8.594a3.911 3.911 0 013.906 3.906 3.911 3.911 0 01-3.906 3.906z" fill="url(#paint1_linear)"/><path d="M19.219 6.616a.835.835 0 100-1.67.835.835 0 000 1.67z" fill="url(#paint2_linear)"/><defs><linearGradient id="paint0_linear" x1="2.289" y1="22.712" x2="22.712" y2="2.288" gradientUnits="userSpaceOnUse"><stop stop-color="#FFC107"/><stop offset=".507" stop-color="#F44336"/><stop offset=".99" stop-color="#9C27B0"/></linearGradient><linearGradient id="paint1_linear" x1="8.081" y1="16.919" x2="16.919" y2="8.081" gradientUnits="userSpaceOnUse"><stop stop-color="#FFC107"/><stop offset=".507" stop-color="#F44336"/><stop offset=".99" stop-color="#9C27B0"/></linearGradient><linearGradient id="paint2_linear" x1="18.63" y1="6.37" x2="19.808" y2="5.192" gradientUnits="userSpaceOnUse"><stop stop-color="#FFC107"/><stop offset=".507" stop-color="#F44336"/><stop offset=".99" stop-color="#9C27B0"/></linearGradient></defs></svg>