<svg width="20" height="23" fill="none" xmlns="http://www.w3.org/2000/svg"><path d="M12.22 0H7.776C3.49 0 0 3.612 0 8.05v3.45c0 3.118 1.736 5.943 4.443 7.277v3.841c0 .333.404.508.634.27l3.224-3.338h3.919c4.287 0 7.776-3.612 7.776-8.05V8.05C20 3.612 16.51 0 12.22 0z" fill="#665CAC"/><path d="M5.554 18.777c-2.707-1.33-4.443-4.16-4.443-7.277V8.05C1.11 3.612 4.6 0 8.887 0h-1.11C3.488 0 0 3.612 0 8.05v3.45c0 3.118 1.736 5.943 4.443 7.277v3.841c0 .333.404.508.634.27l.477-.494v-3.617z" fill="#523494"/><path d="M15.591 14.29l-.334-1.87a.378.378 0 00-.29-.305l-2.617-.543a.357.357 0 00-.334.103l-1.063 1.1c-1.797-.826-2.79-1.86-3.667-3.795l1.059-1.096a.387.387 0 00.1-.346l-.526-2.709a.377.377 0 00-.295-.301l-1.8-.35a.328.328 0 00-.148.004 2.56 2.56 0 00-1.258.719c-.6.62-.83 1.523-.664 2.614.282 1.838 1.15 4.385 2.75 6.051l.022.023c1.606 1.657 4.07 2.556 5.841 2.843.221.036.438.054.642.054.768 0 1.41-.251 1.884-.741.347-.36.585-.809.694-1.303a.363.363 0 00.004-.152z" fill="#fff"/><path d="M7.984 8.257l.36-.373h.005l-.365.373z" fill="#E5E5E5"/><path d="M13.708 15.763a4.03 4.03 0 01-.642-.054c-1.77-.287-4.235-1.186-5.841-2.844l-.022-.022c-1.6-1.662-2.469-4.214-2.746-6.047-.135-.88-.01-1.64.36-2.228a2.604 2.604 0 00-.395.337c-.599.62-.829 1.523-.664 2.615.278 1.833 1.145 4.38 2.747 6.046l.021.023c1.606 1.657 4.07 2.556 5.841 2.843.221.036.438.054.642.054.768 0 1.41-.251 1.884-.741.121-.126.23-.26.325-.409-.42.283-.929.427-1.51.427z" fill="#E5E5E5"/><path d="M10.74 6.519a.375.375 0 00-.369.381c0 .212.165.382.369.382.816 0 1.48.688 1.48 1.532a.38.38 0 00.368.382.378.378 0 00.37-.382c.004-1.262-.995-2.295-2.218-2.295z" fill="#fff"/><path d="M10.74 4.982c-.139 0-.274.009-.412.022a.374.374 0 00-.326.423c.026.21.204.364.408.337.109-.014.221-.018.33-.018 1.631 0 2.964 1.374 2.964 3.068 0 .112-.005.229-.018.341-.021.207.126.4.326.422.2.023.386-.13.408-.336a4.61 4.61 0 00.021-.427c0-2.112-1.657-3.832-3.701-3.832z" fill="#fff"/><path d="M10.74 3.45c-.13 0-.265.005-.4.014a.385.385 0 00-.342.413.38.38 0 00.399.355c.113-.01.23-.014.343-.014 2.451 0 4.443 2.062 4.443 4.6 0 .36-.039.715-.117 1.06a.392.392 0 00.26.459c.2.058.413-.072.46-.283.092-.405.14-.822.14-1.24 0-2.956-2.327-5.364-5.186-5.364z" fill="#fff"/></svg>