<svg width="28" height="16" fill="none" xmlns="http://www.w3.org/2000/svg"><path d="M13.7 15.935h1.673s.503-.055.766-.335c.24-.257.23-.733.23-.733s-.034-2.252 1.01-2.58c1.029-.33 2.347 2.174 3.747 3.133 1.055.728 1.86.57 1.86.57l3.74-.055s1.958-.12 1.028-1.66c-.077-.126-.541-1.14-2.778-3.22-2.346-2.181-2.029-1.825.793-5.599 1.723-2.295 2.406-3.697 2.193-4.3C27.76.586 26.49.734 26.49.734l-4.206.022s-.311-.044-.547.099c-.224.137-.371.454-.371.454s-.668 1.775-1.553 3.287c-1.876 3.188-2.625 3.358-2.932 3.16-.71-.46-.536-1.856-.536-2.842 0-3.09.465-4.377-.913-4.711-.46-.11-.793-.186-1.963-.197-1.504-.017-2.773.005-3.495.356-.481.235-.847.761-.623.789.279.038.908.17 1.241.624.432.586.416 1.906.416 1.906s.246 3.637-.58 4.092c-.569.312-1.345-.323-3.019-3.215-.853-1.48-1.504-3.123-1.504-3.123S5.781 1.13 5.562.97C5.294.773 4.917.707 4.917.707L.913.729s-.601.016-.82.28c-.197.235-.016.711-.016.711S3.21 9.06 6.754 12.758c3.254 3.396 6.945 3.177 6.945 3.177z" fill="#1E88E5"/></svg>