<svg width="19" height="19" fill="none" xmlns="http://www.w3.org/2000/svg"><g clip-path="url(#clip0)"><path d="M9.494 0C4.249 0-.001 4.256.003 9.504c0 1.818.523 3.596 1.502 5.125l-1.48 3.833a.396.396 0 00.505.516l3.957-1.414a9.492 9.492 0 0013.077-3.043c2.77-4.453 1.41-10.313-3.041-13.085A9.524 9.524 0 009.493 0z" fill="#4CAF50"/><path d="M14.023 11.125s-.968-.475-1.576-.79c-.686-.353-1.495.308-1.873.686a4.763 4.763 0 01-1.588-1.01 4.765 4.765 0 01-1.008-1.587c.378-.383 1.038-1.188.686-1.874-.312-.61-.79-1.578-.79-1.578a.396.396 0 00-.353-.219h-.79a2.382 2.382 0 00-1.976 2.375c0 1.244 1.487 3.63 2.488 4.635 1.002 1.006 3.383 2.487 4.625 2.487a2.388 2.388 0 002.374-1.978v-.79a.397.397 0 00-.22-.357z" fill="#FAFAFA"/></g><defs><clipPath id="clip0"><path fill="#fff" d="M0 0h19v19H0z"/></clipPath></defs></svg>