<svg width="28" height="19" fill="none" xmlns="http://www.w3.org/2000/svg"><path d="M26.808 1.83C26.048.497 25.222.254 23.548.157 21.87.049 17.653 0 14.006 0c-3.66 0-7.881.049-9.554.157-1.674.097-2.5.34-3.265 1.673C.405 3.163 0 5.457 0 9.495v.016c0 4.021.405 6.331 1.187 7.648.765 1.334 1.591 1.576 3.265 1.69 1.678.097 5.895.151 9.553.151 3.654 0 7.87-.06 9.549-.151 1.679-.114 2.505-.356 3.26-1.69C27.6 15.842 28 13.532 28 9.511v-.016c0-4.038-.4-6.332-1.192-7.665z" fill="#F44336"/><path d="M10.5 14.682V4.318L19.25 9.5l-8.75 5.182z" fill="#FAFAFA"/></svg>