<svg width="80" height="75" fill="none" xmlns="http://www.w3.org/2000/svg"><path d="M40.018 41.037c7.29 0 11.17-4.628 11.17-10.51 0-5.881-3.88-10.527-11.17-10.527h-11.78v18.114H23v2.923h5.238v3.272H23v2.923h5.238v8.404h3.253v-8.404h8.388v-2.923h-8.387v-3.272h8.526zm-8.527-2.923v-15.19h8.527c5.133 0 7.97 3.184 7.97 7.603 0 4.42-2.837 7.587-7.97 7.587H31.49z" fill="#000"/><circle cx="37.5" cy="37.5" r="37" stroke="#CFD1DA"/><circle cx="68.5" cy="15.5" r="11.5" fill="url(#paint0_linear)"/><path d="M72.167 12.75l-5.042 5.042-2.292-2.292" stroke="#25282B" stroke-width="2" stroke-linecap="round" stroke-linejoin="round"/><defs><linearGradient id="paint0_linear" x1="57" y1="4" x2="80.257" y2="4.263" gradientUnits="userSpaceOnUse"><stop stop-color="#FFDA0B"/><stop offset="1" stop-color="#FFAD33"/></linearGradient></defs></svg>