<svg xmlns="http://www.w3.org/2000/svg" width="198" height="197" viewBox="0 0 198 197"><defs><mask id="lyteb" width="2" height="2" x="-1" y="-1"><path fill="#fff" d="M23 10h148v148H23z"/><path d="M97 10c40.87 0 74 33.13 74 74s-33.13 74-74 74c-40.869 0-74-33.13-74-74s33.131-74 74-74z"/></mask><filter id="lytea" width="241.8" height="254.9" x="-23" y="-36" filterUnits="userSpaceOnUse"><feOffset dx="1.8" dy="14.9" in="SourceGraphic" result="FeOffset1023Out"/><feGaussianBlur in="FeOffset1023Out" result="FeGaussianBlur1024Out" stdDeviation="14.4 14.4"/></filter></defs><g><g><g filter="url(#lytea)"><path fill="none" d="M97 10c40.87 0 74 33.13 74 74s-33.13 74-74 74c-40.869 0-74-33.13-74-74s33.131-74 74-74z" mask="url(&quot;#lyteb&quot;)"/><path fill="#1e0935" fill-opacity=".06" d="M97 10c40.87 0 74 33.13 74 74s-33.13 74-74 74c-40.869 0-74-33.13-74-74s33.131-74 74-74z"/></g><path fill="#fff" d="M97 10c40.87 0 74 33.13 74 74s-33.13 74-74 74c-40.869 0-74-33.13-74-74s33.131-74 74-74z"/></g><g><g><text dominant-baseline="text-before-edge" style="line-height:47px" font-family="'MuseoSansCyrl-100','MuseoSansCyrl-100'" font-size="60" font-style="none" font-weight="400" transform="translate(83 62)"><tspan style="font-kerning:normal">3</tspan></text></g></g></g></svg>