<svg xmlns="http://www.w3.org/2000/svg" width="42" height="42" viewBox="0 0 42 42"><g><g><path fill="#0f9fd9" d="M24.386 41.04c-.171.029-.342.055-.514.078m.923-.147l-.244.043m-1.137.16c-.2.023-.4.043-.602.06m.996-.108c-.096.013-.193.025-.289.036m1.834-.302l-.216.046m1.6-.39l-.175.049m-.244.066l-.19.049m-.357.088l-.202.045m-2.763.422l-.324.024m4.255-.743V25.36h4.416l.662-5.128h-5.078v-3.266c0-1.48.41-2.49 2.535-2.49h2.692V9.902c-.469-.062-2.076-.201-3.945-.201-3.904 0-6.576 2.381-6.576 6.758v3.773h-4.4v5.128h4.4v15.942c-.12.003-.24.005-.36.005-11.309 0-20.48-9.17-20.48-20.48C.604 9.519 9.775.348 21.084.348c11.31 0 20.48 9.171 20.48 20.48 0 9.348-6.266 17.235-14.826 19.69zm-4.3.746a20.71 20.71 0 0 1-.642.032m-.011 0c-.113.004-.227.006-.34.008"/></g></g></svg>