<svg xmlns="http://www.w3.org/2000/svg" width="40.97" height="40.97" viewBox="0 0 40.97 40.97">
  <defs>
    <style>
      .cls-1 {
        fill: #fff;
        fill-rule: evenodd;
      }
    </style>
  </defs>
  <path id="facebook" class="cls-1" d="M1134.39,1699.04c-0.17.03-.35,0.05-0.52,0.08C1134.04,1699.09,1134.22,1699.07,1134.39,1699.04Zm0.41-.07c-0.09.02-.17,0.03-0.25,0.04C1134.63,1699,1134.71,1698.99,1134.8,1698.97Zm-1.39.2q-0.3.045-.6,0.06Q1133.11,1699.215,1133.41,1699.17Zm0.4-.04-0.29.03Zm1.54-.27c-0.07.02-.14,0.03-0.21,0.05C1135.21,1698.89,1135.28,1698.88,1135.35,1698.86Zm1.39-.34c-0.06.01-.12,0.03-0.18,0.04C1136.62,1698.55,1136.68,1698.53,1136.74,1698.52Zm-0.42.11c-0.06.02-.13,0.03-0.19,0.05C1136.19,1698.66,1136.26,1698.65,1136.32,1698.63Zm-0.55.14c-0.07.01-.13,0.03-0.2,0.04C1135.64,1698.8,1135.7,1698.78,1135.77,1698.77Zm-2.96.46-0.33.03Zm18.75-20.4a20.48,20.48,0,1,0-20.48,20.48c0.12,0,.24-0.01.36-0.01v-15.94h-4.4v-5.13h4.4v-3.77c0-4.38,2.68-6.76,6.58-6.76a36.691,36.691,0,0,1,3.94.2v4.58h-2.69c-2.12,0-2.53,1.01-2.53,2.49v3.26h5.07l-0.66,5.13h-4.41v15.16A20.491,20.491,0,0,0,1151.56,1678.83Zm-19.12,20.43c-0.22.02-.43,0.03-0.65,0.03C1132.01,1699.29,1132.22,1699.28,1132.44,1699.26Zm-0.66.03c-0.11.01-.22,0.01-0.34,0.01C1131.56,1699.3,1131.67,1699.3,1131.78,1699.29Z" transform="translate(-1110.59 -1658.34)"/>
</svg>
