<svg xmlns="http://www.w3.org/2000/svg" width="40.97" height="40.96" viewBox="0 0 40.97 40.96">
  <defs>
    <style>
      .cls-1 {
        fill: #fff;
        fill-rule: evenodd;
      }
    </style>
  </defs>
  <path id="instagram" class="cls-1" d="M1321.96,1678.36a3.92,3.92,0,1,1-3.92-3.92A3.926,3.926,0,0,1,1321.96,1678.36Zm5.25-6.94a3.907,3.907,0,0,0-2.23-2.23,6.57,6.57,0,0,0-2.19-.4c-1.24-.06-1.61-0.07-4.75-0.07s-3.51.01-4.75,0.07a6.57,6.57,0,0,0-2.19.4,3.907,3.907,0,0,0-2.23,2.23,6.57,6.57,0,0,0-.4,2.19c-0.06,1.24-.07,1.61-0.07,4.75s0.01,3.51.07,4.75a6.57,6.57,0,0,0,.4,2.19,3.907,3.907,0,0,0,2.23,2.23,6.57,6.57,0,0,0,2.19.4c1.24,0.06,1.61.07,4.75,0.07s3.51-.01,4.75-0.07a6.57,6.57,0,0,0,2.19-.4,3.945,3.945,0,0,0,2.23-2.23,6.57,6.57,0,0,0,.4-2.19c0.06-1.24.07-1.61,0.07-4.75s-0.01-3.51-.07-4.75A6.57,6.57,0,0,0,1327.21,1671.42Zm-9.17,12.98a6.04,6.04,0,1,1,6.04-6.04A6.041,6.041,0,0,1,1318.04,1684.4Zm6.28-10.91a1.41,1.41,0,1,1,1.41-1.41A1.408,1.408,0,0,1,1324.32,1673.49Zm-6.28-15.61a20.48,20.48,0,1,0,20.48,20.48A20.481,20.481,0,0,0,1318.04,1657.88Zm11.69,25.33a8.7,8.7,0,0,1-.55,2.85,6.008,6.008,0,0,1-3.44,3.44,8.649,8.649,0,0,1-2.85.55c-1.26.06-1.66,0.07-4.85,0.07s-3.59-.01-4.85-0.07a8.7,8.7,0,0,1-2.85-.55,5.915,5.915,0,0,1-3.44-3.44,8.7,8.7,0,0,1-.55-2.85c-0.06-1.26-.07-1.66-0.07-4.85s0.01-3.6.07-4.85a8.649,8.649,0,0,1,.55-2.85,5.791,5.791,0,0,1,1.35-2.09,5.663,5.663,0,0,1,2.09-1.35,8.7,8.7,0,0,1,2.85-.55c1.26-.06,1.66-0.07,4.85-0.07s3.59,0.01,4.85.07a8.649,8.649,0,0,1,2.85.55,5.663,5.663,0,0,1,2.09,1.35,5.791,5.791,0,0,1,1.35,2.09,8.649,8.649,0,0,1,.55,2.85c0.06,1.25.07,1.66,0.07,4.85S1329.79,1681.95,1329.73,1683.21Z" transform="translate(-1297.56 -1657.88)"/>
</svg>
