<svg xmlns="http://www.w3.org/2000/svg" width="42" height="41" viewBox="0 0 42 41"><g><g><path fill="#0f9fd9" d="M24.96 20.36a3.92 3.92 0 1 1-7.84 0 3.92 3.92 0 0 1 7.84 0zm5.652-4.753c.057 1.24.069 1.612.069 4.753 0 3.14-.012 3.511-.069 4.752-.052 1.147-.244 1.77-.405 2.184a3.897 3.897 0 0 1-2.231 2.231c-.415.162-1.038.353-2.184.405-1.24.057-1.612.069-4.752.069-3.14 0-3.512-.012-4.752-.069-1.147-.052-1.77-.243-2.184-.405a3.651 3.651 0 0 1-1.352-.88 3.65 3.65 0 0 1-.88-1.351c-.16-.415-.352-1.037-.404-2.184-.057-1.24-.07-1.612-.07-4.752 0-3.14.013-3.512.07-4.753.052-1.146.243-1.769.404-2.184.189-.51.49-.972.88-1.352.38-.39.841-.69 1.352-.88.414-.16 1.037-.351 2.184-.404 1.24-.057 1.612-.068 4.752-.068 3.14 0 3.512.011 4.752.068 1.147.053 1.77.244 2.184.405.51.188.972.49 1.352.88.39.379.691.84.88 1.351.16.415.352 1.038.405 2.184zM27.08 20.36a6.039 6.039 0 1 0-12.078 0 6.039 6.039 0 0 0 12.078 0zm1.65-6.277a1.411 1.411 0 1 0-2.823 0 1.411 1.411 0 0 0 2.823 0zM41.52 20.36c0 11.31-9.17 20.48-20.48 20.48S.56 31.67.56 20.36C.56 9.051 9.73-.12 21.04-.12s20.48 9.172 20.48 20.48zm-8.72 0c0-3.194-.013-3.594-.07-4.848-.058-1.252-.257-2.107-.548-2.855a5.76 5.76 0 0 0-1.356-2.083 5.77 5.77 0 0 0-2.083-1.357c-.748-.29-1.603-.488-2.855-.545-1.254-.058-1.654-.072-4.848-.072s-3.594.014-4.848.071c-1.252.058-2.107.256-2.855.547a5.766 5.766 0 0 0-2.083 1.356 5.764 5.764 0 0 0-1.357 2.083c-.29.748-.49 1.603-.546 2.855-.058 1.254-.07 1.654-.07 4.848s.012 3.595.07 4.849c.057 1.252.256 2.107.547 2.855a5.765 5.765 0 0 0 1.356 2.082 5.76 5.76 0 0 0 2.083 1.357c.748.29 1.603.49 2.855.546 1.254.057 1.654.071 4.848.071s3.595-.014 4.849-.07c1.251-.057 2.106-.257 2.854-.547a6.015 6.015 0 0 0 3.44-3.44c.29-.747.49-1.602.546-2.854.058-1.254.071-1.655.071-4.849z"/></g></g></svg>