<svg xmlns="http://www.w3.org/2000/svg" width="40.94" height="40.94" viewBox="0 0 40.94 40.94">
  <defs>
    <style>
      .cls-1 {
        fill: #fff;
        fill-rule: evenodd;
      }
    </style>
  </defs>
  <path id="telegram" class="cls-1" d="M1278.09,1696.98a20.48,20.48,0,1,0-20.48-20.48A20.475,20.475,0,0,0,1278.09,1696.98Zm-11.1-20.92,19.74-7.62c0.92-.33,1.72.23,1.42,1.61h0l-3.36,15.84c-0.25,1.12-.91,1.4-1.85.87l-5.12-3.78-2.47,2.38a1.265,1.265,0,0,1-1.03.51l0.36-5.21,9.49-8.58c0.42-.36-0.09-0.57-0.63-0.2l-11.73,7.38-5.06-1.58c-1.09-.35-1.12-1.09.24-1.62h0Z" transform="translate(-1257.62 -1656.03)"/>
</svg>
