<svg xmlns="http://www.w3.org/2000/svg" width="101.25" height="1034.07" viewBox="0 0 101.25 1034.07">
  <defs>
    <style>
      .cls-1 {
        fill: #fff;
        fill-rule: evenodd;
        opacity: 0.14;
      }
    </style>
  </defs>
  <path id="ThetaHealing" class="cls-1" d="M895.918,4208.65v-23.98h-77.4v-29.72H797.968v83.42h20.549v-29.72h77.4Zm0-65.63v-23.97H857.56v-35.62h38.358v-23.97h-97.95v23.97h39.18v35.62h-39.18v23.97h97.95Zm0-104.12v-63.29H875.369v39.32H856.875v-29.86H836.326v29.86H818.517v-37.4H797.968v61.37h97.95Zm0-99.73V3915.2h-77.4v-29.73H797.968v83.43h20.549v-29.73h77.4Zm0-47.26v-24.66l-20.549-5.89v-30.55l20.549-6.03v-24.66l-97.95,33.29v25.21Zm-39.728-36.17-19.042-5.62c-6.165-1.78-16.85-3.97-16.85-3.97v-0.27s10.685-2.2,16.85-3.98l19.042-5.48v19.32Zm39.728-65.49v-23.97H857.56v-35.62h38.358v-23.97h-97.95v23.97h39.18v35.62h-39.18v23.97h97.95Zm0-104.12v-63.29H875.369v39.32H856.875V3632.3H836.326v29.86H818.517v-37.4H797.968v61.37h97.95Zm0-67.95v-24.66l-20.549-5.89v-30.55l20.549-6.02V3526.4l-97.95,33.29v25.2Zm-39.728-36.16-19.042-5.62c-6.165-1.78-16.85-3.97-16.85-3.97v-0.28s10.685-2.19,16.85-3.97l19.042-5.48v19.32Zm39.728-65.49v-63.97H875.369v40h-77.4v23.97h97.95Zm0-75.62v-23.97h-97.95v23.97h97.95Zm0-44.53v-23.97H850.3c-6.164,0-16.713,1.1-16.713,1.1v-0.28a174.123,174.123,0,0,0,16.713-8.22l45.619-27.26v-24.11h-97.95v23.97h45.756c6.164,0,16.713-1.09,16.713-1.09v0.27a176.764,176.764,0,0,0-16.713,8.22l-45.756,27.13v24.24h97.95Zm-49.181-98.09c32.057,0,50.825-23.01,50.825-48.08,0-9.59-3.288-19.87-8.494-25.76v-0.27s2.055,0.14,4.11.14h2.74v-20H840.573v35.07h20.412v-13.84h7.534a32.9,32.9,0,0,1,7.124,19.86c0,15.21-11.1,28.09-29.728,28.09-14.521,0-27.672-8.36-27.672-28.91,0-8.36,3.973-18.22,9.041-23.84l-17.946-11.5c-9.178,10.41-13.014,24.38-13.014,37.67C796.324,3276.78,818.243,3298.29,846.737,3298.29Z" transform="translate(-796.312 -3204.31)"/>
</svg>
