<svg xmlns="http://www.w3.org/2000/svg" width="41.16" height="41.1" viewBox="0 0 41.16 41.1">
  <defs>
    <style>
      .cls-1 {
        fill: #00b4d6;
        fill-rule: evenodd;
      }
    </style>
  </defs>
  <path id="vk_копия" data-name="vk копия" class="cls-1" d="M1725.83,10855.8a20.55,20.55,0,1,0,20.58,20.6A20.579,20.579,0,0,0,1725.83,10855.8Zm10.44,22.8a37.517,37.517,0,0,1,2.84,2.8,11.956,11.956,0,0,1,1.01,1.5c0.39,0.8.04,1.6-.64,1.6h-4.21a3.086,3.086,0,0,1-2.69-1.1c-0.58-.6-1.12-1.2-1.69-1.8a3.137,3.137,0,0,0-.76-0.7,0.88,0.88,0,0,0-1.4.4,4.39,4.39,0,0,0-.44,1.9,1.107,1.107,0,0,1-1.35,1.3,10.578,10.578,0,0,1-6.03-1.3,12.923,12.923,0,0,1-4.06-3.8,49.791,49.791,0,0,1-5.34-9.5c-0.34-.7-0.09-1.1.73-1.2h4.13a1.291,1.291,0,0,1,1.15.9,25.593,25.593,0,0,0,2.8,5.2,4.557,4.557,0,0,0,1.05,1.1c0.49,0.4.86,0.3,1.09-.3a3.294,3.294,0,0,0,.25-1.1,16.2,16.2,0,0,0-.07-3.8,1.484,1.484,0,0,0-1.35-1.4c-0.41-.1-0.35-0.3-0.15-0.5a1.479,1.479,0,0,1,1.29-.6h4.77a1.108,1.108,0,0,1,1.02,1.2v5.3a1.632,1.632,0,0,0,.67,1.4,0.968,0.968,0,0,0,.95-0.5,17.476,17.476,0,0,0,2.69-4.1c0.32-.7.6-1.4,0.87-2a1.081,1.081,0,0,1,1.07-.8h4.59a0.628,0.628,0,0,1,.41.1c0.77,0.1.98,0.4,0.74,1.2a10.762,10.762,0,0,1-1.82,3.1c-0.77,1.1-1.58,2.1-2.34,3.2C1735.35,10877.2,1735.41,10877.7,1736.27,10878.6Z" transform="translate(-1705.25 -10855.8)"/>
</svg>
