<svg xmlns="http://www.w3.org/2000/svg" width="40.97" height="40.97" viewBox="0 0 40.97 40.97">
  <defs>
    <style>
      .cls-1 {
        fill: #fff;
        fill-rule: evenodd;
      }
    </style>
  </defs>
  <path id="whatsapp" class="cls-1" d="M1113.52,1655.78a20.48,20.48,0,1,0,20.48,20.48A20.481,20.481,0,0,0,1113.52,1655.78Zm0.43,32.41h0a12.334,12.334,0,0,1-5.86-1.5l-6.5,1.71,1.74-6.35A12.258,12.258,0,1,1,1113.95,1688.19Zm0.01-22.45a10.2,10.2,0,0,0-8.64,15.6l0.25,0.39-1.03,3.76,3.85-1.01,0.37,0.22a10.274,10.274,0,0,0,5.19,1.42h0a10.189,10.189,0,0,0,7.21-17.39A10.089,10.089,0,0,0,1113.96,1665.74Zm5.99,14.56a3.141,3.141,0,0,1-2.07,1.46,4.235,4.235,0,0,1-1.93-.12c-0.44-.15-1.01-0.33-1.74-0.65a13.619,13.619,0,0,1-5.23-4.62,5.922,5.922,0,0,1-1.25-3.17,3.4,3.4,0,0,1,1.07-2.55,1.117,1.117,0,0,1,.81-0.39c0.21,0,.41.01,0.59,0.01a0.613,0.613,0,0,1,.69.53c0.26,0.61.87,2.12,0.94,2.27a0.569,0.569,0,0,1,.03.54,8.948,8.948,0,0,1-.77,1.05,0.465,0.465,0,0,0-.13.62,9.118,9.118,0,0,0,1.7,2.12,8.09,8.09,0,0,0,2.47,1.52,0.463,0.463,0,0,0,.66-0.07c0.18-.21.77-0.9,0.97-1.2a0.479,0.479,0,0,1,.69-0.16c0.28,0.1,1.79.84,2.09,1a1.493,1.493,0,0,1,.59.36A2.47,2.47,0,0,1,1119.95,1680.3Z" transform="translate(-1093.03 -1655.78)"/>
</svg>
