<svg width="25" height="32" fill="none" xmlns="http://www.w3.org/2000/svg"><path d="M24 9.688c.446-.166.379-.325.259-.442l-.954-.931 1.472-1.438a.619.619 0 000-.885L19.216.559a.647.647 0 00-.9 0l-1.475 1.44L14.98.182A.644.644 0 0014.53 0H2.948C1.342 0 .036 1.277 0 2.848v26.304C.036 30.723 1.342 32 2.948 32h18.585c1.606 0 2.913-1.277 2.467-2.848V9.689zM1.34 2.848c-.029-.881.706-1.598 1.608-1.598h11.32L23 9.948v19.204c.17.881-.564 1.598-1.467 1.598H2.948c-.903 0-1.637-.717-1.609-1.598V2.849zm18.24 13.34c.044.346.33.626.682.626.352 0 .638-.28.593-.625V11.34c.045-.345-.24-.625-.593-.341H3.958v-.284a.637.637 0 00-.642.625v15.84c.004.346.29.626.642.631h16.304c.352-.005.638-.285.593-.63V21.84c.045-.346-.24-.625-.593-.625-.352 0-.638.28-.683.625v3.836l-1.545-1.553a.647.647 0 00-.902.001.616.616 0 00.002.884l1.585.992H5.5l1.585-.992c.25-.243.25-.64.002-.884a.647.647 0 00-.902-.001L5 25.676v-12.83L6.186 14.4a.642.642 0 00.45.182.642.642 0 00.452-.183.616.616 0 00-.002-.884L5.501 12h13.218l-1.586 1.515a.616.616 0 00-.001.884.643.643 0 00.902.001l1.545-1.553v3.342zm-5.486-8.574V3.988a.602.602 0 00-.63-.613H3.958a.619.619 0 00-.642.613v3.626c.004.345.29.625.642.574h9.506a.552.552 0 00.63-.574zm8.308-.182l-4.658-4.55 1.021-.998 4.659 4.55-1.022.998zm-1.551 11.355a.64.64 0 00-1.205.077.623.623 0 00.245.67.654.654 0 00.742 0 .622.622 0 00.218-.747zm-8.61 5.027c2.09 0 3.791-1.654 3.791-3.688 0-2.298-3.026-4.965-3.37-5.262a.648.648 0 00-.835-.005c-.034.028-.84.705-1.653 1.663-1.144 1.348-1.725 2.56-1.725 3.604 0 2.034 1.701 3.688 3.792 3.688zm.578-16.877H4.592V4.626h8.227v2.313zm-.578 15.627c-1.387 0-2.516-1.094-2.516-2.438 0-1.309 1.554-3.043 2.51-3.942.96.918 2.522 2.68 2.522 3.942 0 1.344-1.129 2.438-2.516 2.438z" fill="url(#paint0_linear)"/><defs><linearGradient id="paint0_linear" x1="0" y1="0" x2="25.244" y2=".222" gradientUnits="userSpaceOnUse"><stop stop-color="#FFDA0B"/><stop offset="1" stop-color="#FFAD33"/></linearGradient></defs></svg>