<svg width="32" height="32" fill="none" xmlns="http://www.w3.org/2000/svg"><path d="M6.625 0a.896.896 0 00-.909.938v1.03H.937A.894.894 0 000 2.875v24.438c0 .517.42.937.938.687H16.55c1.516 2.51 4.093 4 7.012 4C28.215 32 32 28.215 32 23.562c0-2.004-.703-3.847-2-5.296V2.875c.125-.518-.295-.938-.813-.907H24.41V.938A.898.898 0 0023.5 0a.978.978 0 00-.964.938v1.03h-3.748V.938A.901.901 0 0017.875 0a.974.974 0 00-.961.938v1.03h-3.702V.938A.976.976 0 0012.25 0a.9.9 0 00-.912.938v1.03H7.59V.938A.98.98 0 006.625 0zm7.563 18.835c-.518.04-.938.46-.938.977 0 .518.42.938.938.897h1.42a9.266 9.266 0 00-.43 1.92h-.99a.93.93 0 00-.938.933c0 .518.42.938.938.942h.99c.071.646.218 1.274.43 1.496H2V10h26.252v6.55a8.4 8.4 0 00-4.69-1.425 8.438 8.438 0 00-7.078 3.85c-.127-.063-.27-.1-.422-.14h-1.875zM23.562 17a6.57 6.57 0 016.563 6.563 6.57 6.57 0 01-6.563 6.562A6.57 6.57 0 0117 23.562 6.57 6.57 0 0123.563 17zM18.788 3.842h3.748v.908a.978.978 0 00.964.938c.518 0 .938-.42.91-.938v-.908h3.842V8H1.874V3.842h3.842v.908a.896.896 0 00.909.938.98.98 0 00.965-.938v-.908h3.748v.908a.9.9 0 00.912.938c.518 0 .938-.42.962-.938v-.908h3.702v.908a.974.974 0 00.961.938c.518 0 .938-.42.913-.938v-.908zm-12.163 9.37H8.5c.518.038.938-.382.938-.9a.923.923 0 00-.938-.927H6.625a.923.923 0 00-.938.928c0 .517.42.937.938.9zM8.5 17c.518 0 .938-.42.938-.938a.925.925 0 00-.938-.929H6.625a.925.925 0 00-.938.93c0 .517.42.937.938.937H8.5zm.938 2.813a.928.928 0 00-.938-.932H6.625a.928.928 0 00-.938.931c0 .518.42.938.938.938H8.5c.518 0 .938-.42.938-.938zm4.75-6.6h1.874c.518.037.938-.383.938-.9a.923.923 0 00-.938-.928h-1.875a.923.923 0 00-.937.928c0 .517.42.937.938.9zM16.061 17c.518 0 .938-.42.938-.938a.925.925 0 00-.938-.929h-1.875a.925.925 0 00-.937.93c0 .517.42.937.938.937h1.874zM5.688 23.563c0 .517.42.937.938.94H8.5a.943.943 0 00.938-.94.93.93 0 00-.938-.933H6.625a.93.93 0 00-.938.933zm17.875-12.178h-1.875a.923.923 0 00-.937.928c0 .517.42.937.938.9h1.875c.517.037.937-.383.937-.9a.923.923 0 00-.938-.928zm4.688 12.178a.93.93 0 00-.938-.933h-2.808v-2.817a.943.943 0 00-.942-.938.93.93 0 00-.932.938v3.75a.936.936 0 00.933.94h3.75a.943.943 0 00.937-.94z" fill="url(#paint0_linear)"/><defs><linearGradient id="paint0_linear" x1="0" y1="0" x2="32.357" y2=".365" gradientUnits="userSpaceOnUse"><stop stop-color="#FFDA0B"/><stop offset="1" stop-color="#FFAD33"/></linearGradient></defs></svg>