<svg width="823" height="559" fill="none" xmlns="http://www.w3.org/2000/svg"><g clip-path="url(#clip0)"><path d="M585.763 218.262l.045-.045-11.22-11.191-3.193 3.193 6.356 6.356c-2.832 1.085-4.85 3.811-4.85 7.019a7.532 7.532 0 007.53 7.53c1.07 0 2.094-.225 3.013-.632v21.718a3.022 3.022 0 01-3.012 3.013 3.022 3.022 0 01-3.013-3.013v-13.555a6.023 6.023 0 00-6.024-6.024h-3.012v-21.086a6.024 6.024 0 00-6.025-6.025h-18.074a6.023 6.023 0 00-6.024 6.025v48.196h30.122v-22.592h4.519v15.061a7.533 7.533 0 007.53 7.531 7.534 7.534 0 007.531-7.531v-28.616a7.562 7.562 0 00-2.199-5.332zm-23.405 8.344h-18.074v-15.061h18.074v15.061zm18.074 0a3.021 3.021 0 01-3.013-3.012 3.021 3.021 0 013.013-3.012 3.021 3.021 0 013.012 3.012 3.021 3.021 0 01-3.012 3.012z" fill="url(#paint0_linear)"/></g><path opacity=".04" d="M775.526 403.133c0-201.666-163.482-365.149-365.149-365.149-201.666 0-365.149 163.483-365.149 365.149" stroke="#000" stroke-width="22"/><path d="M44.5 403c3.5-70.5 13-108 42-167.5" stroke="url(#paint1_linear)" stroke-width="22"/><path stroke="#fff" stroke-width="26" d="M.92 407.145h87.826m734.254.791h-87.826M54.651 205.405l80.705 44.308M776.39 202.24l-80.705 44.309M204.335 49.494l45.1 75.166m370.15-74.375l-45.1 75.167M408.85 87.664V.006"/><path stroke="url(#paint2_linear)" stroke-width="4" d="M37.316 418.145h102.859"/><path stroke="#000" stroke-width="4" d="M782.646 418.936h-63.298m20.814-195.792l-55.485 30.463M220.869 80.19l32.567 54.277M602.67 80.19l-32.567 54.278M410.355 93.37V30.072"/><path d="M37.316 490.06h27.999v-7.222H46.076v-9.893h17.722v-7.222H46.076v-9.872h19.158v-7.222H37.316v41.431z" fill="url(#paint3_linear)"/><path d="M754.6 489.772h8.759v-17.115h16.852v-7.222h-16.852v-9.872h18.673v-7.222H754.6v41.431z" fill="#000"/><path d="M82.34 221.578l90.164 49.502" stroke="url(#paint4_linear)" stroke-width="4"/><path d="M213.626 490.715c-.554-6.396-5.238-10.021-11.734-10.021-6.95 0-12.439 4.633-12.439 13.244 0 8.574 5.338 13.245 12.439 13.245 7.554 0 11.381-5.238 11.734-9.619l-7.101-.05c-.353 2.203-1.914 3.575-4.482 3.575-3.412 0-5.388-2.417-5.388-7.151 0-4.482 1.913-7.151 5.438-7.151 2.695 0 4.231 1.586 4.432 3.928h7.101zm2.319 1.964h6.043v14.151h6.547v-14.151h6.144v-5.187h-18.734v5.187zm21.315 21.403h6.95v-10.424h.1c.806 1.964 2.669 3.424 5.389 3.424 4.129 0 7.604-3.223 7.604-9.921 0-7-3.727-9.921-7.554-9.921-2.87 0-4.683 1.662-5.439 3.626h-.151v-3.374h-6.899v26.59zm6.798-16.921c0-2.87 1.159-4.583 3.072-4.583 1.914 0 3.022 1.713 3.022 4.583 0 2.871-1.108 4.583-3.022 4.583-1.913 0-3.072-1.763-3.072-4.583zm21.545 9.971c2.518 0 4.419-.856 5.59-3.021h.151v2.719h6.496v-13.244c0-3.576-3.386-6.346-8.913-6.346-5.779 0-8.624 3.022-8.864 6.547h6.396c.164-1.196 1.045-1.763 2.367-1.763 1.209 0 2.065.554 2.065 1.562v.05c0 1.12-1.234 1.473-4.482 1.712-3.991.29-7.101 1.901-7.101 6.144 0 3.853 2.593 5.64 6.295 5.64zm2.266-4.381c-1.183 0-2.014-.579-2.014-1.662 0-.994.705-1.762 2.316-2.014 1.108-.176 2.04-.403 2.77-.705v1.611c0 1.763-1.498 2.77-3.072 2.77zm19.839-15.259h-6.547v19.338h6.547v-7.151h4.834v7.151h6.496v-19.338h-6.496v7h-4.834v-7zm21.188 10.475v-10.475h-6.546v19.338h6.546l5.389-10.525v10.525h6.546v-19.338h-6.546l-5.389 10.475zm33.502-10.475h-6.446v14.151h-5.036v-14.151h-6.547v19.338h14.655v6.194h6.698v-10.525h-3.324v-15.007zm11.18 19.64c2.518 0 4.419-.856 5.59-3.021h.151v2.719h6.496v-13.244c0-3.576-3.387-6.346-8.914-6.346-5.778 0-8.624 3.022-8.863 6.547h6.396c.163-1.196 1.045-1.763 2.367-1.763 1.208 0 2.064.554 2.064 1.562v.05c0 1.12-1.233 1.473-4.482 1.712-3.991.29-7.1 1.901-7.1 6.144 0 3.853 2.593 5.64 6.295 5.64zm2.266-4.381c-1.184 0-2.015-.579-2.015-1.662 0-.994.705-1.762 2.317-2.014 1.108-.176 2.04-.403 2.77-.705v1.611c0 1.763-1.498 2.77-3.072 2.77zm-159.643 30.457h-6.546v19.338h6.546v-7.151h4.835v7.151h6.496v-19.338h-6.496v7h-4.835v-7zm23.908 19.69c5.364 0 8.813-2.568 9.468-6.597h-6.345c-.403 1.096-1.549 1.713-2.971 1.713-2.065 0-3.274-1.36-3.274-3.223v-.303h12.59v-1.611c0-6.157-3.777-9.921-9.619-9.921-5.992 0-9.82 3.978-9.82 9.971 0 6.257 3.777 9.971 9.971 9.971zm-3.122-12.237c.038-1.674 1.423-2.82 3.122-2.82 1.725 0 3.035 1.158 3.072 2.82h-6.194zm29.035-7.453h-6.546v19.338h6.546v-7.151h4.835v7.151h6.496v-19.338h-6.496v7h-4.835v-7zm20.031 19.64c2.518 0 4.419-.856 5.59-3.022h.151v2.72h6.496v-13.245c0-3.575-3.386-6.345-8.913-6.345-5.779 0-8.624 3.022-8.864 6.547h6.396c.164-1.196 1.045-1.763 2.367-1.763 1.209 0 2.065.554 2.065 1.561v.051c0 1.12-1.234 1.473-4.482 1.712-3.991.29-7.101 1.901-7.101 6.144 0 3.852 2.594 5.64 6.295 5.64zm2.266-4.381c-1.183 0-2.014-.579-2.014-1.662 0-.995.705-1.763 2.316-2.014 1.108-.177 2.04-.403 2.77-.705v1.611c0 1.763-1.498 2.77-3.072 2.77zm19.839-4.784v-10.475h-6.547v19.338h6.547l5.388-10.525v10.525h6.547v-19.338h-6.547l-5.388 10.475zm5.187-17.425c-.013 1.108-.718 2.115-2.518 2.115-1.876 0-2.581-1.057-2.569-2.115h-4.331c-.012 3.274 2.657 5.389 6.9 5.389 4.217 0 6.886-2.115 6.899-5.389h-4.381zm9.127 32.029h6.748v-5.741h10.173v5.741h6.547v-10.978h-3.022v-14.101H306.4l-.403 5.439c-.201 2.719-.352 7.956-2.115 8.662h-1.41v10.978zm8.058-10.978c1.007-1.813 1.41-4.482 1.611-8.662v-.403h4.331v9.065h-5.942zm27.26 5.589c5.363 0 8.813-2.568 9.468-6.597h-6.346c-.403 1.096-1.548 1.713-2.971 1.713-2.065 0-3.273-1.36-3.273-3.223v-.303h12.59v-1.611c0-6.157-3.777-9.921-9.619-9.921-5.993 0-9.82 3.978-9.82 9.971 0 6.257 3.777 9.971 9.971 9.971zm-3.122-12.237c.037-1.674 1.422-2.82 3.122-2.82 1.725 0 3.034 1.158 3.072 2.82h-6.194zm21.972-7.453h-6.547v19.338h6.547v-7.151h4.835v7.151h6.496v-19.338h-6.496v7h-4.835v-7zm20.031 19.64c2.518 0 4.419-.856 5.589-3.022h.152v2.72h6.496v-13.245c0-3.575-3.387-6.345-8.914-6.345-5.778 0-8.624 3.022-8.863 6.547h6.396c.163-1.196 1.045-1.763 2.367-1.763 1.208 0 2.064.554 2.064 1.561v.051c0 1.12-1.233 1.473-4.482 1.712-3.991.29-7.1 1.901-7.1 6.144 0 3.852 2.593 5.64 6.295 5.64zm2.266-4.381c-1.184 0-2.015-.579-2.015-1.662 0-.995.705-1.763 2.317-2.014 1.108-.177 2.039-.403 2.77-.705v1.611c0 1.763-1.499 2.77-3.072 2.77zM261.352 362.662h59.253v19.059h31.65v-19.059h14.04v-25.731h-14.04v-77.19h-41.882l-49.021 77.19v25.731zm59.967-25.731h-27.366v-.952l26.414-41.931h.952v42.883zm148.173 200.741h59.254v19.079h31.65v-19.079h14.04v-25.756h-14.04v-77.269h-41.883l-49.021 77.269v25.756zm59.968-25.756h-27.366v-.954l26.414-41.974h.952v42.928z" fill="#000"/><defs><linearGradient id="paint0_linear" x1="538.26" y1="205.52" x2="588.518" y2="206.04" gradientUnits="userSpaceOnUse"><stop stop-color="#FFDA0B"/><stop offset="1" stop-color="#FFAD33"/></linearGradient><linearGradient id="paint1_linear" x1="32.779" y1="399.804" x2="103.913" y2="242.77" gradientUnits="userSpaceOnUse"><stop stop-color="#FFDA0B"/><stop offset="1" stop-color="#FFAD33"/></linearGradient><linearGradient id="paint2_linear" x1="37.316" y1="420.145" x2="81.612" y2="471.579" gradientUnits="userSpaceOnUse"><stop stop-color="#FFDA0B"/><stop offset="1" stop-color="#FFAD33"/></linearGradient><linearGradient id="paint3_linear" x1="37.316" y1="448.629" x2="65.629" y2="448.845" gradientUnits="userSpaceOnUse"><stop stop-color="#FFDA0B"/><stop offset="1" stop-color="#FFAD33"/></linearGradient><linearGradient id="paint4_linear" x1="82.34" y1="221.578" x2="96.415" y2="287.982" gradientUnits="userSpaceOnUse"><stop stop-color="#FFDA0B"/><stop offset="1" stop-color="#FFAD33"/></linearGradient><clipPath id="clip0"><path fill="#fff" transform="translate(536 205.52)" d="M0 0h54.221v54.221H0z"/></clipPath></defs></svg>