<svg width="30" height="30" fill="none" xmlns="http://www.w3.org/2000/svg"><g clip-path="url(#clip0)" fill="#fff"><path d="M28.702 10.454h-1.88c-.316-2.942-2-6.175-4.889-6.175H7.604c-1.43 0-2.735.847-3.673 2.386-.646 1.06-1.063 2.376-1.215 3.79H1.298A1.3 1.3 0 000 11.752v1.511a1.3 1.3 0 001.298 1.299h.317a4.61 4.61 0 00-.433 1.953v3.727a1.15 1.15 0 00-.515.958v.798c0 .605.47 1.1 1.064 1.145v1.268c0 .722.587 1.31 1.309 1.31h3.85a1.31 1.31 0 001.309-1.31v-1.264h3.033c.203.178.467.287.757.287h5.56c.29 0 .554-.109.757-.287h3.033v1.264c0 .722.588 1.31 1.31 1.31h3.849a1.31 1.31 0 001.31-1.31v-1.268a1.15 1.15 0 001.063-1.145V21.2c0-.4-.205-.752-.515-.958v-1.47a.44.44 0 10-.879 0v1.278h-9.171a1.154 1.154 0 00-.757-.286h-5.56c-.28 0-.551.106-.757.286H2.061v-3.535c0-2.106 1.735-3.76 3.76-3.76h1.873l1.73 2.823a2.695 2.695 0 002.283 1.278h6.123c.926 0 1.8-.49 2.284-1.278l1.73-2.823h1.873c2.021 0 3.76 1.65 3.76 3.76v.207a.44.44 0 10.88 0c-.012-.115.081-1.056-.434-2.16h.779A1.3 1.3 0 0030 13.264v-1.511a1.3 1.3 0 00-1.298-1.299zm-27.404 3.23a.42.42 0 01-.42-.42v-1.511a.42.42 0 01.42-.42h1.357c-.003.107-.005.215-.005.322v1.48c-.18.169-.348.353-.5.55H1.3zM7.32 24.412a.43.43 0 01-.43.43H3.04a.431.431 0 01-.43-.43v-1.264h4.71v1.264zm19.608 0a.43.43 0 01-.43.43h-3.85a.431.431 0 01-.43-.43v-1.264h4.71v1.264zm.793-3.482a.249.249 0 01.064.01.273.273 0 01.207.26v.8c0 .147-.124.27-.27.27h-9.024v-1.34h9.023zm-10.172-.286c.147 0 .27.125.27.27v1.372c0 .138-.117.27-.27.27h-5.56a.275.275 0 01-.27-.27v-1.372c0-.144.123-.27.27-.27h5.56zm-6.71.286v1.34H1.817a.274.274 0 01-.27-.27v-.8a.274.274 0 01.27-.27h9.024zm-5.831-8.98v-.295c0-1.435.333-2.772.937-3.763.493-.81 1.082-1.255 1.66-1.255h6.37a.44.44 0 100-.88h-6.37c-.896 0-1.752.596-2.41 1.677-.688 1.128-1.066 2.627-1.066 4.221v.543a4.626 4.626 0 00-.6.287v-.83c0-1.545.348-3.211 1.153-4.533.772-1.266 1.81-1.964 2.922-1.964h14.33c1.112 0 2.15.698 2.922 1.964.802 1.317 1.153 2.973 1.153 4.533v.83a4.614 4.614 0 00-.6-.287v-.543c0-1.594-.378-3.093-1.065-4.22-.659-1.082-1.515-1.677-2.41-1.677h-5.909a.44.44 0 100 .879h5.909c.577 0 1.166.445 1.659 1.255.604.991.937 2.328.937 3.763v.294a4.787 4.787 0 00-.778-.071 3.7 3.7 0 00-3.696-3.693 3.7 3.7 0 00-3.696 3.692H5.821a4.86 4.86 0 00-.813.072zm14.357 3.17a1.81 1.81 0 01-1.534.858h-6.124a1.81 1.81 0 01-1.534-.859l-1.448-2.363h12.088l-1.448 2.363zm-.667-3.243a1.36 1.36 0 011.358-1.353 1.36 1.36 0 011.358 1.353h-2.716zm3.595 0a2.24 2.24 0 00-2.237-2.232 2.24 2.24 0 00-2.237 2.232h-.58a2.82 2.82 0 012.817-2.813 2.82 2.82 0 012.817 2.813h-.58zm6.828 1.387a.42.42 0 01-.42.42h-1.314a4.669 4.669 0 00-.5-.55v-1.479c0-.106-.001-.214-.004-.322h1.819a.42.42 0 01.419.42v1.511z"/><path d="M11.294 17.628a.44.44 0 100 .879h6.95a.44.44 0 100-.88h-6.95zm12.838-3.25a2.155 2.155 0 00-2.152 2.152c0 1.187.965 2.153 2.152 2.153a2.155 2.155 0 002.152-2.153 2.155 2.155 0 00-2.152-2.152zm0 3.426a1.275 1.275 0 01-1.274-1.274 1.275 1.275 0 012.547 0c0 .703-.57 1.274-1.273 1.274zM3.253 16.53c0 1.187.966 2.153 2.153 2.153a2.155 2.155 0 002.152-2.153 2.155 2.155 0 00-2.152-2.152 2.155 2.155 0 00-2.153 2.152zm3.426 0c0 .703-.57 1.274-1.273 1.274a1.275 1.275 0 01-1.274-1.274 1.275 1.275 0 012.547 0z"/></g><defs><clipPath id="clip0"><path fill="#fff" d="M0 0h30v30H0z"/></clipPath></defs></svg>