<svg width="36" height="36" fill="none" xmlns="http://www.w3.org/2000/svg"><path d="M18 1.125A16.879 16.879 0 003.503 26.642a.562.562 0 00-.033.67l.637.956-2.709 1.625a.563.563 0 00.18 1.034l2.334.466-.156 2.89a.563.563 0 00.851.512l4.296-2.58a16.883 16.883 0 0018.194 0l4.296 2.58a.563.563 0 00.852-.513l-.156-2.888 2.334-.467a.563.563 0 00.18-1.034l-2.71-1.625.638-.956a.56.56 0 00-.034-.67A16.877 16.877 0 0018 1.125zM6.354 26.464a26.913 26.913 0 0123.292 0l1.589.763-1.623 2.434a28.036 28.036 0 00-23.224 0l-1.623-2.434 1.59-.763zM18 22.689a28.22 28.22 0 00-9.329 1.6A11.16 11.16 0 016.75 18c0-6.203 5.047-11.25 11.25-11.25S29.25 11.797 29.25 18a11.166 11.166 0 01-1.921 6.29A28.217 28.217 0 0018 22.688zm3.893 5.867a11.261 11.261 0 01-7.786 0 26.549 26.549 0 017.786 0zM4.936 33.285l.126-2.317a.563.563 0 00-.452-.582l-1.385-.277 1.506-.904.989 1.482a.562.562 0 00.71.196c.376-.18.757-.35 1.142-.51l.633.948-3.269 1.964zm4.576-2.016a.564.564 0 00-.044-.081l-.825-1.237a27.146 27.146 0 013.521-1.037 12.384 12.384 0 0011.672 0c1.196.265 2.372.612 3.521 1.036l-.825 1.238a.568.568 0 00-.044.08 15.759 15.759 0 01-16.976 0zm23.264-1.16l-1.386.277a.563.563 0 00-.452.582l.126 2.316-3.269-1.963.633-.949c.385.162.766.332 1.143.51a.563.563 0 00.71-.195l.988-1.482 1.507.904zm-1.27-4l-1.373-.66a27.4 27.4 0 00-1.724-.755A12.283 12.283 0 0030.375 18c0-6.824-5.551-12.375-12.375-12.375S5.625 11.176 5.625 18c-.006 2.375.676 4.7 1.965 6.695-.583.232-1.157.484-1.722.755l-1.372.658a15.75 15.75 0 1127.01 0z" fill="#000"/><path d="M23.344 13.5H20.25a.564.564 0 01-.563-.563V11.25A1.69 1.69 0 0018 9.562h-1.125a.562.562 0 00-.563.563v1.24a3.212 3.212 0 01-.947 2.287l-.41.41h-3.143a.562.562 0 00-.562.563v6.188a.562.562 0 00.563.562h9.843a1.405 1.405 0 001.315-1.906 1.405 1.405 0 00.563-1.687 1.405 1.405 0 00.562-1.688 1.406 1.406 0 00-.752-2.594zm-10.969 1.688h2.25v5.062h-2.25v-5.063zm10.969 0h-.563a.563.563 0 000 1.124.281.281 0 110 .563h-.562a.563.563 0 000 1.125.281.281 0 110 .563h-.563a.563.563 0 000 1.125.281.281 0 110 .562H15.75v-5.392l.41-.41a4.331 4.331 0 001.277-3.083v-.678H18a.564.564 0 01.563.563v1.688a1.69 1.69 0 001.687 1.687h3.094a.281.281 0 110 .563zm-6.51 10.138l.52.379-.199.611a.211.211 0 00.325.236l.52-.378.52.378a.211.211 0 00.325-.236l-.199-.611.52-.378a.21.21 0 00-.123-.382h-.644l-.198-.612a.211.211 0 00-.402 0l-.198.612h-.643a.21.21 0 00-.124.381zm-3.247.407l.52.378-.198.612a.211.211 0 00.325.236l.52-.378.52.378a.211.211 0 00.325-.236l-.199-.612.52-.378a.21.21 0 00-.124-.381h-.643l-.199-.612a.211.211 0 00-.4 0l-.2.612h-.643a.211.211 0 00-.124.381zm6.493 0l.52.378-.199.612a.21.21 0 00.325.236l.52-.378.52.378a.211.211 0 00.325-.236l-.199-.612.52-.378a.21.21 0 00-.123-.381h-.644l-.198-.612a.211.211 0 00-.402 0l-.198.612h-.643a.21.21 0 00-.124.381z" fill="#000"/></svg>