<svg width="27" height="27" fill="none" xmlns="http://www.w3.org/2000/svg"><circle cx="13.5" cy="13.205" r="13.205" fill="#000001"/><path d="M6.469 13.452l3.036 1.132 1.183 3.808c.052.257.36.309.566.154l1.698-1.39c.155-.153.412-.153.618 0l3.036 2.214c.205.154.514.051.566-.206l2.264-10.806c.051-.257-.206-.515-.463-.412L6.469 12.783c-.309.103-.309.566 0 .67zm4.065.566l5.969-3.653c.103-.052.206.103.103.154l-4.889 4.58c-.154.154-.308.36-.308.617l-.155 1.235c0 .154-.257.206-.309 0l-.617-2.264c-.154-.257-.051-.566.206-.669z" fill="#fff"/></svg>