<svg width="30" height="30" fill="none" xmlns="http://www.w3.org/2000/svg"><g clip-path="url(#clip0)" fill="#050402"><path d="M18.972 20.473h-7.943a.44.44 0 100 .88h7.943a.44.44 0 100-.88zm0-1.478h-7.943a.44.44 0 100 .878h7.943a.44.44 0 100-.878zm0-1.479h-7.943a.44.44 0 100 .879h7.943a.44.44 0 100-.879z"/><path d="M27.952 14.418V9.906a.44.44 0 10-.879 0v3.752a2.393 2.393 0 00-1.904-.105V11.25a3.839 3.839 0 00-3.834-3.834H8.665a3.839 3.839 0 00-3.834 3.834v2.303a2.395 2.395 0 00-1.904.105V2.798h24.146v5.057a.44.44 0 10.88 0V1.203A1.207 1.207 0 0026.748 0H3.252c-.664 0-1.204.54-1.204 1.203v13.214a2.383 2.383 0 000 2.757v4.57c0 .664.54 1.204 1.204 1.204h.604c.032.04.068.076.105.11v1.081c-.534.07-.947.528-.947 1.08v.734c0 .563.428 1.028.976 1.085v1.724A1.24 1.24 0 005.23 30h3.536a1.24 1.24 0 001.238-1.238v-1.717h1.826c.19.163.438.263.709.263h1.437a.44.44 0 100-.879h-1.437a.217.217 0 01-.213-.212v-1.26c0-.113.097-.213.213-.213h4.895c.128 0 .199.068.233.154.002.008.01.025.01.058v1.26a.217.217 0 01-.213.213h-1.437a.44.44 0 100 .879h1.437c.27 0 .518-.1.709-.263h1.825v1.716a1.24 1.24 0 001.239 1.24h3.536a1.24 1.24 0 001.238-1.24v-1.723c.548-.057.977-.522.977-1.085v-.733c0-.553-.413-1.01-.947-1.081v-1.08c.037-.035.072-.072.105-.111h.604c.663 0 1.203-.54 1.203-1.204v-4.57a2.378 2.378 0 000-2.756zm-2.083 2.884a2.258 2.258 0 00-.7-.917v-1.852a1.513 1.513 0 11.7 2.769zm-7.344 4.829h-7.05a1.17 1.17 0 00-1.168 1.169v.828H4.84v-.75h3.445a1.17 1.17 0 001.17-1.169v-.567a1.17 1.17 0 00-1.17-1.169H4.84v-2.31c0-.769.627-1.372 1.371-1.372h17.578c.753 0 1.371.613 1.371 1.372v2.31h-3.445a1.17 1.17 0 00-1.169 1.169v.567a1.17 1.17 0 001.169 1.169h3.445v.75h-5.466V23.3a1.17 1.17 0 00-1.17-1.17zM2.489 15.796c0-1.189 1.325-1.932 2.342-1.263v1.852c-.319.247-.556.57-.7.917a1.513 1.513 0 01-1.642-1.506zm3.88 5.556h1.916c.158 0 .29.133.29.29v.567c0 .157-.133.29-.29.29H6.368c.024-.093.038-.19.038-.29v-.567c0-.1-.014-.197-.038-.29zm-.842.29v.567c0 .157-.132.29-.29.29h-.476a.295.295 0 01-.29-.29v-.567c0-.155.133-.29.29-.29h.476c.157 0 .29.133.29.29zm17.244-5.73h-.654a3.82 3.82 0 00-3.814-3.703 3.82 3.82 0 00-3.814 3.704H7.23V11.25c0-.792.645-1.436 1.437-1.436h12.669c.792 0 1.436.644 1.436 1.436v4.662zm-5.887 0a1.426 1.426 0 011.42-1.31c.747 0 1.36.578 1.419 1.31h-2.84zm1.42-2.19a2.306 2.306 0 00-2.301 2.19h-.636a2.942 2.942 0 012.936-2.824 2.941 2.941 0 012.936 2.825h-.635a2.306 2.306 0 00-2.3-2.19zm5.328 8.777h-1.917a.294.294 0 01-.29-.29v-.567c0-.157.133-.29.29-.29h1.917c-.023.093-.038.19-.038.29v.567c0 .1.015.197.038.29zm.841-.29v-.567c0-.157.133-.29.29-.29h.476a.294.294 0 01.29.29v.567c0 .156-.133.29-.29.29h-.476a.294.294 0 01-.29-.29zM5.71 11.25a2.959 2.959 0 012.956-2.955h12.669a2.959 2.959 0 012.955 2.955v4.719a2.445 2.445 0 00-.22-.038c-.182-.023-.277-.018-.42-.018V11.25a2.318 2.318 0 00-2.316-2.315H8.666A2.318 2.318 0 006.35 11.25v4.662c-.185.004-.364-.006-.64.057V11.25zM2.927 1.203c0-.179.146-.324.325-.324h23.497c.179 0 .324.145.324.324v.716H2.927v-.716zm0 20.541v-3.81c.32.16.684.247 1.034.253v2.605l-.002.002a1.165 1.165 0 00-.367.848v.427h-.34a.325.325 0 01-.325-.325zm.965 4.21v-.734c0-.115.098-.213.213-.213h7.341v1.159H4.105a.215.215 0 01-.213-.213zm5.232 2.807a.36.36 0 01-.36.36H5.23a.36.36 0 01-.36-.36v-1.716h4.255v1.716zm3.384-4.896c-.26 0-.512.096-.708.263h-.614V23.3c0-.158.133-.29.29-.29h7.049c.157 0 .29.132.29.29v.828h-.643c-.348-.298-.721-.26-.739-.263h-4.925zm12.623 4.896a.36.36 0 01-.36.36h-3.535a.36.36 0 01-.36-.36v-1.716h4.255v1.716zm.977-3.541v.733a.215.215 0 01-.213.213h-7.34v-1.159h7.34c.116 0 .213.098.213.213zm.965-3.476a.325.325 0 01-.324.325h-.34v-.427c0-.334-.142-.635-.367-.848l-.003-.002v-2.605a2.415 2.415 0 001.034-.254v3.811z"/></g><defs><clipPath id="clip0"><path fill="#fff" d="M0 0h30v30H0z"/></clipPath></defs></svg>