<svg width="27" height="27" fill="none" xmlns="http://www.w3.org/2000/svg"><circle cx="13.795" cy="13.205" r="13.205" fill="#000001"/><path d="M17.924 6.963a20.48 20.48 0 00-7.646 0c-1.113.24-2.517 1.586-2.759 2.643a15.1 15.1 0 000 6.248c.29 1.057 1.694 2.403 2.759 2.643.048 0 .096.048.096.096v3.028c0 .144.194.24.29.096l1.453-1.49s1.161-1.201 1.355-1.393c0 0 .048-.049.097-.049 1.451.049 2.952-.096 4.403-.336 1.114-.24 2.517-1.586 2.76-2.643a15.098 15.098 0 000-6.248c-.291-1.009-1.695-2.355-2.808-2.595zm.049 9.035c-.242.48-.533.865-1.017 1.106l-.435.144c-.194-.048-.34-.097-.484-.145-1.549-.624-3-1.49-4.162-2.739a11.56 11.56 0 01-1.597-2.403c-.194-.432-.388-.817-.533-1.25-.145-.384.097-.768.339-1.057a2.24 2.24 0 01.871-.624c.242-.145.484-.049.678.144.387.48.774.96 1.064 1.49.194.336.146.72-.193.96-.097.049-.145.097-.242.193-.049.048-.145.096-.194.192a.464.464 0 00-.048.433c.387 1.105 1.113 1.97 2.226 2.45.194.097.339.145.58.145.34-.048.485-.433.727-.625s.532-.192.822-.048c.242.144.484.336.775.529.242.192.484.336.726.528.145.097.193.337.096.577zm-2.033-3.604c-.097 0-.048 0 0 0-.194 0-.242-.096-.29-.24 0-.097 0-.24-.049-.337a.913.913 0 00-.339-.529l-.29-.144c-.145-.048-.242-.048-.387-.048-.145-.048-.194-.144-.194-.288 0-.096.145-.192.242-.192.775.048 1.355.48 1.452 1.393v.192c0 .097-.048.193-.145.193zm-.484-2.115a3.65 3.65 0 00-.774-.24c-.097 0-.242-.048-.34-.048-.144 0-.241-.096-.193-.24 0-.145.097-.24.242-.193.484.048.92.144 1.355.337.871.432 1.355 1.153 1.5 2.114v.625c-.048.192-.387.24-.435 0 0-.048-.048-.144-.048-.192 0-.433-.097-.865-.29-1.25a2.613 2.613 0 00-1.017-.913zm2.613 2.884c-.145 0-.242-.145-.242-.289 0-.288-.048-.576-.096-.865-.194-1.538-1.452-2.787-2.953-3.028-.242-.048-.484-.048-.677-.096-.145 0-.339 0-.387-.192-.049-.144.096-.288.242-.288h.097c1.984.048.096 0 0 0 2.032.048 3.726 1.394 4.065 3.412.048.336.097.673.097 1.057.096.144 0 .289-.146.289z" fill="#fff"/></svg>