<svg width="27" height="27" fill="none" xmlns="http://www.w3.org/2000/svg"><circle cx="13.205" cy="13.205" r="13.205" fill="#000001"/><path d="M18.439 7.964a6.885 6.885 0 00-4.88-2.022c-3.816 0-6.908 3.082-6.908 6.885a6.96 6.96 0 00.918 3.418l-.966 3.563 3.671-.963a7.063 7.063 0 003.285.818c3.817 0 6.909-3.08 6.909-6.884-.048-1.782-.725-3.515-2.03-4.815zm-1.546 7.318c-.145.385-.821.77-1.16.819-.29.048-.676.048-1.062-.049-.242-.096-.58-.192-.967-.385-1.739-.722-2.85-2.455-2.947-2.6-.096-.096-.724-.914-.724-1.78 0-.867.434-1.253.58-1.445.144-.193.338-.193.482-.193h.339c.096 0 .241-.048.386.29.145.336.483 1.203.532 1.251a.306.306 0 010 .289 1.007 1.007 0 01-.194.289c-.096.096-.193.24-.241.289-.097.096-.193.192-.097.337.097.192.435.722.966 1.203.677.578 1.208.77 1.401.867.194.096.29.048.387-.048.097-.097.435-.482.531-.674.097-.193.242-.145.387-.097.145.049 1.014.482 1.16.578.193.096.29.144.337.193.049.144.049.481-.096.866z" fill="#fff"/></svg>