<svg width="426" height="434" fill="none" xmlns="http://www.w3.org/2000/svg"><g opacity=".1"><path d="M351.124 110.043l66.562 84.649H312.85l-49.929-84.649h88.203z" fill="#1ED7DC"/><path d="M417.686 194.692h-68.228l-64.981 149.843 133.209-149.843zm-204.684-84.649l-49.929 84.649H312.85l-49.929-84.649h-49.919z" fill="#B0E7FF"/><path d="M312.85 194.692l-99.848 230.245-99.848-230.245H312.85z" fill="#1ED7DC"/><path d="M113.154 194.692H50.748l121.84 137.051-59.434-137.051z" fill="#B0E7FF"/><path d="M163.073 110.043l-49.919 84.649H8.318l66.562-84.649h88.193z" fill="#1ED7DC"/><path d="M262.921 220.087c-4.591 0-8.321 3.791-8.321 8.464s3.73 8.465 8.321 8.465c4.591 0 8.321-3.792 8.321-8.465s-3.73-8.464-8.321-8.464z" fill="#fff"/><path d="M2.07 200.277c.019.027.038.056.066.082 0 .002.01.007.01.011L206.83 430.615c1.524 1.716 3.834 2.787 6.172 2.787 2.329 0 4.629-1.06 6.172-2.787L423.859 200.37c0-.003 0-.008.009-.011.019-.026.038-.055.067-.082 2.66-3.086 2.736-7.62.312-10.778-.019-.029-.038-.064-.066-.095l-66.562-84.649a8.268 8.268 0 00-6.495-3.176H74.88a8.267 8.267 0 00-6.495 3.176L1.814 189.404l-.057.095c-2.452 3.192-2.329 7.727.313 10.778zm165.718-81.769h90.428l39.932 67.719H127.847l39.941-67.719zm-41.872 84.649h174.163l-87.077 200.809-87.086-200.809zm192.358 0h80.668L241.441 380.325l76.833-177.168zm-210.544 0l76.834 177.168L27.062 203.157h80.668zm292.642-16.93h-82.817l-39.932-67.719h69.497l53.252 67.719zM78.875 118.508h69.506l-39.941 67.719H25.623l53.252-67.719z" fill="#fff"/><path d="M229.645 220.087h-61.762c-4.592 0-8.322 3.789-8.322 8.464 0 4.675 3.73 8.465 8.322 8.465h61.762c4.591 0 8.321-3.79 8.321-8.465s-3.73-8.464-8.321-8.464zM213.002 67.719c4.592 0 8.321-3.79 8.321-8.465V8.464c0-4.674-3.729-8.464-8.321-8.464-4.601 0-8.321 3.79-8.321 8.465v50.79c0 4.674 3.72 8.464 8.321 8.464zm55.808-2.479l33.276-33.859c3.257-3.305 3.257-8.666 0-11.972a8.22 8.22 0 00-11.767 0l-33.277 33.86c-3.247 3.305-3.247 8.665 0 11.972a8.221 8.221 0 0011.768 0zm-111.615 0a8.221 8.221 0 0011.767 0c3.247-3.305 3.247-8.665 0-11.972l-33.286-33.86a8.221 8.221 0 00-11.767 0c-3.247 3.306-3.247 8.666 0 11.973l33.286 33.86z" fill="#fff"/></g></svg>