<svg width="248" height="45" viewBox="0 0 248 45" fill="none" xmlns="http://www.w3.org/2000/svg">
<path d="M0 32.0994V0.0339355H14.6601C17.8161 0.0339355 20.497 1.11746 22.7028 3.31836C24.9086 5.51926 26.0285 8.12649 26.0285 11.1062C26.0285 13.1716 25.4516 15.1017 24.2638 16.8624C23.0761 18.6231 21.549 19.9098 19.6147 20.6547L26.5036 32.0655H18.6984L12.3186 21.5689H6.88889V32.0994H0ZM14.6601 15.6096C15.9836 15.6096 17.1034 15.1355 18.0197 14.2213C18.936 13.3071 19.4111 12.1897 19.4111 10.8692C19.4111 9.54861 18.936 8.46509 18.0197 7.55087C17.1034 6.63664 15.9836 6.19646 14.6601 6.19646H6.88889V15.5757H14.6601V15.6096Z" fill="#C43939"/>
<path d="M32.2726 11.0046C34.7159 8.60055 37.6683 7.38159 41.0958 7.38159C44.0482 7.38159 46.6951 8.32967 49.0027 10.2258C51.3103 12.122 52.7356 14.4922 53.3804 17.3703C53.584 18.2845 53.6858 19.1649 53.6858 20.0114C53.6858 20.824 53.584 21.6367 53.4143 22.3816H35.1571C35.5304 23.736 36.243 24.7518 37.3289 25.4629C38.4149 26.1739 39.6705 26.5464 41.1297 26.5464C43.4713 26.5464 45.3716 25.8692 46.8648 24.4809L52.6338 26.1401C51.6836 28.0362 50.1226 29.5599 47.9168 30.7112C45.711 31.8624 43.4373 32.438 41.1297 32.438C37.6344 32.438 34.682 31.2191 32.2386 28.7473C29.7953 26.2755 28.5736 23.3635 28.5736 19.9437C28.5736 16.4561 29.7953 13.4764 32.2726 11.0046ZM35.1231 17.4042H46.9327C46.5594 16.2529 45.8467 15.271 44.8287 14.4583C43.7767 13.6796 42.5211 13.2732 41.0618 13.2732C39.6026 13.2732 38.3131 13.6796 37.2611 14.4583C36.2091 15.2371 35.4964 16.2191 35.1231 17.4042Z" fill="#C43939"/>
<path d="M59.9639 11.0046C62.3054 8.60055 65.156 7.38159 68.4477 7.38159C71.0608 7.38159 73.3005 8.19423 75.167 9.85338V7.78791H81.8183V32.0656H75.167V30.034C73.3344 31.6254 71.0947 32.4042 68.4477 32.4042C65.156 32.4042 62.3394 31.1513 59.9639 28.6796C57.5884 26.2078 56.4007 23.262 56.4007 19.876C56.4346 16.4561 57.5884 13.4764 59.9639 11.0046ZM62.6109 19.9437C62.6109 21.7044 63.2217 23.2281 64.4773 24.5148C65.7329 25.8015 67.26 26.4448 69.0925 26.4448C70.8572 26.4448 72.3843 25.8015 73.6738 24.5148C74.9633 23.2281 75.6081 21.7044 75.6081 19.9437C75.6081 18.2168 74.9633 16.6592 73.6738 15.3726C72.3843 14.052 70.8572 13.4087 69.0925 13.4087C67.26 13.4087 65.7329 14.052 64.4773 15.3387C63.2556 16.6592 62.6109 18.1829 62.6109 19.9437Z" fill="#C43939"/>
<path d="M93.2885 0.0339355H86.6371V32.0994H93.2885V0.0339355Z" fill="#C43939"/>
<path d="M134.384 0.440308V6.806H117.552V13.341H132.552V19.5374H117.552V32.5058H110.663V0.440308H134.384Z" fill="white"/>
<path d="M144.938 0.440308H138.287V32.5058H144.938V0.440308Z" fill="white"/>
<path d="M185.932 8.19416V10.4289C187.765 8.6682 189.801 7.78784 192.041 7.78784C195.095 7.78784 197.538 9.04066 199.371 11.5124C200.389 10.3612 201.576 9.44698 203.002 8.76978C204.393 8.12644 205.818 7.78784 207.278 7.78784C209.721 7.78784 211.859 8.63434 213.691 10.3612C215.524 12.0881 216.44 14.4244 216.44 17.4041V32.4718H209.789V18.8601C209.789 17.3025 209.449 16.0836 208.805 15.1693C208.16 14.2551 207.176 13.8149 205.886 13.8149C203.103 13.8149 201.542 15.4402 201.203 18.6569V32.438H194.552V18.8601C194.552 17.3025 194.212 16.0836 193.568 15.1693C192.923 14.2551 191.939 13.8149 190.649 13.8149C189.02 13.8149 187.833 14.3567 187.052 15.4402C186.272 16.5237 185.898 17.9459 185.898 19.6727V32.438H179.247V8.19416H185.932Z" fill="white"/>
<path d="M223.6 11.3771C226.044 8.97299 228.996 7.75403 232.424 7.75403C235.376 7.75403 238.023 8.70211 240.331 10.5983C242.638 12.4944 244.063 14.8646 244.708 17.7427C244.912 18.657 245.014 19.5373 245.014 20.3838C245.014 21.1965 244.912 22.0091 244.742 22.754H226.485C226.858 24.1084 227.571 25.1242 228.657 25.8353C229.743 26.5464 230.998 26.9188 232.458 26.9188C234.799 26.9188 236.7 26.2416 238.193 24.8533L243.962 26.5125C243.011 28.4087 241.45 29.9324 239.245 31.0836C237.039 32.2348 234.765 32.8105 232.458 32.8105C228.962 32.8105 226.01 31.5915 223.566 29.1197C221.123 26.6479 219.901 23.736 219.901 20.3161C219.901 16.7947 221.123 13.815 223.6 11.3771ZM226.451 17.7427H238.261C237.887 16.5915 237.175 15.6096 236.157 14.7969C235.105 14.0181 233.849 13.6118 232.39 13.6118C230.93 13.6118 229.641 14.0181 228.589 14.7969C227.537 15.6096 226.824 16.5915 226.451 17.7427Z" fill="white"/>
<path d="M245.1 7.73991C246.876 7.45231 248.082 5.78261 247.794 4.01053C247.505 2.23846 245.832 1.03504 244.056 1.32264C242.28 1.61024 241.074 3.27994 241.362 5.05202C241.65 6.8241 243.324 8.0275 245.1 7.73991Z" stroke="white" stroke-miterlimit="10"/>
<path d="M243.317 6.09482V3.01355H244.742C245.048 3.01355 245.319 3.11513 245.523 3.31829C245.726 3.52145 245.828 3.79233 245.828 4.06321C245.828 4.26637 245.76 4.43567 245.658 4.60497C245.557 4.77427 245.387 4.90971 245.217 4.97743L245.896 6.06096H245.149L244.539 5.04515H243.996V6.06096H243.317V6.09482ZM244.742 4.50339C244.878 4.50339 244.98 4.46953 245.082 4.36795C245.183 4.26637 245.217 4.16479 245.217 4.02935C245.217 3.89391 245.183 3.79233 245.082 3.72461C244.98 3.62303 244.878 3.58917 244.742 3.58917H243.996V4.50339H244.742Z" fill="white"/>
<path d="M143.954 43.6118H142.597L139.407 40.6321V43.6118H138.355V37.1445H139.407V40.0565L142.597 37.1445H143.92L140.459 40.3274L143.954 43.6118Z" fill="white"/>
<path d="M145.074 37.9911C145.719 37.3478 146.465 37.0092 147.381 37.0092C147.891 37.0092 148.366 37.1107 148.773 37.3478C149.18 37.5848 149.519 37.8895 149.791 38.2958V37.1107H150.843V43.578H149.791V42.3929C149.553 42.7992 149.214 43.104 148.773 43.341C148.366 43.578 147.891 43.6796 147.381 43.6796C146.499 43.6796 145.719 43.341 145.074 42.6976C144.429 42.0543 144.124 41.2417 144.124 40.3274C144.124 39.4471 144.429 38.6683 145.074 37.9911ZM145.108 40.3613C145.108 41.0385 145.345 41.5803 145.787 42.0543C146.228 42.5283 146.805 42.7654 147.449 42.7654C148.094 42.7654 148.671 42.5283 149.112 42.0543C149.587 41.5803 149.825 41.0046 149.825 40.3613C149.825 39.718 149.587 39.1423 149.112 38.6683C148.637 38.1943 148.094 37.9572 147.449 37.9572C146.805 37.9572 146.228 38.1943 145.787 38.6683C145.345 39.1423 145.108 39.718 145.108 40.3613Z" fill="white"/>
<path d="M152.2 37.1445H154.101L156.205 43.0362L158.343 37.1445H160.209V43.6118H159.191V37.6186L157.019 43.6118H155.39L153.218 37.6524V43.6118H152.2V37.1445Z" fill="white"/>
<path d="M167.573 37.1445V43.6118H166.555V37.4831L163.637 43.6118H161.634V37.1445H162.619V43.2055L165.503 37.1445H167.573Z" fill="white"/>
<path d="M168.998 43.6118V37.1445H170.016V39.8872H173.885V37.1445H174.903V43.6118H173.885V40.8691H170.016V43.6118H168.998Z" fill="white"/>
<path d="M176.328 43.6118V37.1445H177.346V39.3454H179.858C180.469 39.3454 180.978 39.5486 181.385 39.9549C181.792 40.3612 181.996 40.8691 181.996 41.4448C181.996 42.0542 181.792 42.5283 181.385 42.9685C180.978 43.3748 180.469 43.5779 179.858 43.5779H176.328V43.6118ZM177.313 42.6637H179.586C180.027 42.6637 180.333 42.5621 180.57 42.3251C180.808 42.122 180.91 41.8172 180.91 41.4786C180.91 41.14 180.808 40.8353 180.57 40.6321C180.333 40.429 179.993 40.2935 179.586 40.2935H177.313V42.6637ZM182.471 37.1445H183.523V43.6118H182.471V37.1445Z" fill="white"/>
<path d="M194.144 42.6976H195.027V44.9662H194.043V43.6118H188.817V44.9662H187.833V42.6976C188.681 42.6976 189.122 41.9188 189.122 40.3951V37.1445H194.111V42.6976H194.144ZM189.665 42.6976H193.126V38.0588H190.208V40.3951C190.208 41.377 190.004 42.1558 189.665 42.6976Z" fill="white"/>
<path d="M195.909 43.6795V42.7653C196.418 42.7992 196.758 42.6637 196.927 42.3251C197.097 41.9865 197.199 41.5125 197.199 40.903V37.1445H202.221V43.6118H201.203V38.0926H198.251V40.903C198.251 41.3093 198.217 41.6818 198.149 42.0204C198.081 42.359 197.945 42.6299 197.776 42.9007C197.606 43.1716 197.368 43.3748 197.063 43.5102C196.724 43.6457 196.35 43.6795 195.909 43.6795Z" fill="white"/>
<path d="M203.341 43.6118L204.936 41.14C204.495 41.0384 204.155 40.8014 203.884 40.4628C203.612 40.1242 203.477 39.7179 203.477 39.2439C203.477 38.6682 203.68 38.1603 204.088 37.754C204.495 37.3477 205.004 37.1445 205.615 37.1445H209.042V43.6118H208.024V41.2416H206.056L204.529 43.6118H203.341ZM205.852 40.3612H207.99V38.0588H205.784C205.377 38.0588 205.072 38.1603 204.834 38.3974C204.597 38.6344 204.495 38.9053 204.495 39.21C204.495 39.5486 204.631 39.8195 204.902 40.0565C205.14 40.2258 205.445 40.3612 205.852 40.3612Z" fill="white"/>
<path d="M219.63 42.6976H220.512V44.9662H219.528V43.6118H214.302V44.9662H213.318V42.6976C214.166 42.6976 214.608 41.9188 214.608 40.3951V37.1445H219.596V42.6976H219.63ZM215.151 42.6976H218.612V38.0588H215.694V40.3951C215.66 41.377 215.49 42.1558 215.151 42.6976Z" fill="white"/>
<path d="M222.243 38.0249C222.888 37.3816 223.668 37.043 224.619 37.043C225.569 37.043 226.349 37.3816 226.994 38.0249C227.639 38.6682 227.978 39.4809 227.978 40.3612C227.978 41.2755 227.639 42.0542 226.994 42.7314C226.349 43.3748 225.535 43.7134 224.619 43.7134C223.702 43.7134 222.888 43.3748 222.243 42.7314C221.598 42.0881 221.259 41.2755 221.259 40.3612C221.259 39.447 221.598 38.6682 222.243 38.0249ZM222.277 40.3612C222.277 41.0384 222.515 41.5802 222.956 42.0542C223.397 42.5283 223.974 42.7314 224.619 42.7314C225.263 42.7314 225.84 42.4944 226.281 42.0204C226.723 41.5463 226.96 41.0046 226.96 40.3274C226.96 39.684 226.723 39.1084 226.281 38.6344C225.84 38.1603 225.263 37.9233 224.619 37.9233C223.974 37.9233 223.397 38.1603 222.956 38.6344C222.515 39.1423 222.277 39.7179 222.277 40.3612Z" fill="white"/>
<path d="M229.064 37.1445H230.93L233.034 43.0362L235.172 37.1445H237.039V43.6118H236.021V37.6186L233.883 43.6118H232.22L230.082 37.6524V43.6118H229.064V37.1445Z" fill="white"/>
<path d="M239.211 37.9911C239.856 37.3478 240.602 37.0092 241.518 37.0092C242.027 37.0092 242.502 37.1107 242.91 37.3478C243.317 37.5848 243.656 37.8895 243.928 38.2958V37.1107H244.98V43.578H243.928V42.3929C243.69 42.7992 243.351 43.104 242.91 43.341C242.502 43.578 242.027 43.6796 241.518 43.6796C240.636 43.6796 239.856 43.341 239.211 42.6976C238.566 42.0543 238.261 41.2417 238.261 40.3274C238.227 39.4471 238.566 38.6683 239.211 37.9911ZM239.245 40.3613C239.245 41.0385 239.482 41.5803 239.923 42.0543C240.365 42.5283 240.941 42.7654 241.586 42.7654C242.231 42.7654 242.808 42.5283 243.249 42.0543C243.724 41.5803 243.962 41.0046 243.962 40.3613C243.962 39.718 243.724 39.1423 243.249 38.6683C242.774 38.1943 242.231 37.9572 241.586 37.9572C240.941 37.9572 240.365 38.1943 239.923 38.6683C239.448 39.1423 239.245 39.718 239.245 40.3613Z" fill="white"/>
<path d="M163.704 0.575668C163.84 0.711108 164.146 1.04971 164.451 1.55761C164.824 2.13323 165.028 2.60727 165.299 3.14903C165.367 3.31833 165.571 3.72465 165.741 4.23255C165.842 4.50343 165.944 4.80817 166.08 5.21449C166.182 5.51924 166.317 6.02714 166.385 6.67048C166.453 7.0768 166.453 7.38154 166.453 7.61856C166.487 8.46506 166.419 9.07454 166.385 9.20998C166.351 9.51472 166.317 9.85332 166.182 10.2596C166.148 10.4289 165.842 11.4786 165.13 12.3928C164.96 12.596 164.756 12.833 164.756 12.833C164.655 12.9346 164.451 13.1716 164.078 13.5102C163.603 13.9504 163.195 14.2551 162.958 14.4244C162.279 14.9323 161.702 15.2709 161.499 15.4064C161.499 15.4064 159.904 16.3545 158.037 17.7089C156.612 18.7247 155.865 19.2326 155.221 20.0791C154.813 20.587 154.067 21.535 153.626 23.0249C153.524 23.4312 153.252 24.3793 153.32 25.6321C153.354 26.5463 153.558 27.1897 153.66 27.6298C153.693 27.7653 153.795 28.07 153.931 28.3409C154.033 28.5441 154.304 29.052 155.696 30.0678C156.205 30.4402 156.714 30.8127 157.46 31.1852C158.275 31.6253 158.953 31.8285 159.395 31.9639C159.972 32.1671 160.548 32.3364 161.363 32.438C161.872 32.5057 162.279 32.5057 162.585 32.5057C161.94 31.8962 161.499 31.2867 161.193 30.8127C160.956 30.4741 160.582 29.8646 160.277 28.9842C160.175 28.7134 160.039 28.3409 159.938 27.7991C159.836 27.2574 159.836 26.8511 159.87 26.2077C159.87 25.6321 159.87 25.2935 159.972 24.8195C160.039 24.3793 160.175 24.0407 160.277 23.7359C160.548 22.9572 160.854 22.3477 160.956 22.1445C161.193 21.7043 161.6 21.061 162.517 20.0452C163.195 19.3003 163.365 19.1987 164.655 17.9797C166.148 16.5576 166.894 15.7111 167.132 15.4402C167.845 14.6276 168.218 14.2213 168.557 13.6795C168.964 13.0362 169.473 12.2235 169.643 11.0384C169.779 10.1242 169.677 9.41314 169.575 8.70208C169.541 8.4312 169.406 7.5847 168.964 6.50118C168.863 6.2303 168.523 5.41765 167.912 4.43571C167.437 3.69079 166.996 3.18289 166.623 2.77657C166.114 2.20095 165.605 1.62533 164.756 0.981988C164.112 0.507947 163.501 0.169347 163.06 -0.0338135C163.297 0.135487 163.501 0.338647 163.704 0.575668Z" fill="url(#paint0_linear_201_5)"/>
<path d="M162.55 3.38599C162.109 4.43565 161.498 5.14671 161.192 5.51917C160.615 6.23023 160.106 6.63655 159.563 7.11059C159.563 7.11059 158.002 8.39728 156.306 10.158C155.22 11.2754 154.269 12.2573 153.319 13.7472C152.708 14.6952 151.826 16.0158 151.351 17.9797C151.147 18.8262 150.537 21.4673 151.623 24.5485C152.301 26.4447 153.319 27.7652 154.066 28.5101C153.964 28.2393 153.862 27.9007 153.727 27.4605C153.625 27.0542 153.353 25.9029 153.455 24.5824C153.659 22.3476 154.812 20.8239 155.152 20.3837C155.763 19.605 156.407 19.1309 157.663 18.149C158.681 17.3702 158.851 17.3702 161.023 15.9142C163.093 14.5598 163.602 14.1196 164.009 13.7133C164.688 13.07 165.299 12.4943 165.774 11.5801C166.384 10.395 166.452 9.3115 166.486 8.49886C166.588 6.26409 165.875 4.57109 165.366 3.35213C164.789 1.99773 164.213 1.21894 163.771 0.744903C163.534 0.474023 163.296 0.237003 163.127 0.101562C163.228 0.981924 163.093 2.16703 162.55 3.38599Z" fill="url(#paint1_linear_201_5)"/>
<path d="M165.164 25.1919C165.164 28.2732 167.675 30.8127 170.797 30.8127C173.885 30.8127 176.43 28.3071 176.43 25.1919C176.43 22.1107 173.919 19.5712 170.797 19.5712C167.709 19.605 165.164 22.1107 165.164 25.1919Z" fill="url(#paint2_linear_201_5)"/>
<defs>
<linearGradient id="paint0_linear_201_5" x1="169.639" y1="16.2343" x2="153.362" y2="16.2343" gradientUnits="userSpaceOnUse">
<stop stop-color="#D97974"/>
<stop offset="1" stop-color="#C43939"/>
</linearGradient>
<linearGradient id="paint1_linear_201_5" x1="151.437" y1="14.3082" x2="166.417" y2="14.3082" gradientUnits="userSpaceOnUse">
<stop stop-color="#D97974"/>
<stop offset="1" stop-color="#C43939"/>
</linearGradient>
<linearGradient id="paint2_linear_201_5" x1="165.151" y1="25.179" x2="176.421" y2="25.179" gradientUnits="userSpaceOnUse">
<stop stop-color="#D97974"/>
<stop offset="1" stop-color="#C43939"/>
</linearGradient>
</defs>
</svg>
