<svg width="50" height="50" fill="none" xmlns="http://www.w3.org/2000/svg"><path d="M16.666 7.542C7.342 7.979.008 15.666.008 25c0 9.334 7.335 17.021 16.66 17.458V47.5a2.508 2.508 0 002.5 2.5H47.5a2.508 2.508 0 002.5-2.5V10a.861.861 0 00-.242-.592L40.592.242A.86.86 0 0040 0H19.166a2.508 2.508 0 00-2.5 2.5v5.042zm17.5 16.902H18.334V2.5c0-.46.373-.833.834-.833H38.89v6.666a3.606 3.606 0 002.777 2.778h6.667V47.5c0 .46-.373.833-.833.833H19.166a.833.833 0 01-.833-.833v-5.042C27.653 42.008 34.983 34.33 35 25c0-.46-.373-.833-.834-.556zm5 7.223a7.5 7.5 0 107.5 7.5 7.512 7.512 0 00-7.5-7.5zm-18.333-8.89H37.5c.46-.277.833-.65.833-1.11-.01-9.66-7.84-17.49-17.5-17.5A.833.833 0 0020 5v16.667c0 .46.373.833.833 1.11zM1.667 25c.01-8.416 6.596-15.356 15-15.808v15.466L5.75 35.575A15.733 15.733 0 011.667 25zm5.258 11.75l10.917-11.194h15.466c-.427 8.682-7.366 15.278-15.782 15.278A15.802 15.802 0 016.925 36.75zM39.166 45A5.833 5.833 0 1145 39.167 5.84 5.84 0 0139.166 45zm7.5-28.889v-1.667H40v1.667h6.666zm0 3.333H40v1.667h6.666v-1.667zm-6.666 5v1.112h6.666v-1.112H40zm.833-21.602v5.491c0 .46.373.834.834.834h5.491l-6.325-6.325zm-19.166 18.27V5.857c8.083.434 14.54 6.891 14.974 15.253H21.668zM37.5 40.487l-1.911-1.91-1.178 1.178 2.5 2.5a.833.833 0 001.178 0l5-5-1.178-1.178-4.411 4.41z" fill="#000"/></svg>