<svg width="50" height="50" fill="none" xmlns="http://www.w3.org/2000/svg"><path d="M46.111 37.5h.96A2.935 2.935 0 0050 34.567V29.88a2.931 2.931 0 00-2.93-2.929h-.959v-6.837a5.706 5.706 0 00-4.435-5.524l-4.445-7.699A4.846 4.846 0 0034.27 4.62a4.847 4.847 0 00-2.663.039l-3.233-3.232a4.883 4.883 0 00-6.897 0L8.45 14.452H5.664A5.669 5.669 0 000 20.115v24.219a5.672 5.672 0 005.664 5.665h12.988a.978.978 0 00.977-.977c0-.54-.437-.977-.977-1.245H5.664c-2.046.268-3.71-1.397-3.442-3.443V20.115c-.269-2.046 1.396-3.71 3.442-3.45H40.43c2.046-.26 3.71 1.404 3.459 3.45v6.55h-6.975c-2.908.286-5.273 2.652-5.273 5.56 0 2.907 2.365 5.273 5.273 4.996h6.975v7.113c.252 2.046-1.413 3.71-3.46 3.443H27.442c-.539.268-.976.705-.976 1.245 0 .539.437.976.976.977H40.43c3.123-.001 5.664-2.542 5.681-5.665v-6.835zm-12.517-5.275c0-1.831 1.49-3.32 3.32-3.337H47.07c.539.016.977.454.977.993v4.687a.993.993 0 01-.977.987H36.914a3.339 3.339 0 01-3.32-3.33zM35.54 7.869l3.8 6.575H18.29l13.255-7.645a2.905 2.905 0 012.22-.293A2.905 2.905 0 0135.54 7.87zm-8.547-5.061l2.766 2.766-15.375 8.878h-3.17L22.857 2.808a2.905 2.905 0 012.068-.857c.78 0 1.515.304 2.067.857zm-3.256 46.904a.984.984 0 00.286-.69.984.984 0 00-.286-.69.983.983 0 00-.69-.287.983.983 0 00-.69.286.984.984 0 00-.287.69c0 .257.105.51.286.69a.984.984 0 00.69.287.983.983 0 00.691-.286zm13.014-16.51a.981.981 0 00.977-.977.98.98 0 00-.977-.977.983.983 0 00-.69.286.982.982 0 00-.287.69c0 .257.105.51.286.69a.984.984 0 00.691.287z" fill="#fff"/></svg>