<svg width="50" height="46" fill="none" xmlns="http://www.w3.org/2000/svg"><path d="M11.539 45h26.923c.53.495.961.062.961-.472s-.43-.966-.962-1.034h-4.98l-1.539-7.939h12.77c2.915.273 5.288-2.112 5.288-5.044V5.378C50 2.444 47.628.06 44.712.554H5.288C2.372.06 0 2.445 0 5.377v25.134c0 2.932 2.372 5.317 5.288 5.044h12.77l-1.539 7.939h-4.98c-.532.068-.962.5-.962 1.034s.43.967.962.472zM1.953 26.11v-2.222h5.74c.53.339.96-.094.96-.628s-.43-.967-.96-.483h-5.47v-17.4c-.3-1.867 1.21-3.384 3.065-3.156h39.424c1.855-.228 3.365 1.29 3.066 3.155V26.11H1.953zm0 1.667h46.094v2.733h.03c0 1.866-1.51 3.384-3.365 3.378H5.288a3.325 3.325 0 01-3.335-3.378v-2.733zm20.123-15.48l2.04 8.886a.958.958 0 001.617.466l1.7-1.709 2.04 2.05a.956.956 0 001.36 0l2.04-2.05a.97.97 0 000-1.367l-2.04-2.05 1.7-1.71a.97.97 0 00-.464-1.625l-8.84-2.05a.959.959 0 00-.895.258.97.97 0 00-.258.9zm7.905 23.257l1.538 7.778H18.481l1.538-7.778h9.962zM25 32.928a1.93 1.93 0 001.923-1.933A1.93 1.93 0 0025 29.06a1.93 1.93 0 00-1.923 1.933A1.93 1.93 0 0025 32.928zM18.72 9.132a.97.97 0 010-1.368.958.958 0 011.36 0l.962.967a.97.97 0 010 1.367.956.956 0 01-1.36 0l-.961-.966zm1.409 3.183c0-.534-.43-.967-.962-.926h-1.36c-.53-.04-.96.392-.96.926s.43.966.96.94h1.36a.926.926 0 00.962-.94zm-1.408 4.55a.97.97 0 010-1.367l.961-.967a.958.958 0 011.36 0 .97.97 0 010 1.367l-.961.967a.956.956 0 01-1.36 0zm6.73-8.134a.97.97 0 000 1.367.956.956 0 001.36 0l.962-.966a.97.97 0 000-1.368.958.958 0 00-1.36 0l-.961.967zm-3.166-.518c0 .534.43.967.962.967a.964.964 0 00.962-.967V6.846a.964.964 0 00-.962-.966.964.964 0 00-.962.966v1.367zM11.465 23.63a.958.958 0 00-.354-1.173.95.95 0 00-.722-.143.937.937 0 00-.612.41.986.986 0 00-.162.537.958.958 0 00.074.37.947.947 0 00.354.433.95.95 0 00.347.145.938.938 0 00.554-.056.936.936 0 00.432-.356.97.97 0 00.088-.167zm15.288-5.74L25.6 19.05l-1.303-5.68 5.649 1.31-1.153 1.16a.97.97 0 000 1.367l2.04 2.05-.68.684-2.04-2.05a.956.956 0 00-1.36 0z" fill="#fff"/></svg>