<svg width="50" height="50" fill="none" xmlns="http://www.w3.org/2000/svg"><path d="M1.265 44.871C.568 44.871 0 45.44 0 46.136v2.51c0 .698.568 1.265 1.265.799h47.47c.697.466 1.265-.101 1.265-.799v-2.51c0-.697-.568-1.265-1.265-1.691H28.333v-15.29c.162-.697-.405-1.265-1.103-1.323h-1.546v-5.548c.297-.363.445-.803.445-1.278v-.02c0-.474-.148-.914-.445-1.277v-4.167c.045-5.914-4.766-10.725-10.68-10.725S4.279 9.628 4.297 15.542v4.167c-.27.363-.418.803-.418 1.278v.02c0 .474.148.914.418 1.277v5.548H2.778c-.698.058-1.266.626-1.216 1.324v4.781c-.05.404.277.73.68.73.404 0 .73-.327.785-.73V28.89h23.64v15.556H3.333v-7.203c-.36-.403-.688-.73-1.09-.73-.404 0-.73.327-.576.73v7.63h-.402zM37.559 20.48a1.16 1.16 0 00-1.042.648c-.645 1.292-2.285 1.985-3.626 2.347.589-1 .839-2.154.942-2.852a1.154 1.154 0 00-.61-1.194 9.44 9.44 0 01-5.126-8.414 9.414 9.414 0 013.668-7.478.73.73 0 10-.895-1.152 10.864 10.864 0 00-4.233 8.63c0 4.029 2.185 7.689 5.717 9.606-.111.623-.426 1.948-1.17 2.712-.327.336-.398.84-.176 1.253a1.072 1.072 0 001.144.552c3.475-.645 4.957-2.064 5.588-3.2 5.942-.095 10.747-4.959 10.747-10.924C48.487 5.001 43.596.1 37.583.09h-.02a10.88 10.88 0 00-3.503.576.73.73 0 10.469 1.382 9.423 9.423 0 013.034-.498h.017c5.21.01 9.448 4.256 9.448 9.465 0 5.22-4.246 9.466-9.469 9.466zM7.91 19.467c-.051 0-.051-.002-.051-.002v-.97c3.681-.013 6.123-1.683 7.145-2.552 1.022.87 3.463 2.54 7.145 2.552l.019.972v2.797c-.019 2.282-1.095 4.317-2.766 5.514h-8.793c-1.67-1.195-2.747-3.225-2.699-5.505v-2.806zm3.633 17.643a2.925 2.925 0 002.922 2.922c1.61 0 2.921-1.31 2.921-2.922 0-1.61-1.31-2.92-2.921-2.92a2.925 2.925 0 00-2.921 2.92zm.098-20.817c-1.411.582-2.948.813-4.47.724a.736.736 0 00-.565.22c-.165.169-.207.422-.207.65v.85h-.271a1.82 1.82 0 00-.366.035v-3.23c-.024-5.109 4.133-9.265 9.242-9.265 5.11 0 9.266 4.156 9.312 9.265v3.23a3.356 3.356 0 00-.436-.034h-.247v-.993c-.024-.414-.385-.753-.797-.728-4.628.271-7.184-2.446-7.293-2.565a.787.787 0 00-.648-.238c-.227.028-.406.22-.562.371-.089.086-.181.17-.276.25a8.991 8.991 0 01-2.416 1.458zm-5.513 5.503a.79.79 0 01-.79-.79v-.02a.79.79 0 01.79-.789h.317v1.599h-.317zm.33 1.46c.204 1.76.938 3.36 2.042 4.576H5.762v-4.611c.103.022.233.034.366.034h.33zm17.858 4.634l-.046-.058h-2.762c1.104-1.216 1.838-2.816 2.041-4.577h.33c.134 0 .264-.012.437-.034v4.669zm.353-6.903v.02a.79.79 0 01-.79.789h-.246v-1.599h.247a.79.79 0 01.79.79zM1.465 48.334V46.11h47.07v2.223H1.465zm10-26.94a.73.73 0 101.46 0v-1.23a.73.73 0 10-1.46 0v1.23zm30.96-13.06c.402-.191.73-.518.73-.921a.754.754 0 00-.73-.746H32.7a.754.754 0 00-.73.746c0 .403.327.73.73.92h9.724zM32.7 10c-.403-.239-.73.088-.73.491s.327.73.73 1.176h9.724c.403-.446.73-.773.73-1.176 0-.403-.327-.73-.73-.49H32.7zM15.437 24.876a.57.57 0 01-.848-.015.73.73 0 00-1.102.957 2.03 2.03 0 003.016.055.73.73 0 00-1.066-.997zm.49 12.234c0 .806-.656 1.462-1.462 1.462a1.463 1.463 0 01-1.462-1.462 1.463 1.463 0 012.924 0zm1.886-14.986a.73.73 0 00.73-.73v-1.23a.73.73 0 00-.73-.73.72.72 0 00-.723.73v1.23a.72.72 0 00.723.73zm20.721-7.68c.404-.145.73-.472.73-.875s-.327-.73-.73-.235H32.7c-.403-.495-.73-.168-.73.235s.327.73.73.876h5.834z" fill="#fff"/></svg>