<svg width="50" height="42" fill="none" xmlns="http://www.w3.org/2000/svg"><path d="M25 0c-.278 0-.553.007-.826.018-5.956.256-10.57 3.19-11.62 3.912H9.375c-.432.001-.781.354-.486.787v7.544c-.295.248-.18.47-.002.614l2.343 1.888a.775.775 0 00.489.173h1.049c.644 1.83 2.382 3.144 4.42 3.144a4.728 4.728 0 004.42-3.081h13.027a4.728 4.728 0 004.42 3.08c2.037 0 3.775-1.313 4.42-3.143h3.398a.79.79 0 00.783-.787v-3.142a.788.788 0 00-.783-.788l.002-.473c0-2.238-1.59-4.13-3.78-4.499a.718.718 0 00-.07-.008L36.3 4.743C35.327 3.728 31.317 0 25 0zm1.563 41.664a.731.731 0 01-.101-.007L9.375 39.414v.678c0 .434-.35.786-.781.462H.78c-.43.324-.78-.028-.78-.462V18.865c0-.434.35-.786.781-.533h7.813c.432-.253.781.1.781.533V20h6.178c.024-.348.049-.35.074-.349a.77.77 0 01.147.016l12.257 2.404a3.9 3.9 0 013.117 2.97l14.25-2.182a.818.818 0 01.032-.006l.013-.002a3.964 3.964 0 01.65-.054c2.155 0 3.907 1.764 3.907 3.93a3.949 3.949 0 01-1.952 3.405.78.78 0 01-.067.035L26.932 41.57a.773.773 0 01-.369.094zM13.26 5.351c.027-.02 1.519-1.106 3.907-2.108l6.738 2.98a.785.785 0 01-.468-.72V4.3l-4.14-1.832a20.134 20.134 0 014.14-.825V4.3l.941.416H25l.012-3.143c4.137.003 7.22 1.832 8.898 3.426H25v.505c0 .417-.323.758-.731 1.162h11.61l.056-.374 6.901.51a.42.42 0 01.076.01 2.973 2.973 0 012.4 2.934v.539a.788.788 0 00.311 1.508h.47v1.57h-2.35c0-2.6-2.103-4.715-4.688-4.715a4.7 4.7 0 00-4.688 4.684H21.875a4.7 4.7 0 00-4.688-4.684c-2.585 0-4.687 2.116-4.687 4.716h-.506l-1.438-1.481v-6.38h2.242a.78.78 0 00.462-.152zm.803 8.014c0-1.734 1.401-3.144 3.124-3.144 1.724 0 3.125 1.41 3.125 3.143a3.134 3.134 0 01-3.125 3.143 3.134 3.134 0 01-3.124-3.143zm28.048.657a3.134 3.134 0 01-3.056 2.486 3.134 3.134 0 01-3.125-3.143c0-1.734 1.401-3.144 3.125-3.144 1.723 0 3.125 1.41 3.125 3.143a3.1 3.1 0 01-.07.658zM1.667 38.888h6.11v-18.89h-6.11v18.89zm25.453-10.6a2.218 2.218 0 00.224.011 2.354 2.354 0 002.343-2.358 2.346 2.346 0 00-1.97-2.33L15.56 21.11H9.444v16.72l16.97 2.236 20.872-11.308.019-.01a2.37 2.37 0 001.133-2.021 2.354 2.354 0 00-2.76-2.322l-14.487 2.22c-.323 1.842-1.925 3.247-3.847 3.247-.111 0-.22-.005-.328-.018a.623.623 0 01-.061-.003l-.027-.002-9.8-.766a.786.786 0 01.12-1.568l9.8.766a.577.577 0 01.072.007zm-9.933-12.566a2.353 2.353 0 002.344-2.357c0-1.3-1.051-2.358-2.343-2.358a2.353 2.353 0 00-2.344 2.357c0 1.3 1.051 2.358 2.344 2.358zm21.868-4.715a2.353 2.353 0 00-2.344 2.357c0 1.3 1.052 2.358 2.344 2.358a2.353 2.353 0 002.343-2.357c0-1.3-1.051-2.358-2.343-2.358zM25.012 1.573c-.004 0-.008 0 0 0zm-.745 4.715zM3.926 37.733a.78.78 0 01.776-.786.79.79 0 01.79.786.784.784 0 11-1.566 0zM24.218 6.29zm-7.03 6.29c.43 0 .78.351.78.784 0 .434-.35.786-.78.786a.784.784 0 01-.782-.786c0-.433.35-.785.782-.785zm21.867 1.57a.784.784 0 01-.782-.786c0-.433.35-.785.782-.785.43 0 .78.352.78.785 0 .434-.35.786-.78.786z" fill="#fff"/></svg>