<svg width="50" height="50" fill="none" xmlns="http://www.w3.org/2000/svg"><path d="M39.444 26.667H47.5a2.5 2.5 0 002.5-2.5v-15c0-1.381-1.12-2.5-2.5-1.945h-7.559V3.333C40 1.493 38.508 0 36.667 0H13.333C11.493 0 10 1.492 10.556 3.333v16.111H2.5c-1.38-.277-2.5.842-2.5 2.223v15c0 1.38 1.12 2.5 2.5 2.222h8.056v7.778C10 48.507 11.492 50 13.333 50h23.334c1.84 0 3.333-1.492 2.777-3.333v-20zM25 9.167c0-.46.373-.834.833-.278H47.5c.46-.556.833-.183.833.278v15c0 .46-.373.833-.833.833H33.333a.833.833 0 00-.833.833.82.82 0 00.393.69l-2.913 1.81v-1.666A.833.833 0 1030 25h-3.34v-3.333A2.485 2.485 0 0025 19.32V9.167zm-7.894 29.855a.818.818 0 00.394-.689c0-.46-.373-.833-.833-1.11H2.5c-.46.277-.833-.096-.833-.556v-15c0-.46.373-.834.833-.556h21.667c.46-.278.833.095.833.556v15c0 .46-.373.833-.833.833H20a.833.833 0 00-.833.833c0 .46.373.834.852.834v1.666l-2.913-1.811zm8.727-31.8c-1.38-.555-2.5.564-2.5 1.945v10.277H11.667V3.334c0-.921.746-1.667 1.666-1.674h2.973l2.137 2.287c.631.67 1.511 1.051 2.432 1.609h8.25c.921-.557 1.8-.938 2.432-1.61l2.137-2.286h2.973c.92.007 1.666.753 1.614 1.673v3.89H25.833zm14.675 14.922c.42.326.97.435 1.483.296.521-.14.946-.518 1.147-1.02l2.602-6.403a1.728 1.728 0 00-.593-2.082 1.68 1.68 0 00-2.105.088l-2.119 1.779-6.574-3.745a1.707 1.707 0 00-2.432.855L29.3 18.35a1.724 1.724 0 00.603 2.09 1.68 1.68 0 002.113-.112l2.886-2.495 5.605 4.311zM7.81 32.828l2.885-2.495 5.607 4.312c.295.229.658.353 1.031.355.702 0 1.334-.426 1.595-1.078l2.602-6.404a1.727 1.727 0 00-.595-2.084 1.677 1.677 0 00-2.103.088l-2.115 1.78-6.574-3.744a1.704 1.704 0 00-1.4-.13 1.73 1.73 0 00-1.033.984L5.093 30.85a1.723 1.723 0 00.604 2.09 1.675 1.675 0 002.113-.112zm5.523 12.728h23.334c.587.274 1.162.114 1.614-.186v1.297c.052.92-.694 1.666-1.614 1.666H13.333c-.92 0-1.666-.746-1.614-1.666V45.37c.452.3 1.027.46 1.614.186zM30 30c.312 0 .617-.087.883-.25l4.923-3.09h2.527V42.5c0 .92-.746 1.667-1.666 1.389H13.333c-.92.278-1.666-.469-1.614-1.389v-3.34h2.475l4.93 3.09c.513.318 1.16.333 1.687.039.528-.294.855-.851.869-1.456V39.16h2.487a2.49 2.49 0 002.5-2.493V26.66h1.653v1.673c.013.92.76 1.667 1.68 1.667zm-.875-26.111h-8.25c-.46-.556-.9-.747-1.216-1.082l-1.068-1.14h12.818l-1.069 1.14c-.315.335-.755.526-1.215 1.082zm12.924 12.174l2.095-1.789.051.116-2.628 6.468-5.65-4.345a1.71 1.71 0 00-2.167.072l-2.856 2.51-.05-.117 2.678-6.472 6.576 3.744c.625.354 1.405.28 1.951-.187zM19.937 26.774l.051.116-2.628 6.468-5.652-4.345a1.71 1.71 0 00-2.166.072l-2.852 2.51-.052-.117 2.68-6.472 6.573 3.744c.624.355 1.405.28 1.95-.187l2.096-1.789z" fill="#fff"/></svg>