<svg width="31" height="31" fill="none" xmlns="http://www.w3.org/2000/svg"><g clip-path="url(#clip0)"><path d="M30.47 10.512L23.473 3.78a1.722 1.722 0 00-1.234-.48 1.71 1.71 0 00-1.21.529l-2.313 2.41a.812.812 0 00.025 1.145l.189.181-.95.758a4.045 4.045 0 00-.08-.003c-1.483-.046-2.584.2-3.272.731l-.109.084-2.608-1.284.346-.333a.804.804 0 00.25-.569.805.805 0 00-.225-.58L9.97 3.963a1.713 1.713 0 00-1.21-.53 1.708 1.708 0 00-1.234.481L.53 10.643a1.733 1.733 0 00-.05 2.446l2.312 2.41a.813.813 0 001.146.023l.275-.265c.194 1.234.527 2.48 1.312 3.358l-.097.106c-.83.9-.572 2.103.093 2.776.366.372.81.566 1.26.58-.06.575.203 1.15.626 1.552.371.351.867.577 1.372.577.125 0 .251-.014.376-.044.071.408.284.797.574 1.087.348.349.837.592 1.359.592.053 0 .107-.003.16-.008.008.1.023.202.049.305.177.72.76 1.325 1.45 1.506.116.03.265.056.437.056.401 0 .928-.14 1.447-.694l.508-.541.745.572c.486.374.97.527 1.403.527.544 0 1.01-.241 1.31-.587.284-.328.453-.794.39-1.292.572.029 1.111-.191 1.46-.559.257-.272.426-.642.423-1.048.592.063 1.11-.19 1.43-.57a1.783 1.783 0 00.323-1.706 2.147 2.147 0 001.368-.984c.359-.584.491-1.455-.058-2.315.822-.454 1.9-1.358 3.09-3.15l.04.037a.81.81 0 001.145-.024l2.312-2.41a1.733 1.733 0 00-.05-2.444zM6.172 20.855c-.365-.37-.543-1.002-.071-1.514l.794-.86c.325-.354.681-.498 1.03-.418.364.083.69.403.809.796a.866.866 0 01-.192.871v.002l-1.115 1.183c-.469.418-.956.243-1.255-.06zm3.179 2.169c-.47.492-1.047.194-1.314-.06-.07-.065-.663-.659-.135-1.22l2.019-2.142c.25-.266.508-.343.722-.343.08 0 .153.01.218.026.36.086.67.372.77.713.094.318-.004.64-.283.933l-.426.446-.064.068-1.507 1.579zm2.378 1.601l-.012.01-.022.022c-.628.576-1.208.057-1.318-.054-.26-.261-.516-.787-.153-1.167l.011-.014 1.233-1.291.02-.021.014-.014.08-.084c.306-.303.64-.423.975-.346.367.086.684.398.787.778.064.235.068.583-.275.909l-.15.143-.011.01a.445.445 0 00-.028.027l-1.15 1.092zm2.887 1.06l-.652.695c-.319.34-.65.466-.985.38-.364-.096-.698-.45-.794-.84-.042-.171-.052-.41.132-.592l.025-.023 1.187-1.127c.357-.308.86-.158 1.153.143.146.149.57.687-.066 1.365zm8.595-5.347c-.232.378-.717.68-1.224.57l-1.745-1.625a.458.458 0 00-.624.67l1.83 1.703.005.005.002.002c.451.402.414.936.145 1.256-.306.363-.785.344-1.283-.048l-1.815-1.69a.458.458 0 10-.623.67l1.815 1.691c.316.343.347.682.088.955-.307.324-.921.429-1.452-.017l-.02-.015-.834-.775a.457.457 0 10-.623.67l.902.839c.454.47.368.927.15 1.18-.274.316-.833.418-1.464-.068l-.752-.578c.377-.774.138-1.55-.352-2.05a1.989 1.989 0 00-1.096-.573c.072-.29.07-.598-.014-.906a2.018 2.018 0 00-1.463-1.429 1.776 1.776 0 00-.26-.04c.098-.325.103-.665.005-.996a1.994 1.994 0 00-1.436-1.344 1.813 1.813 0 00-1.446.264l-.018-.066c-.214-.707-.796-1.265-1.48-1.422-.677-.155-1.354.09-1.906.69l-.074.079c-.644-.767-.929-1.953-1.122-3.466l1.93-1.856a.458.458 0 00-.635-.66l-2.07 1.993a.462.462 0 00-.046.043l-.826.795-2.239-2.333a.817.817 0 01.023-1.152l6.997-6.731a.808.808 0 01.58-.226.81.81 0 01.57.249l2.239 2.333-3.78 3.636a.457.457 0 10.635.66l2.805-2.699 2.503 1.233-1.768 1.368c-2.121 1.641-1.482 3.118-1.236 3.531.42.706 1.202 1.113 1.998 1.113.31 0 .624-.062.919-.192a.476.476 0 00.051-.027l1.857-1.118 2.526-.577 4.83 4.799c.75.77.475 1.433.321 1.682zm6.648-8.015l-2.24 2.334-.342-.33a.462.462 0 00-.042-.04l-3.154-3.02a.458.458 0 10-.633.66l2.903 2.781c-1.276 1.96-2.369 2.76-3.034 3.083l-4.79-4.76-.004-.004a.431.431 0 00-.022-.02l-.013-.01-.02-.016-.017-.011c-.006-.005-.013-.008-.02-.012l-.019-.01-.02-.01-.02-.009-.026-.009-.015-.005a.431.431 0 00-.032-.007l-.01-.003a.4.4 0 00-.035-.005h-.009a.42.42 0 00-.032-.002h-.039l-.02.002c-.007 0-.014.002-.02.003l-.026.005h-.006l-2.843.65a.46.46 0 00-.134.054l-1.893 1.14c-.612.254-1.401 0-1.737-.562-.397-.668-.02-1.542 1.01-2.339l2.35-1.818.012-.009.32-.248c.502-.387 1.455-.58 2.684-.54.04 0 .072.003.098.004.267.016.374-.033.58-.198l1.046-.836 2.348 2.259a.458.458 0 00.635-.66L19.45 6.798l2.239-2.334a.804.804 0 01.586-.248.81.81 0 01.563.225l6.997 6.731a.816.816 0 01.023 1.152z" fill="#000"/></g><defs><clipPath id="clip0"><path fill="#fff" d="M0 0h31v31H0z"/></clipPath></defs></svg>