<svg width="29" height="29" fill="none" xmlns="http://www.w3.org/2000/svg"><path d="M14.5.906A13.597 13.597 0 002.822 21.462a.453.453 0 00-.027.54l.513.77-2.182 1.308a.453.453 0 00.145.833l1.88.376-.126 2.327a.453.453 0 00.686.413l3.461-2.079a13.601 13.601 0 0014.656 0l3.461 2.08a.453.453 0 00.686-.414l-.126-2.327 1.88-.376a.453.453 0 00.145-.833l-2.182-1.309.513-.77a.453.453 0 00-.027-.54A13.595 13.595 0 0014.5.907zM5.119 21.318a21.68 21.68 0 0118.762 0l1.28.615-1.307 1.961a22.583 22.583 0 00-18.708 0l-1.308-1.961 1.28-.615zm9.381-3.04c-2.56.003-5.1.439-7.515 1.288A8.99 8.99 0 015.438 14.5c0-4.997 4.065-9.063 9.062-9.063 4.997 0 9.063 4.066 9.063 9.063a8.994 8.994 0 01-1.548 5.066 22.731 22.731 0 00-7.515-1.289zm3.136 4.725a9.07 9.07 0 01-6.272 0 21.385 21.385 0 016.272 0zm-13.66 3.81l.101-1.867a.453.453 0 00-.363-.469l-1.116-.223 1.213-.728.796 1.194a.452.452 0 00.572.158c.303-.145.61-.282.92-.412l.51.765-2.632 1.582zm3.686-1.624a.458.458 0 00-.035-.065l-.665-.997a21.868 21.868 0 012.837-.835 9.975 9.975 0 009.402 0 21.85 21.85 0 012.837.834l-.665.997a.45.45 0 00-.035.065 12.695 12.695 0 01-13.675 0zm18.74-.935l-1.116.223a.452.452 0 00-.363.47l.1 1.865-2.632-1.58.51-.765c.31.13.616.267.92.41a.454.454 0 00.572-.157l.796-1.194 1.213.728zm-1.023-3.222l-1.105-.53a22.14 22.14 0 00-1.389-.61A9.896 9.896 0 0024.47 14.5c0-5.497-4.472-9.969-9.969-9.969-5.497 0-9.969 4.472-9.969 9.969a9.89 9.89 0 001.583 5.393c-.47.187-.932.39-1.387.608l-1.106.53a12.687 12.687 0 1121.758 0z" fill="#000"/><path d="M18.805 10.875h-2.492a.454.454 0 01-.454-.453v-1.36A1.361 1.361 0 0014.5 7.704h-.906a.453.453 0 00-.453.453v.999a2.587 2.587 0 01-.764 1.842l-.33.331H9.516a.453.453 0 00-.454.453v4.985a.453.453 0 00.454.453h7.93a1.133 1.133 0 001.058-1.536 1.131 1.131 0 00.454-1.359 1.133 1.133 0 00.453-1.36 1.133 1.133 0 00-.606-2.089zm-8.836 1.36h1.812v4.078H9.97v-4.079zm8.836 0h-.453a.453.453 0 100 .906.227.227 0 010 .453h-.454a.453.453 0 000 .906.226.226 0 110 .453h-.453a.453.453 0 000 .906.226.226 0 110 .454h-4.758v-4.344l.331-.33a3.49 3.49 0 001.029-2.484v-.546h.453a.454.454 0 01.453.454v1.359a1.36 1.36 0 001.36 1.36h2.492a.227.227 0 010 .452zm-5.245 8.167l.42.304-.16.493a.17.17 0 00.261.19l.42-.304.418.304a.17.17 0 00.262-.19l-.16-.493.419-.304a.17.17 0 00-.1-.308h-.518l-.16-.492a.17.17 0 00-.323 0l-.16.492h-.519a.17.17 0 00-.1.308zm-2.615.328l.42.304-.16.493a.17.17 0 00.26.19l.42-.305.42.305a.17.17 0 00.26-.19l-.16-.493.42-.304a.17.17 0 000-.275.17.17 0 00-.1-.033h-.518l-.16-.493a.17.17 0 00-.262-.085.17.17 0 00-.062.085l-.16.493h-.518a.17.17 0 00-.1.308zm5.23 0l.42.304-.16.493a.17.17 0 00.061.19.17.17 0 00.2 0l.419-.305.42.305a.17.17 0 00.26-.19l-.16-.493.42-.304a.17.17 0 00-.1-.308h-.518l-.16-.493a.17.17 0 00-.324 0l-.16.493h-.518a.17.17 0 00-.1.308z" fill="#000"/></svg>