<svg width="25" height="25" fill="none" xmlns="http://www.w3.org/2000/svg"><g clip-path="url(#clip0)" fill="#000"><path d="M24.966 24.267l-3.261-8.696a.543.543 0 00-.509-.353h-4.983l1.876-3.308c.305-.538.743-1.443.976-2.017.02-.05.5-1.253.5-2.582C19.566 3.28 16.397 0 12.5 0 8.605 0 5.435 3.28 5.435 7.31c0 1.33.485 2.534.506 2.584.233.573.67 1.477.976 2.015l1.873 3.308H3.805a.545.545 0 00-.51.353l-3.26 8.696A.544.544 0 00.544 25h23.913a.544.544 0 00.509-.734zM7.862 11.374c-.28-.495-.7-1.361-.915-1.889-.005-.01-.425-1.054-.425-2.174 0-3.431 2.682-6.223 5.978-6.223 3.297 0 5.979 2.792 5.979 6.223 0 1.112-.418 2.164-.421 2.174a19.61 19.61 0 01-.915 1.889l-2.33 4.109-.008.01-2.242 3.957a.486.486 0 01-.063.09.517.517 0 01-.062-.09l-2.242-3.957h-.001l-2.333-4.119zm-6.534 12.54l2.853-7.609h5.225l2.085 3.681.002.002.534.943c.193.34.753.34.946 0l.536-.945 2.088-3.68h5.222l2.854 7.608H1.328z"/><path d="M16.305 7.065A3.809 3.809 0 0012.5 3.261a3.809 3.809 0 00-3.804 3.804A3.809 3.809 0 0012.5 10.87a3.809 3.809 0 003.805-3.805zm-6.522 0A2.72 2.72 0 0112.5 4.348a2.72 2.72 0 012.717 2.717A2.72 2.72 0 0112.5 9.783a2.72 2.72 0 01-2.717-2.718z"/></g><defs><clipPath id="clip0"><path fill="#fff" d="M0 0h25v25H0z"/></clipPath></defs></svg>