<svg width="24" height="24" fill="none" xmlns="http://www.w3.org/2000/svg"><path d="M12.852 3.703h-8.9a.504.504 0 00-.503.503v5.883c0 .277.226.503.503.503h8.9a.504.504 0 00.503-.503V4.206a.504.504 0 00-.503-.503zm-.503 5.883H4.455V4.71h7.894v4.877z" fill="#2F89CE"/><path d="M23.492 21.755h-8.427V13.71h.82c.743 0 1.347.608 1.342 1.352v1.403a2.663 2.663 0 002.665 2.665 2.663 2.663 0 002.665-2.665V8.51c0-.824-.307-1.619-.87-2.227l-3.932-4.48-.754.663 3.047 3.475a2.021 2.021 0 00-1.66 2.328 2.02 2.02 0 003.163 1.317v6.88c0 .914-.744 1.659-1.66 1.659a1.66 1.66 0 01-1.658-1.66v-1.393a2.357 2.357 0 00-2.344-2.368h-.825V3.336c0-1.146-.925-2.096-2.07-2.096H3.65c-1.147 0-2.062.955-2.062 2.096v18.419H.503a.504.504 0 00-.503.503c0 .276.226.503.503.503h22.994a.504.504 0 00.503-.503.505.505 0 00-.508-.503zM20.385 8.948a1.016 1.016 0 110-2.032 1.016 1.016 0 010 2.032zm-6.326 12.807H2.595V3.336c0-.593.462-1.09 1.056-1.09h9.342c.593 0 1.066.502 1.066 1.09v18.419z" fill="#2F89CE"/></svg>