<svg width="72" height="72" fill="none" xmlns="http://www.w3.org/2000/svg"><g clip-path="url(#clip0)"><path d="M57.923 63.731c-5.99 5.991-15.004 7.482-23.357 5.696-8.143-1.772-13.782-6.666-19.35-12.235C9.646 51.623 4.767 46.027 2.98 37.856c-1.786-8.17-.351-17.31 5.71-23.372a6.651 6.651 0 019.421 0l6.343 6.343a6.651 6.651 0 010 9.421l-4.402 4.402a2.795 2.795 0 00-.323 3.572 69.353 69.353 0 006.637 7.86 69.077 69.077 0 007.847 6.624 2.777 2.777 0 003.572-.323l4.401-4.402a6.652 6.652 0 019.422 0l6.343 6.343a6.652 6.652 0 011.954 4.71 6.792 6.792 0 01-1.983 4.697z" fill="url(#paint0_linear)"/><path d="M14.498 14.484l6.343 6.343a6.651 6.651 0 010 9.421l-4.402 4.402a2.795 2.795 0 00-.323 3.572 69.355 69.355 0 006.637 7.86 69.088 69.088 0 007.847 6.624 2.749 2.749 0 003.375-.169 69.792 69.792 0 01-7.636-6.468 69.088 69.088 0 01-6.623-7.847 2.778 2.778 0 01.323-3.572l4.402-4.402a6.651 6.651 0 000-9.421l-6.342-6.343a6.472 6.472 0 00-6.511-1.673 6.88 6.88 0 012.91 1.673zM57.923 54.31l-6.342-6.343a6.626 6.626 0 00-6.51-1.673 6.597 6.597 0 012.91 1.673l6.342 6.343a6.652 6.652 0 010 9.421 22.823 22.823 0 01-15.046 6.342c6.89.422 13.78-1.476 18.646-6.342a6.652 6.652 0 000-9.422z" fill="#CAD9FC"/><path d="M71.775 23.035c-1.055 9.9-9.084 17.606-19.013 18.267a20.252 20.252 0 01-9.956-1.899 24.29 24.29 0 01-9.576 2.728 1.206 1.206 0 01-1.181-.647 1.22 1.22 0 01.154-1.336 26.022 26.022 0 003.881-5.807 20.306 20.306 0 01-5.006-14.035A20.434 20.434 0 0142.286 2.8a20.362 20.362 0 0120.728 1.406c6.131 4.219 9.506 11.418 8.761 18.83z" fill="url(#paint1_linear)"/><path d="M49.683.619c10.533.928 18.619 9.745 18.604 20.32-.014 10.575-8.1 19.392-18.632 20.292a21.04 21.04 0 003.122.057 20.37 20.37 0 0017.198-11.405 20.412 20.412 0 00-1.56-20.588A20.39 20.39 0 0049.682.62z" fill="#7FACFA"/><path d="M64.111 16.411l-2.405-4.162a1.18 1.18 0 00-.73-.563 1.22 1.22 0 00-.915.113l-4.992 2.882V8.916c0-.661-.535-1.196-1.196-1.196h-4.795c-.66 0-1.195.535-1.195 1.196v5.765l-4.992-2.868a1.2 1.2 0 00-1.646.436l-2.404 4.162a1.224 1.224 0 00-.127.914c.084.31.281.577.563.731l4.992 2.883-4.992 2.883a1.2 1.2 0 00-.436 1.645l2.404 4.163a1.2 1.2 0 001.646.436l4.992-2.869v5.766c0 .66.534 1.195 1.195 1.195h4.795c.661 0 1.196-.534 1.196-1.195v-5.766l4.992 2.883a1.2 1.2 0 001.645-.436l2.405-4.163c.155-.28.21-.604.127-.914a1.18 1.18 0 00-.563-.73l-4.992-2.884 4.992-2.883a1.18 1.18 0 00.563-.73c.07-.324.028-.648-.127-.929z" fill="#E8EDFC"/><path d="M51.483 8.93v2.306c0 .717.38 1.378.998 1.73a2.022 2.022 0 001.997 0c.366-.211.605-.605.605-1.04V8.93c0-.661-.535-1.196-1.195-1.196h-3.6c.646 0 1.195.535 1.195 1.196zm12.192 14.878l-4.992-2.883 4.992-2.883a1.2 1.2 0 00.436-1.645l-2.405-4.162a1.18 1.18 0 00-.731-.563 1.22 1.22 0 00-.914.112l-1.66.957 2.096 3.642c.155.281.21.605.127.914a1.18 1.18 0 01-.563.731l-3.192 1.842a1.206 1.206 0 00-.605 1.041c0 .422.225.83.605 1.04l3.192 1.843a1.2 1.2 0 01.436 1.645l-2.095 3.642 1.659.957a1.2 1.2 0 001.645-.436l2.405-4.163c.155-.281.21-.605.126-.914a1.289 1.289 0 00-.562-.717zm-9.197 5.091a2.022 2.022 0 00-1.997 0 1.985 1.985 0 00-.998 1.73v2.305c0 .661-.534 1.196-1.195 1.196h3.6c.66 0 1.195-.535 1.195-1.196V29.25l-.605-.351z" fill="#CAD9FC"/><path d="M15.216 57.192c7.186 7.186 13.725 12.235 24.06 12.881 1.196.07 2.391.07 3.586 0-10.321-.646-16.86-5.68-24.046-12.88-5.57-5.57-10.449-11.166-12.235-19.337-1.786-8.17-.351-17.31 5.71-23.372a6.642 6.642 0 012.939-1.687 6.748 6.748 0 00-6.54 1.688c-6.06 6.06-7.467 15.187-5.695 23.371 1.772 8.185 6.652 13.767 12.22 19.336z" fill="#fff"/><path d="M7.861 50.78l1.912-1.449a70.987 70.987 0 006.3 7.017l-1.701 1.702a70.875 70.875 0 01-6.511-7.27z" fill="#fff"/><path d="M11.911 54.942c-.661 0-1.21-.534-1.21-1.195s.535-1.21 1.196-1.21h.014c.66 0 1.195.535 1.195 1.196 0 .66-.534 1.21-1.195 1.21z" fill="url(#paint2_linear)"/><path d="M1.814 38.11a32.074 32.074 0 006.033 12.684c.197.253.478.436.801.478.324.042.647-.042.9-.253a1.232 1.232 0 00.225-1.673 29.731 29.731 0 01-5.61-11.729c-1.885-8.69.126-17.015 5.371-22.26a5.449 5.449 0 017.72 0l6.343 6.342a5.439 5.439 0 011.603 3.853c0 1.448-.576 2.84-1.603 3.853l-4.402 4.401a3.99 3.99 0 00-.436 5.105 70.8 70.8 0 006.764 8.016 68.83 68.83 0 007.988 6.736c1.589 1.11 3.755.928 5.119-.436l4.401-4.402a5.475 5.475 0 017.72 0l6.343 6.342a5.44 5.44 0 011.603 3.853 5.419 5.419 0 01-1.603 3.854c-5.232 5.23-13.556 7.242-22.261 5.371-8.072-1.757-13.697-6.834-18.76-11.91a1.21 1.21 0 00-1.687.014 1.21 1.21 0 00-.014 1.687c5.316 5.316 11.236 10.674 19.94 12.558 2.236.478 4.529.731 6.807.731a24.63 24.63 0 0017.634-6.75 7.856 7.856 0 002.306-5.555c0-2.08-.83-4.092-2.306-5.554l-6.328-6.342a7.86 7.86 0 00-11.11 0l-4.4 4.401a1.58 1.58 0 01-2.026.197 66.627 66.627 0 01-7.692-6.497 68.365 68.365 0 01-6.525-7.72 1.596 1.596 0 01.197-2.011l4.401-4.402a7.856 7.856 0 002.307-5.554c0-2.082-.83-4.079-2.307-5.555l-6.328-6.342a7.86 7.86 0 00-11.11 0c-5.82 5.822-8.07 14.976-6.017 24.468z" fill="url(#paint3_linear)"/><path d="M12.924 17.03a1.205 1.205 0 00-.844-.352 1.18 1.18 0 00-.844.352c-4.669 4.668-6.427 12.164-4.725 20.053.127.548.605.942 1.167.942.085 0 .169-.014.253-.028.31-.07.577-.253.76-.52.168-.267.225-.591.168-.9-1.532-7.088-.014-13.753 4.079-17.846a1.201 1.201 0 00-.014-1.701z" fill="url(#paint4_linear)"/><path d="M46.673 29.25v3.684a2.404 2.404 0 002.405 2.405h4.795a2.404 2.404 0 002.405-2.404V29.25l3.192 1.842a2.403 2.403 0 003.277-.871l2.405-4.163c.323-.549.407-1.21.239-1.828a2.399 2.399 0 00-1.125-1.463l-3.193-1.842 3.193-1.842a2.45 2.45 0 001.125-1.462 2.38 2.38 0 00-.24-1.829l-2.404-4.162a2.382 2.382 0 00-3.277-.872L56.278 12.6V8.93a2.404 2.404 0 00-2.404-2.405h-4.796a2.404 2.404 0 00-2.405 2.405v3.684l-3.192-1.842a2.403 2.403 0 00-3.276.872L37.8 15.806a2.372 2.372 0 00-.239 1.829 2.4 2.4 0 001.125 1.462l3.192 1.842-3.192 1.842a2.449 2.449 0 00-1.125 1.463 2.38 2.38 0 00.239 1.828l2.405 4.163a2.382 2.382 0 003.276.871l3.192-1.856zm-6.792-4.401l4.992-2.883c.366-.211.605-.605.605-1.04 0-.423-.225-.83-.605-1.041l-4.992-2.87 2.405-4.162 4.992 2.883c.366.211.83.211 1.21 0 .38-.21.604-.619.59-1.04V8.93h4.795v5.765c0 .422.226.83.605 1.041.38.211.83.211 1.195 0l4.993-2.883 2.404 4.163 1.041-.605-6.033 3.473a1.205 1.205 0 00-.605 1.041c0 .436.226.83.605 1.04l4.992 2.884-2.404 4.162-4.992-2.883a1.234 1.234 0 00-1.21 0 1.18 1.18 0 00-.59 1.04v5.767h-4.796v-5.766c0-.422-.225-.83-.605-1.04a1.208 1.208 0 00-1.195 0l-4.992 2.882-2.405-4.162z" fill="url(#paint5_linear)"/><path d="M30.994 42.047a2.375 2.375 0 002.11 1.28c.084 0 .154 0 .238-.014a26.413 26.413 0 009.52-2.574c10.013 4.36 21.713.549 27.254-8.873 5.54-9.422 3.15-21.502-5.541-28.125C55.885-2.883 43.608-1.97 36 5.878c-7.608 7.847-8.184 20.124-1.322 28.632a27.07 27.07 0 01-3.375 4.865 2.364 2.364 0 00-.31 2.672zm6.187-7.214A1.21 1.21 0 0037 33.539a19.225 19.225 0 01-3.418-19.56A19.184 19.184 0 0149.303 1.855a22.047 22.047 0 012.138-.126 19.203 19.203 0 0113.205 33.188c-5.738 5.4-14.204 6.735-21.334 3.388a1.212 1.212 0 00-1.139.057 22.934 22.934 0 01-9.056 2.545 26.67 26.67 0 004.064-6.075z" fill="url(#paint6_linear)"/></g><defs><linearGradient id="paint0_linear" x1="2.266" y1="41.332" x2="59.906" y2="41.332" gradientUnits="userSpaceOnUse"><stop offset="0" stop-color="#96D1F3"/><stop offset="1" stop-color="#CCFFF4"/></linearGradient><linearGradient id="paint1_linear" x1="31.067" y1="21.374" x2="71.877" y2="21.374" gradientUnits="userSpaceOnUse"><stop offset="0" stop-color="#A8ABFF"/><stop offset="1" stop-color="#FAC8FF"/></linearGradient><linearGradient id="paint2_linear" x1="10.708" y1="53.74" x2="13.113" y2="53.74" gradientUnits="userSpaceOnUse"><stop offset="0" stop-color="#174FA3"/><stop offset="1" stop-color="#B044AF"/></linearGradient><linearGradient id="paint3_linear" x1="1.069" y1="41.338" x2="61.059" y2="41.338" gradientUnits="userSpaceOnUse"><stop offset="0" stop-color="#174FA3"/><stop offset="1" stop-color="#B044AF"/></linearGradient><linearGradient id="paint4_linear" x1="5.867" y1="27.352" x2="13.276" y2="27.352" gradientUnits="userSpaceOnUse"><stop offset="0" stop-color="#174FA3"/><stop offset="1" stop-color="#B044AF"/></linearGradient><linearGradient id="paint5_linear" x1="37.476" y1="20.932" x2="65.476" y2="20.932" gradientUnits="userSpaceOnUse"><stop offset="0" stop-color="#174FA3"/><stop offset="1" stop-color="#B044AF"/></linearGradient><linearGradient id="paint6_linear" x1="29.889" y1="21.325" x2="73.092" y2="21.325" gradientUnits="userSpaceOnUse"><stop offset="0" stop-color="#174FA3"/><stop offset="1" stop-color="#B044AF"/></linearGradient><clipPath id="clip0"><path fill="#fff" d="M0 0h72v72H0z"/></clipPath></defs></svg>