<svg width="82" height="72" fill="none" xmlns="http://www.w3.org/2000/svg"><g clip-path="url(#clip0)"><path d="M1.193 1.213h59.873v60.064H1.193V1.213z" fill="url(#paint0_linear)"/><path d="M22.747 1.277v14.728l2.8 1.915 2.799-1.915 2.8 1.915 2.799-1.915 2.8 1.915 2.8-1.915V1.277H22.746z" fill="url(#paint1_linear)"/><path d="M8.383 34.835h11.962v7.213H8.383v-7.213z" fill="#E5ECF5"/><path d="M11.978 38.442v-3.623H8.383v7.213h11.962v-3.59h-8.367z" fill="#CAD8EB"/><path d="M4.788 4.803H7.19v2.41H4.788v-2.41zm0 4.803H7.19v2.41H4.788v-2.41zm21.585-4.803h2.402v2.41h-2.402v-2.41z" fill="#fff"/><path d="M71.835 41.425l-2.402-1.005a15.51 15.51 0 00-4.74-.734c-20.504.527-20.504 30.686 0 31.197 16.272-.016 21.394-22.117 7.142-29.457z" fill="url(#paint2_linear)"/><path d="M57.169 49.26l-1.877-1.5a11.65 11.65 0 011.877-1.882l1.495 1.883a9.51 9.51 0 00-1.495 1.5zm3.308-2.648l-1.065-2.154c.78-.383 1.622-.687 2.497-.894l.557 2.346c-.7.16-1.368.399-1.989.702z" fill="#fff"/><path d="M2.402 19.213H0v43.244l35.902.016v-2.41l-33.516-.015.016-40.835z" fill="url(#paint3_linear)"/><path d="M38.303 60.08h2.402v2.41h-2.401v-2.41z" fill="url(#paint4_linear)"/><path d="M7.19 43.245h14.348v-9.623H7.19v9.623zm2.386-7.213h9.56v4.803h-9.56v-4.803z" fill="url(#paint5_linear)"/><path d="M7.174 45.654h7.19v2.41h-7.19v-2.41z" fill="url(#paint6_linear)"/><path d="M7.174 50.458h14.364v2.41H7.174v-2.41z" fill="url(#paint7_linear)"/><path d="M72.376 40.372l-1.098 2.139c13.235 6.75 8.272 27.27-6.585 27.191-7.922 0-14.348-6.463-14.348-14.393-.16-9.575 9.703-16.772 18.738-13.724l.732-2.282a16.765 16.765 0 00-7.54-.622V.03L0 0v16.82h2.402V2.41l19.152.016v14.17l3.992 2.744 2.8-1.915 2.8 1.915 2.799-1.915 2.8 1.915 3.992-2.744V2.426l19.152.015v36.782c-8.494 2.378-13.982 12.16-11.23 20.873h-5.552v2.41h6.474c7.524 15.94 31.798 10.69 31.877-7.197-.015-6.32-3.483-12.048-9.082-14.937zM38.319 15.32l-1.59 1.101-2.8-1.915-2.8 1.915-2.8-1.915-2.799 1.915-1.59-1.1V2.41h14.363v12.91h.016z" fill="url(#paint8_linear)"/><path d="M75.128 50.138l-1.686-1.691-11.135 11.17-4.375-4.404-1.686 1.691L62.323 63l12.805-12.862z" fill="url(#paint9_linear)"/></g><defs><linearGradient id="paint0_linear" x1="1.196" y1="31.248" x2="61.062" y2="31.248" gradientUnits="userSpaceOnUse"><stop offset="0" stop-color="#96D1F3"/><stop offset="1" stop-color="#CCFFF4"/></linearGradient><linearGradient id="paint1_linear" x1="22.747" y1="9.605" x2="39.511" y2="9.605" gradientUnits="userSpaceOnUse"><stop offset="0" stop-color="#A8ABFF"/><stop offset="1" stop-color="#FAC8FF"/></linearGradient><linearGradient id="paint2_linear" x1="49.313" y1="55.297" x2="80.162" y2="55.297" gradientUnits="userSpaceOnUse"><stop offset="0" stop-color="#A8ABFF"/><stop offset="1" stop-color="#FAC8FF"/></linearGradient><linearGradient id="paint3_linear" x1="0" y1="40.849" x2="35.908" y2="40.849" gradientUnits="userSpaceOnUse"><stop offset="0" stop-color="#174FA3"/><stop offset="1" stop-color="#B044AF"/></linearGradient><linearGradient id="paint4_linear" x1="38.302" y1="61.284" x2="40.697" y2="61.284" gradientUnits="userSpaceOnUse"><stop offset="0" stop-color="#174FA3"/><stop offset="1" stop-color="#B044AF"/></linearGradient><linearGradient id="paint5_linear" x1="7.189" y1="38.436" x2="21.539" y2="38.436" gradientUnits="userSpaceOnUse"><stop offset="0" stop-color="#174FA3"/><stop offset="1" stop-color="#B044AF"/></linearGradient><linearGradient id="paint6_linear" x1="7.179" y1="46.86" x2="14.364" y2="46.86" gradientUnits="userSpaceOnUse"><stop offset="0" stop-color="#174FA3"/><stop offset="1" stop-color="#B044AF"/></linearGradient><linearGradient id="paint7_linear" x1="7.179" y1="51.659" x2="21.549" y2="51.659" gradientUnits="userSpaceOnUse"><stop offset="0" stop-color="#174FA3"/><stop offset="1" stop-color="#B044AF"/></linearGradient><linearGradient id="paint8_linear" x1="0" y1="35.999" x2="81.443" y2="35.999" gradientUnits="userSpaceOnUse"><stop offset="0" stop-color="#174FA3"/><stop offset="1" stop-color="#B044AF"/></linearGradient><linearGradient id="paint9_linear" x1="56.236" y1="55.722" x2="75.132" y2="55.722" gradientUnits="userSpaceOnUse"><stop offset="0" stop-color="#174FA3"/><stop offset="1" stop-color="#B044AF"/></linearGradient><clipPath id="clip0"><path fill="#fff" d="M0 0h81.443v72H0z"/></clipPath></defs></svg>