<svg width="55" height="72" fill="none" xmlns="http://www.w3.org/2000/svg"><g clip-path="url(#clip0)"><path d="M1.063 1.055H53.72v69.89H1.063V1.055z" fill="url(#paint0_linear)"/><path d="M50.292 1.055h3.428v69.89h-3.428V1.055z" fill="#B9E4EF"/><path d="M27.398 5.597v8.522c4.746 0 8.585 3.81 8.585 8.521h8.585c0-9.407-7.692-17.043-17.17-17.043z" fill="url(#paint1_linear)"/><path d="M35.983 22.64a8.483 8.483 0 01-2.521 6.033l6.077 6.033c3.103-3.08 5.03-7.34 5.03-12.051l-8.586-.014z" fill="url(#paint2_linear)"/><path d="M33.462 28.673a8.585 8.585 0 01-6.078 2.504c-4.746 0-8.585-3.811-8.585-8.522s3.84-8.522 8.585-8.522V5.597c-9.477 0-17.17 7.636-17.17 17.044 0 9.407 7.693 17.043 17.17 17.043a17.18 17.18 0 0012.141-4.992l-6.063-6.019z" fill="#80B4FB"/><path d="M37.13 66.403h-4.575v-7.96h4.576v7.96z" fill="#fff"/><path d="M41.707 66.403H37.13v-10.8h4.576v10.8zm4.576 0h-4.576v-13.64h4.576v13.64z" fill="#fff"/><path d="M38.477 46.519c0-.577-.482-1.055-1.063-1.055H17.382c-.58 0-1.062.478-1.062 1.055 0 .576.482 1.054 1.063 1.054h20.031c.581 0 1.063-.478 1.063-1.054z" fill="url(#paint3_linear)"/><path d="M8.5 58.36h5.723c.581 0 1.063-.479 1.063-1.055 0-.577-.482-1.055-1.063-1.055H8.5c-.58 0-1.062.478-1.062 1.055 0 .576.481 1.054 1.062 1.054z" fill="url(#paint4_linear)"/><path d="M27.965 56.25h-9.01c-.58 0-1.063.478-1.063 1.055 0 .576.482 1.054 1.063 1.054h9.01c.58 0 1.063-.478 1.063-1.054 0-.577-.468-1.055-1.063-1.055z" fill="url(#paint5_linear)"/><path d="M27.965 51.708h-9.01c-.58 0-1.063.478-1.063 1.055 0 .576.482 1.054 1.063 1.054h9.01c.58 0 1.063-.478 1.063-1.054 0-.577-.468-1.055-1.063-1.055z" fill="url(#paint6_linear)"/><path d="M7.438 52.763c0 .576.481 1.054 1.062 1.054h5.723c.581 0 1.063-.478 1.063-1.054 0-.577-.482-1.055-1.063-1.055H8.5c-.58 0-1.062.478-1.062 1.055z" fill="url(#paint7_linear)"/><path d="M27.965 60.806h-9.01c-.58 0-1.063.478-1.063 1.055s.482 1.055 1.063 1.055h9.01c.58 0 1.063-.478 1.063-1.055s-.468-1.055-1.063-1.055z" fill="url(#paint8_linear)"/><path d="M8.5 62.916h5.723c.581 0 1.063-.478 1.063-1.055s-.482-1.055-1.063-1.055H8.5c-.58 0-1.062.478-1.062 1.055s.481 1.055 1.062 1.055z" fill="url(#paint9_linear)"/><path d="M8.5 67.458h5.723c.581 0 1.063-.478 1.063-1.055 0-.576-.482-1.055-1.063-1.055H8.5c-.58 0-1.062.479-1.062 1.055 0 .577.481 1.055 1.062 1.055z" fill="url(#paint10_linear)"/><path d="M27.965 65.349h-9.01c-.58 0-1.063.478-1.063 1.054 0 .577.482 1.055 1.063 1.055h9.01c.58 0 1.063-.478 1.063-1.055 0-.576-.468-1.055-1.063-1.055z" fill="url(#paint11_linear)"/><path d="M53.72 0H1.063C.482 0 0 .478 0 1.055v48.937c0 .577.482 1.055 1.063 1.055.58 0 1.062-.478 1.062-1.055V2.11h50.533v8.733c0 .577.481 1.055 1.062 1.055.58 0 1.063-.478 1.063-1.055V1.055C54.783.478 54.315 0 53.72 0z" fill="url(#paint12_linear)"/><path d="M53.72 14.71c-.58 0-1.062.478-1.062 1.054v54.127H2.125V54.914c0-.576-.482-1.055-1.063-1.055-.58 0-1.062.479-1.062 1.055v16.031C0 71.522.482 72 1.063 72H53.72c.58 0 1.063-.478 1.063-1.055v-55.18c0-.577-.468-1.056-1.063-1.056z" fill="url(#paint13_linear)"/><path d="M12.48 14.119a1.084 1.084 0 00-1.43.478 17.782 17.782 0 00-1.898 8.043c0 9.985 8.174 18.099 18.232 18.099 10.059 0 18.247-8.114 18.247-18.098 0-9.985-8.174-18.099-18.233-18.099-5.043 0-9.916 2.11-13.345 5.766a1.056 1.056 0 00.057 1.49 1.075 1.075 0 001.502-.056A16.196 16.196 0 0126.336 6.68v6.44c-4.817.52-8.585 4.599-8.585 9.52 0 5.288 4.335 9.577 9.647 9.577a9.567 9.567 0 006.021-2.11l4.59 4.557A16.064 16.064 0 0127.4 38.63c-8.883 0-16.108-7.172-16.108-15.99 0-2.503.566-4.893 1.671-7.101a1.069 1.069 0 00-.481-1.42zm24.51 9.576h6.488c-.241 3.614-1.7 6.905-3.967 9.478l-4.59-4.556a9.446 9.446 0 002.068-4.922zm6.473-2.11h-6.488c-.496-4.443-4.052-7.973-8.528-8.465V6.694c8.046.52 14.492 6.918 15.016 14.892zM19.876 22.64c0-4.12 3.371-7.467 7.522-7.467s7.523 3.347 7.523 7.467c0 4.12-3.372 7.468-7.523 7.468-4.15.014-7.522-3.347-7.522-7.468z" fill="url(#paint14_linear)"/><path d="M32.54 67.458h13.743c.58 0 1.062-.478 1.062-1.055v-13.64c0-.577-.482-1.055-1.062-1.055h-4.576c-.581 0-1.063.478-1.063 1.055v1.785h-3.513c-.58 0-1.063.479-1.063 1.055v1.786h-3.513c-.58 0-1.062.478-1.062 1.055v7.96c-.015.576.467 1.054 1.048 1.054zm10.23-13.64h2.45v11.53h-2.45v-11.53zm-4.577 2.84h2.451v8.69h-2.45v-8.69zm-4.59 2.84h2.451v5.85h-2.45v-5.85z" fill="url(#paint15_linear)"/></g><defs><linearGradient id="paint0_linear" x1="1.063" y1="36" x2="53.726" y2="36" gradientUnits="userSpaceOnUse"><stop offset="0" stop-color="#96D1F3"/><stop offset="1" stop-color="#CCFFF4"/></linearGradient><linearGradient id="paint1_linear" x1="27.394" y1="14.124" x2="44.567" y2="14.124" gradientUnits="userSpaceOnUse"><stop offset="0" stop-color="#174FA3"/><stop offset="1" stop-color="#B044AF"/></linearGradient><linearGradient id="paint2_linear" x1="33.466" y1="28.674" x2="44.567" y2="28.674" gradientUnits="userSpaceOnUse"><stop offset="0" stop-color="#A8ABFF"/><stop offset="1" stop-color="#FAC8FF"/></linearGradient><linearGradient id="paint3_linear" x1="16.314" y1="46.512" x2="38.474" y2="46.512" gradientUnits="userSpaceOnUse"><stop offset="0" stop-color="#174FA3"/><stop offset="1" stop-color="#B044AF"/></linearGradient><linearGradient id="paint4_linear" x1="7.442" y1="57.308" x2="15.291" y2="57.308" gradientUnits="userSpaceOnUse"><stop offset="0" stop-color="#174FA3"/><stop offset="1" stop-color="#B044AF"/></linearGradient><linearGradient id="paint5_linear" x1="17.888" y1="57.308" x2="29.029" y2="57.308" gradientUnits="userSpaceOnUse"><stop offset="0" stop-color="#174FA3"/><stop offset="1" stop-color="#B044AF"/></linearGradient><linearGradient id="paint6_linear" x1="17.888" y1="52.762" x2="29.029" y2="52.762" gradientUnits="userSpaceOnUse"><stop offset="0" stop-color="#174FA3"/><stop offset="1" stop-color="#B044AF"/></linearGradient><linearGradient id="paint7_linear" x1="7.442" y1="52.762" x2="15.291" y2="52.762" gradientUnits="userSpaceOnUse"><stop offset="0" stop-color="#174FA3"/><stop offset="1" stop-color="#B044AF"/></linearGradient><linearGradient id="paint8_linear" x1="17.888" y1="61.854" x2="29.029" y2="61.854" gradientUnits="userSpaceOnUse"><stop offset="0" stop-color="#174FA3"/><stop offset="1" stop-color="#B044AF"/></linearGradient><linearGradient id="paint9_linear" x1="7.442" y1="61.854" x2="15.291" y2="61.854" gradientUnits="userSpaceOnUse"><stop offset="0" stop-color="#174FA3"/><stop offset="1" stop-color="#B044AF"/></linearGradient><linearGradient id="paint10_linear" x1="7.442" y1="66.4" x2="15.291" y2="66.4" gradientUnits="userSpaceOnUse"><stop offset="0" stop-color="#174FA3"/><stop offset="1" stop-color="#B044AF"/></linearGradient><linearGradient id="paint11_linear" x1="17.888" y1="66.4" x2="29.029" y2="66.4" gradientUnits="userSpaceOnUse"><stop offset="0" stop-color="#174FA3"/><stop offset="1" stop-color="#B044AF"/></linearGradient><linearGradient id="paint12_linear" x1="0" y1="25.523" x2="54.788" y2="25.523" gradientUnits="userSpaceOnUse"><stop offset="0" stop-color="#174FA3"/><stop offset="1" stop-color="#B044AF"/></linearGradient><linearGradient id="paint13_linear" x1="0" y1="43.357" x2="54.788" y2="43.357" gradientUnits="userSpaceOnUse"><stop offset="0" stop-color="#174FA3"/><stop offset="1" stop-color="#B044AF"/></linearGradient><linearGradient id="paint14_linear" x1="9.159" y1="22.647" x2="45.63" y2="22.647" gradientUnits="userSpaceOnUse"><stop offset="0" stop-color="#174FA3"/><stop offset="1" stop-color="#B044AF"/></linearGradient><linearGradient id="paint15_linear" x1="31.484" y1="59.581" x2="47.347" y2="59.581" gradientUnits="userSpaceOnUse"><stop offset="0" stop-color="#174FA3"/><stop offset="1" stop-color="#B044AF"/></linearGradient><clipPath id="clip0"><path fill="#fff" d="M0 0h54.783v72H0z"/></clipPath></defs></svg>