<svg width="72" height="72" fill="none" xmlns="http://www.w3.org/2000/svg"><path d="M35.93 58.74c12.791 0 23.16-10.37 23.16-23.162 0-12.791-10.369-23.16-23.16-23.16-12.792 0-23.161 10.369-23.161 23.16 0 12.792 10.37 23.161 23.16 23.161z" fill="url(#paint0_linear)"/><path d="M70.734 14.808v3.094H56.7v-3.094a7.006 7.006 0 014.402-6.511 3.518 3.518 0 002.615 1.181 3.45 3.45 0 002.616-1.181 7.006 7.006 0 014.401 6.51zM10.898 8.297a3.518 3.518 0 01-2.615 1.181 3.549 3.549 0 01-2.63-1.181 7.015 7.015 0 00-4.387 6.51v3.095H15.3v-3.094a7.006 7.006 0 00-4.402-6.511zm55.449 53.058a3.518 3.518 0 01-2.616 1.18c-1.04 0-1.983-.45-2.615-1.18-2.574 1.04-4.402 3.557-4.402 6.51v3.094h14.02v-3.093a7 7 0 00-4.387-6.511zm-55.449 0a3.518 3.518 0 01-2.615 1.18c-1.04 0-1.983-.45-2.616-1.18a6.992 6.992 0 00-4.401 6.51v3.094H15.3v-3.093a6.992 6.992 0 00-4.402-6.511z" fill="url(#paint1_linear)"/><path d="M67.866 7.875a4.535 4.535 0 00.421-1.912V4.556c0-2.503-2.053-4.556-4.57-4.556a4.564 4.564 0 00-4.556 4.556c.056 1.013-.183 2.011.422 3.319-5.316 3.164-3.614 9.084-3.924 11.067h16.144c-.323-2.01 1.378-7.903-3.937-11.067zM61.27 4.556c0-1.35 1.097-2.46 2.461-2.46a2.463 2.463 0 012.461 2.46v1.407c0 1.35-1.097 2.46-2.46 2.46a2.464 2.464 0 01-2.462-2.46V4.556zm8.41 12.29H57.755c.14-.744-.872-5.146 3.15-7.298a4.562 4.562 0 005.639 0c3.993 2.138 3.01 6.61 3.136 7.299zm-57.263-8.97c.619-1.322.366-2.306.422-3.319A4.564 4.564 0 008.283 0a4.564 4.564 0 00-4.556 4.556c.056 1.013-.183 2.011.421 3.319C-1.182 11.039.52 16.959.211 18.942h16.144c-.324-2.01 1.392-7.903-3.938-11.067zm-6.595-3.32c0-1.35 1.097-2.46 2.46-2.46a2.455 2.455 0 012.462 2.46v1.407c0 1.35-1.097 2.46-2.461 2.46a2.464 2.464 0 01-2.461-2.46V4.556zm8.423 12.29H2.32c.14-.744-.872-5.146 3.15-7.298a4.498 4.498 0 002.813.985 4.465 4.465 0 002.812-.985c3.994 2.138 3.024 6.61 3.15 7.299zm53.62 44.087c.62-1.322.366-2.306.422-3.319a4.564 4.564 0 00-4.556-4.556 4.564 4.564 0 00-4.556 4.556v1.406c0 .69.155 1.336.422 1.913-5.316 3.164-3.614 9.084-3.924 11.067h16.144c-.337-2.01 1.364-7.903-3.951-11.067zm-6.595-3.319a2.464 2.464 0 012.461-2.46 2.463 2.463 0 012.461 2.46v1.406a2.464 2.464 0 01-2.46 2.461 2.464 2.464 0 01-2.462-2.46v-1.407zm8.41 12.277H57.755c.14-.746-.872-5.147 3.15-7.299a4.562 4.562 0 005.639 0c3.993 2.138 3.01 6.624 3.136 7.299zm-57.263-8.958a4.535 4.535 0 00.422-1.913v-1.406a4.564 4.564 0 00-4.556-4.556c-2.503 0-4.556 2.053-4.556 4.556v1.406c0 .69.154 1.336.421 1.913C1.716 62.367.211 64.969.211 67.866V72h16.144c-.324-2.01 1.392-7.903-3.938-11.067zm-6.595-3.319a2.464 2.464 0 012.46-2.46 2.455 2.455 0 012.462 2.46v1.406a2.464 2.464 0 01-2.461 2.461 2.455 2.455 0 01-2.461-2.46v-1.407zm8.423 12.277H2.32v-2.04a5.924 5.924 0 013.15-5.259 4.562 4.562 0 005.64 0c3.98 2.138 3.009 6.624 3.135 7.299zM68.57 21.712c.281.661.548 1.336.787 2.026l-1.983.703a31.211 31.211 0 00-.745-1.899l1.94-.83zM65.953 50.12c3.066-6.328 3.924-13.247 2.911-19.758l2.081-.323c1.097 6.989.127 14.33-3.107 20.995l-1.885-.914zm2.531-21.755c-.14-.66-.309-1.322-.492-1.983l2.025-.576c.197.689.38 1.406.535 2.11l-2.068.45zm-63.239-5.85c-2.77 6.497-3.262 13.514-1.954 19.87l-2.068.422C-.183 36 .38 28.546 3.305 21.684l1.94.83zM2.362 46.997a32.506 32.506 0 01-.632-2.081l2.025-.549c.183.661.38 1.308.59 1.955l-1.982.675zm1.646 4.022a49.968 49.968 0 01-.886-1.983l1.955-.802c.253.633.534 1.252.83 1.857l-1.9.928zM20.559 5.977l-.97-1.87a31.268 31.268 0 011.955-.943l.858 1.927a44.29 44.29 0 00-1.843.886zm3.727-1.646l-.731-1.969C33.947-1.505 46.195-.393 56.01 6.385l-1.195 1.73c-9.254-6.412-20.799-7.41-30.53-3.783zm-7.158 3.713l-1.195-1.73a46.861 46.861 0 011.758-1.139l1.082 1.8c-.548.338-1.11.703-1.645 1.069zm27.197 59.808l.534 2.039c-8.775 2.264-18.182 1.082-26.057-3.277l1.026-1.842c7.397 4.106 16.256 5.203 24.497 3.08zm3.881-1.266l.774 1.955a38.34 38.34 0 01-2.04.73l-.646-1.996c.633-.197 1.28-.436 1.912-.69zm3.685-1.73l1.012 1.842c-.633.352-1.28.675-1.94.985l-.9-1.913c.632-.28 1.237-.59 1.828-.914zM35.93 11.363c-13.346 0-24.216 10.856-24.216 24.215 0 13.36 10.856 24.216 24.216 24.216 13.36 0 24.215-10.87 24.215-24.216 0-13.345-10.87-24.216-24.215-24.216zm-6.961 3.234c-1.083 1.097-2.096 2.475-2.982 4.092a27.75 27.75 0 00-1.462 3.122 22.617 22.617 0 01-3.46-2.588 22.207 22.207 0 017.904-4.626zm-9.394 6.131a23.807 23.807 0 004.233 3.122c-1.013 3.248-1.603 6.89-1.688 10.688h-8.268a22.036 22.036 0 015.723-13.81zm-5.723 15.905h8.268c.099 4.078.76 7.973 1.927 11.39a23.646 23.646 0 00-4.036 2.87c-3.6-3.741-5.906-8.734-6.16-14.26zm7.692 15.708a21.843 21.843 0 013.262-2.32c.366.857.76 1.673 1.181 2.446.9 1.617 1.899 2.995 2.982 4.092a21.955 21.955 0 01-7.425-4.218zm13.331 5.245c-2.63-.45-5.105-2.602-7.06-6.145a23.75 23.75 0 01-1.152-2.405 21.892 21.892 0 018.212-1.997v10.547zm0-12.656a24.31 24.31 0 00-8.944 2.123c-1.026-3.136-1.617-6.694-1.715-10.434h10.659v8.31zm0-10.407h-10.66c.085-3.445.591-6.736 1.477-9.689a23.753 23.753 0 009.169 2.222v7.467h.014zm0-9.562a22.184 22.184 0 01-8.494-2.123c.422-1.111.9-2.152 1.435-3.122 1.954-3.558 4.43-5.696 7.059-6.146v11.39zm23.133 9.562h-8.269c-.084-3.796-.675-7.439-1.687-10.687a23.807 23.807 0 004.232-3.122c3.347 3.699 5.47 8.508 5.724 13.81zm-7.214-15.286a22.621 22.621 0 01-3.46 2.588c-.436-1.097-.914-2.152-1.462-3.122-.9-1.617-1.899-2.995-2.981-4.092a21.801 21.801 0 017.903 4.627zm-13.81-5.667c2.63.45 5.105 2.602 7.06 6.146.534.97 1.012 2.01 1.434 3.121a21.687 21.687 0 01-8.494 2.124V13.57zm0 13.5c3.22-.14 6.314-.9 9.17-2.222.885 2.954 1.391 6.244 1.476 9.69H36.984V27.07zm0 9.563h10.66c-.099 3.726-.69 7.298-1.716 10.434a24.03 24.03 0 00-8.944-2.123v-8.311zm0 20.953V47.039c2.87.14 5.654.816 8.213 1.997a23.772 23.772 0 01-1.153 2.405c-1.969 3.557-4.444 5.695-7.06 6.145zm5.92-1.027c1.435-1.462 2.912-3.586 4.163-6.539a22.905 22.905 0 013.263 2.32 22.225 22.225 0 01-7.425 4.22zm8.958-5.667a25.06 25.06 0 00-4.035-2.869c1.167-3.417 1.828-7.326 1.926-11.39h8.269c-.267 5.526-2.574 10.519-6.16 14.26z" fill="url(#paint2_linear)"/><defs><linearGradient id="paint0_linear" x1="35.932" y1="12.418" x2="35.932" y2="58.736" gradientUnits="userSpaceOnUse"><stop offset="0" stop-color="#96D1F3"/><stop offset="1" stop-color="#CCFFF4"/></linearGradient><linearGradient id="paint1_linear" x1="36.002" y1="8.293" x2="36.002" y2="70.947" gradientUnits="userSpaceOnUse"><stop offset="0" stop-color="#A8ABFF"/><stop offset="1" stop-color="#FAC8FF"/></linearGradient><linearGradient id="paint2_linear" x1="36.002" y1="-.004" x2="36.002" y2="72" gradientUnits="userSpaceOnUse"><stop offset="0" stop-color="#174FA3"/><stop offset="1" stop-color="#B044AF"/></linearGradient></defs></svg>