<svg width="282" height="84" fill="none" xmlns="http://www.w3.org/2000/svg"><path opacity=".1" stroke="#fff" d="M12.181 6.675v76.758M0 31.205h282M0 41.216h282M0 51.228h282M0 61.24h282M0 71.252h282M0 36.21h282M0 46.222h282M0 56.234h282M0 66.245h282M0 76.257h282M72.251 6.675v76.758m60.071-76.758v76.758m60.072-76.758v76.758M42.216 6.675v76.758m60.071-76.758v76.758m60.071-76.758v76.758m60.071-76.758v76.758M27.198 6.675v76.758M87.269 6.675v76.758m60.072-76.758v76.758m60.07-76.758v76.758M57.233 6.675v76.758m60.072-76.758v76.758m60.07-76.758v76.758m60.072-76.758v76.758M257.47 6.675v76.758M17.186 6.675v76.758M77.257 6.675v76.758m60.072-76.758v76.758m60.07-76.758v76.758M47.222 6.675v76.758m60.071-76.758v76.758m60.071-76.758v76.758m60.071-76.758v76.758M32.204 6.675v76.758M92.275 6.675v76.758m60.071-76.758v76.758m60.071-76.758v76.758M62.24 6.675v76.758m60.071-76.758v76.758m60.071-76.758v76.758m60.071-76.758v76.758m20.024-76.758v76.758M22.192 6.675v76.758M82.263 6.675v76.758m60.071-76.758v76.758m60.071-76.758v76.758M52.228 6.675v76.758m60.071-76.758v76.758M172.37 6.675v76.758m60.071-76.758v76.758m20.023-76.758v76.758M37.21 6.675v76.758M97.281 6.675v76.758m60.071-76.758v76.758m60.071-76.758v76.758M67.246 6.675v76.758m60.07-76.758v76.758m60.072-76.758v76.758m60.07-76.758v76.758m20.024-76.758v76.758"/><path d="M21.692 73.42l19.893-48.39h12.47l19.86 48.39h-13.87l-3.418-8.579H38.622l-3.32 8.58h-13.61zm20.74-18.934h10.483l-5.209-13.673-5.274 13.673zM78.44 73.42V25.365h19.99c5.948 0 10.669 1.508 14.164 4.524 3.494 2.993 5.241 7.16 5.241 12.5 0 3.686-.879 6.847-2.637 9.483-1.736 2.636-4.102 4.602-7.097 5.898-2.974 1.274-6.414 1.91-10.321 1.91h-6.414v13.74H78.44zm12.926-24.162h6.153c2.301 0 4.103-.57 5.405-1.709 1.324-1.14 1.986-2.692 1.986-4.658 0-2.033-.662-3.597-1.986-4.691-1.302-1.095-3.126-1.643-5.47-1.643h-6.088v12.701zm31.939 24.162V25.365h37.539V36.69H136.1v7.273h22.4v10.522h-22.4v7.607h25.07V73.42h-37.865zm44.474 0V25.365h12.925V43.36h16.605V25.365h12.958V73.42h-12.958V55.156h-16.605V73.42h-12.925zm46.981 0l19.892-48.39h12.47l19.86 48.39h-13.869l-3.419-8.579H231.69l-3.321 8.58H214.76zm20.739-18.934h10.484l-5.21-13.673-5.274 13.673z" fill="#fff"/><path fill="#fff" d="M25.03 25.029h28.367v10.012H25.03zM35.041 13.35V9.433h.78c.315-.86.542-1.757.681-2.695.144-.937.215-2.195.215-3.773v-.228h6.698v6.696h.994l-.276 3.915H42.07v-1.77h-4.677l-.16 1.77h-2.191zm3.334-3.916h2.602V4.89h-1.909v.086c0 .912-.059 1.714-.178 2.405-.118.69-.29 1.375-.515 2.053zM52.79 11.58V2.737h7.078v2.084h-4.665V6.16h4.223v1.936h-4.223v1.4h4.726v2.083H52.79zm14.845-.075l.166-1.88c.147.033.336.05.565.05.114 0 .213-.011.294-.032a.764.764 0 00.27-.166.997.997 0 00.258-.364c.07-.156.14-.374.21-.653a7.65 7.65 0 00.165-1.018c.045-.399.08-.89.104-1.473.029-.588.043-1.256.043-2.004V2.738h6.765v8.841h-2.437V4.89h-2.05v.34c0 .76-.025 1.447-.074 2.06-.045.607-.11 1.136-.197 1.584a6.29 6.29 0 01-.331 1.165c-.13.333-.274.604-.43.814-.155.21-.335.38-.54.512a2.075 2.075 0 01-.62.265c-.209.05-.442.074-.7.074-.282 0-.564-.023-.847-.068a4.828 4.828 0 01-.614-.13zM85.15 7.159c0-.625.121-1.22.363-1.782a4.598 4.598 0 01.994-1.468c.418-.41.921-.738 1.51-.98a4.903 4.903 0 011.885-.364c.667 0 1.293.121 1.879.364.589.238 1.09.563 1.503.974.418.407.745.894.983 1.461.241.563.362 1.162.362 1.795 0 .624-.123 1.22-.369 1.788a4.519 4.519 0 01-.988 1.467 4.62 4.62 0 01-1.51.98 4.902 4.902 0 01-1.885.364c-.887 0-1.694-.203-2.418-.61a4.511 4.511 0 01-1.7-1.665 4.572 4.572 0 01-.608-2.324zm2.5 0c0 .653.212 1.214.638 1.683.425.468.963.703 1.614.703.659 0 1.197-.23 1.614-.69.418-.465.627-1.03.627-1.696 0-.654-.213-1.215-.639-1.684-.425-.468-.968-.703-1.627-.703-.65 0-1.184.233-1.602.697-.417.46-.626 1.024-.626 1.69zm15.667 4.421V2.737h4.512c1.072 0 1.872.265 2.4.795.381.382.571.867.571 1.455 0 .917-.454 1.572-1.363 1.967.569.19 1.003.456 1.302.802.298.34.448.803.448 1.387 0 .76-.295 1.357-.884 1.788-.586.432-1.402.647-2.45.647h-4.536zm2.376-1.967h1.884c.373 0 .661-.072.866-.216.204-.144.307-.352.307-.623a.67.67 0 00-.301-.58c-.201-.143-.499-.215-.896-.215h-1.86v1.634zm0-3.348h1.534c.77 0 1.154-.266 1.154-.796a.644.644 0 00-.282-.561c-.188-.131-.463-.197-.823-.197h-1.583v1.554zm13.727.894a4.595 4.595 0 011.357-3.25 4.65 4.65 0 011.51-.98 4.908 4.908 0 011.885-.364c.667 0 1.293.121 1.878.364a4.492 4.492 0 011.504.974c.418.407.745.894.982 1.461a4.5 4.5 0 01.363 1.795c0 .624-.123 1.22-.369 1.788a4.516 4.516 0 01-.988 1.467 4.65 4.65 0 01-1.51.98 4.907 4.907 0 01-1.885.364c-.888 0-1.694-.203-2.418-.61a4.506 4.506 0 01-1.701-1.665 4.574 4.574 0 01-.608-2.324zm2.499 0c0 .653.213 1.214.638 1.683.426.468.964.703 1.615.703.659 0 1.197-.23 1.614-.69.418-.465.626-1.03.626-1.696 0-.654-.212-1.215-.638-1.684-.426-.468-.968-.703-1.627-.703-.65 0-1.185.233-1.602.697-.417.46-.626 1.024-.626 1.69zm15.668 4.421V2.737h2.412v4.976l3.407-4.976h2.277v8.841h-2.412V6.604l-3.407 4.975h-2.277zM139.496.24l1.332-.24c.184.506.479.758.884.758a.776.776 0 00.546-.19c.139-.132.254-.321.344-.568l1.332.24c-.094.613-.336 1.088-.724 1.425-.389.337-.888.505-1.498.505-.606 0-1.103-.168-1.492-.505-.389-.337-.63-.812-.724-1.425zm26.062 11.34V2.737h2.437v6.696h3.008V2.738h2.437v6.696h.995l-.277 3.915h-2.062v-1.77h-6.538zm17.129 0V2.737h7.078v2.084h-4.666V6.16h4.224v1.936h-4.224v1.4h4.727v2.083h-7.139zm15.803 0V2.737h2.437v3.31h3.13v-3.31h2.443v8.841h-2.443V8.22h-3.13v3.36h-2.437zm16.49-6.69V2.738h7.722V4.89h-2.646v6.69h-2.437V4.89h-2.639zm16.208 6.69V2.737h3.769c1.121 0 2.011.277 2.67.832.659.55.988 1.317.988 2.3 0 .678-.165 1.26-.497 1.745A2.96 2.96 0 01236.78 8.7c-.561.234-1.209.352-1.946.352h-1.209v2.527h-2.437zm2.437-4.446h1.16c.434 0 .773-.105 1.019-.315.25-.21.374-.495.374-.857 0-.374-.124-.661-.374-.863-.246-.201-.589-.302-1.031-.302h-1.148v2.337z"/></svg>