<svg width="376" height="99" fill="none" xmlns="http://www.w3.org/2000/svg"><g opacity=".2" clip-path="url(#clip0)"><path fill-rule="evenodd" clip-rule="evenodd" d="M14.244 97.878c.524-.831 1.066-1.663 1.57-2.505 1.972-3.31 3.978-6.603 5.881-9.958 1.39-2.447 2.759-4.917 3.925-7.486 1.54-3.38 3.003-6.81 4.26-10.304a27.43 27.43 0 001.83-10.98 10.11 10.11 0 00-3.072-7.21 12.084 12.084 0 00-5.573-2.663 26.176 26.176 0 00-7.788-.499 65.32 65.32 0 00-7 .869c-2.756.477-5.49 1.121-8.318 1.71 1.181-.44 2.294-.843 3.4-1.264 4.78-1.814 9.567-3.612 14.335-5.457 5.015-1.94 10.026-3.895 15.012-5.907 3.101-1.249 6.167-2.587 9.228-3.936 3.67-1.617 7.346-3.23 10.966-4.954a82.047 82.047 0 0011.037-6.123 13.423 13.423 0 003.606-3.236 1.965 1.965 0 00.22-2.404 1.87 1.87 0 00-.891-.732 19.342 19.342 0 00-4.096-1.028c-3.231-.22-6.477-.218-9.718-.306a.5.5 0 01-.35-.127c.856-.386 1.704-.785 2.568-1.164 2.033-.869 4.061-1.75 6.112-2.577 2.4-.969 4.811-1.908 7.236-2.819 2.549-.951 5.094-1.926 7.686-2.747a213.354 213.354 0 0110.315-3.003A32.547 32.547 0 0193.721.002c1.5-.114 3.009.076 4.434.559a3.913 3.913 0 012.451 4.376 21.332 21.332 0 01-3.205 7.535 115.098 115.098 0 01-4.048 5.989 98.69 98.69 0 01-4.09 5.242c-1.932 2.33-3.889 4.629-5.915 6.865-3.095 3.417-6.264 6.766-9.39 10.149-7.266 7.87-15.058 15.21-22.738 22.666-4.88 4.735-9.816 9.415-14.737 14.1-1.752 1.664-3.557 3.284-5.324 4.93-1.56 1.452-3.095 2.933-4.659 4.375-2.276 2.09-4.578 4.16-6.86 6.236-.854.777-1.685 1.58-2.526 2.37-.909.855-1.818 1.706-2.729 2.554-.048-.003-.095-.035-.141-.07zm33.44-76.961l-.632-5.03-5.024-.878c1.512-.727 2.843-1.393 4.199-1.997a.666.666 0 00.43-.832c-.177-1.34-.345-2.683-.513-4.024a.601.601 0 01.035-.19c.793.766 1.582 1.518 2.357 2.281.227.313.496.592.799.832.314.13.667.13.981 0 1.118-.49 2.205-1.048 3.303-1.579.166-.081.346-.15.7-.3-.632 1.12-1.164 2.077-1.713 3.032-.044.078-.105.146-.144.225a1.914 1.914 0 00-.369.896 3.1 3.1 0 00.666 1.318c.665.76 1.41 1.442 2.12 2.163.12.123.227.26.439.499-1.313-.226-2.481-.428-3.649-.632a4.019 4.019 0 00-1.038-.178 1.034 1.034 0 00-.687.447c-.766 1.248-1.474 2.54-2.266 3.947h.006z" fill="#fff"/></g><path d="M54.903 51.556L68.8 18.71h8.712l13.875 32.846h-9.69l-2.389-5.823H66.731l-2.32 5.823h-9.508zm14.49-12.852h7.323l-3.639-9.28-3.685 9.28zM94.55 51.556V18.938h9.03v12.214h11.6V18.938h9.053v32.618h-9.053V39.159h-11.6v12.397h-9.03zm33.004 0V43.64h2.889c1.167-3.17 2.347-1.176 2.525-9.94.177-8.764.688-11.26.688-12.091 0-.832.108-2.671.108-2.671h24.816V43.64h3.685v7.916h-34.711zm14.262-7.916h7.733V26.876h-7.574v.556c0 3.366-.159 4.99-.159 8.634v7.574zm24.02 7.916V18.938h13.966c4.155 0 7.453 1.023 9.894 3.07 2.442 2.032 3.662 4.86 3.662 8.485 0 2.502-.614 4.648-1.842 6.437-1.213 1.79-2.866 3.124-4.959 4.003-2.077.864-4.481 1.297-7.21 1.297h-4.481v9.326h-9.03zm9.03-16.4h4.299c1.607 0 2.866-.387 3.776-1.16.925-.774 1.387-1.828 1.387-3.162 0-1.38-.462-2.442-1.387-3.185-.91-.743-2.184-1.114-3.822-1.114h-4.253v8.62zm21.199.091c0-2.305.448-4.497 1.342-6.574.91-2.093 2.138-3.897 3.685-5.414 1.547-1.516 3.412-2.721 5.596-3.616 2.183-.895 4.511-1.342 6.983-1.342 2.472 0 4.792.447 6.96 1.342 2.184.88 4.041 2.077 5.573 3.594 1.547 1.5 2.76 3.298 3.639 5.39.895 2.078 1.342 4.284 1.342 6.62 0 2.305-.455 4.503-1.364 6.596-.895 2.093-2.116 3.897-3.663 5.414-1.546 1.516-3.412 2.721-5.595 3.616-2.184.895-4.511 1.342-6.983 1.342-3.291 0-6.278-.75-8.962-2.252-2.684-1.516-4.784-3.563-6.301-6.141-1.501-2.593-2.252-5.452-2.252-8.575zm9.258 0c0 2.41.788 4.48 2.366 6.21 1.577 1.728 3.571 2.592 5.982 2.592 2.441 0 4.435-.849 5.982-2.547 1.547-1.714 2.32-3.799 2.32-6.255 0-2.411-.788-4.481-2.366-6.21-1.577-1.729-3.586-2.593-6.027-2.593-2.411 0-4.39.857-5.937 2.57-1.547 1.699-2.32 3.776-2.32 6.233zm30.571 16.309V18.938h9.553l7.779 12.624 7.779-12.624h9.554v32.618h-9.008v-18.72l-8.325 12.76h-.182l-8.302-12.67v18.63h-8.848zm40.442 0V18.938h26.227v7.688h-17.287v4.936h15.649v7.142h-15.649v5.163h17.514v7.689h-26.454zm29.252-24.68v-7.938h28.614v7.938h-9.803v24.68h-9.03v-24.68h-9.781zm29.956 24.68l13.898-32.846h8.712l13.875 32.846h-9.69l-2.388-5.823h-12.579l-2.32 5.823h-9.508zm14.49-12.852h7.324l-3.639-9.28-3.685 9.28zM55.735 58.23H376l-7.755 21.629H33.275l22.46-21.628z" fill="#fff"/><path d="M100.927 63.727c.994 0 1.802.235 2.423.705.63.47.945 1.07.945 1.797 0 .994-.502 1.708-1.504 2.143 1.162.372 1.743 1.104 1.743 2.196 0 .816-.324 1.486-.971 2.01-.639.523-1.496.785-2.569.785-.95 0-1.748-.129-2.396-.386a5.206 5.206 0 01-1.743-1.171l1.09-1.425c.808.79 1.798 1.185 2.969 1.185.452 0 .825-.098 1.118-.293.302-.204.453-.479.453-.825 0-.373-.169-.648-.506-.825-.329-.178-.777-.266-1.345-.266h-1.078v-1.704h1.052c1.109 0 1.664-.36 1.664-1.078a.872.872 0 00-.413-.759c-.275-.186-.639-.28-1.091-.28-1.012 0-1.85.342-2.516 1.025l-1.078-1.304c.976-1.02 2.227-1.53 3.753-1.53zm4.41 11.419v-3.793h.878c.364-.843.626-1.735.785-2.675.16-.94.24-2.174.24-3.7v-1.092h6.775v7.467h1.118l-.266 3.793h-1.717v-1.943h-5.83l-.133 1.943h-1.85zm6.628-9.41h-2.755v.945c0 1.757-.28 3.314-.839 4.672h3.594v-5.617zm3.8 7.467l3.993-9.383h1.89l3.993 9.383h-2.143l-.852-2.09h-3.939l-.852 2.09h-2.09zm3.674-3.9h2.475l-1.237-3.021-1.238 3.021zm7.64 3.9v-9.317h2.05v3.687h3.78v-3.687h2.049v9.317h-2.049v-3.74h-3.78v3.74h-2.05zm18.138-9.317v9.317h-2.023v-6.11l-4.073 6.11h-1.93v-9.317h2.023v6.11l4.1-6.11h1.903zm9.616 0v9.317h-2.049v-2.981h-1.611l-1.996 2.981h-2.396l2.276-3.327c-1.331-.497-1.997-1.469-1.997-2.915 0-.959.311-1.708.932-2.25.63-.55 1.491-.825 2.582-.825h4.259zm-4.126 4.526h2.077v-2.676h-2.037c-.506 0-.9.116-1.184.346-.284.231-.426.568-.426 1.012 0 .4.137.719.412.958.284.24.67.36 1.158.36zm9.376 6.734v-3.793h.879c.364-.843.625-1.735.785-2.675.16-.94.24-2.174.24-3.7v-1.092h6.774v7.467h1.118l-.266 3.793h-1.717v-1.943h-5.829l-.134 1.943h-1.85zm6.629-9.41h-2.755v.945c0 1.757-.28 3.314-.839 4.672h3.594v-5.617zm5.836-1.85h6.655v9.317h-2.049v-7.467h-2.689v.706c0 1.819-.111 3.23-.333 4.232-.213 1.003-.528 1.695-.945 2.077-.417.381-.998.572-1.743.572-.417 0-.777-.04-1.078-.12l.133-1.69c.124.017.23.026.319.026.302 0 .546-.062.732-.186.195-.133.373-.395.533-.785.168-.39.288-.972.359-1.744.071-.78.106-1.783.106-3.008v-1.93zm16.261 0v9.317h-2.049v-2.981h-1.611l-1.996 2.981h-2.396l2.276-3.327c-1.331-.497-1.996-1.469-1.996-2.915 0-.959.31-1.708.931-2.25.63-.55 1.491-.825 2.582-.825h4.259zm-4.126 4.526h2.077v-2.676h-2.037c-.505 0-.9.116-1.184.346-.284.231-.426.568-.426 1.012 0 .4.137.719.412.958.284.24.67.36 1.158.36zm10.362 4.791v-9.317h4.325c1.074 0 1.886.275 2.436.825.426.426.639.963.639 1.611 0 .878-.408 1.548-1.225 2.01.577.222 1.012.514 1.305.878.292.355.439.834.439 1.438 0 .834-.311 1.468-.932 1.903-.621.435-1.473.652-2.555.652h-4.432zm1.996-5.55h1.89c.985 0 1.477-.337 1.477-1.012 0-.31-.115-.545-.346-.705-.23-.169-.563-.253-.998-.253h-2.023v1.97zm0 3.753h2.436c.967 0 1.45-.346 1.45-1.038 0-.674-.505-1.011-1.517-1.011h-2.369v2.05zm6.81 1.797l3.993-9.383h1.89l3.993 9.383h-2.143l-.852-2.09h-3.939l-.852 2.09h-2.09zm3.674-3.9H210l-1.237-3.021-1.238 3.021zm20.431-5.417v9.317h-12.791v-9.317h2.05v7.467h3.314v-7.467h2.05v7.467h3.327v-7.467h2.05zm2.235 9.317v-9.317h7.027v1.824h-4.991v1.89h4.392v1.823h-4.392v1.957h5.058v1.823h-7.094zm10.966-7.467v7.467h-2.05v-9.317h6.508v1.85h-4.458zm13.97 6.229c-.94.932-2.12 1.398-3.54 1.398s-2.6-.466-3.54-1.398c-.932-.931-1.398-2.072-1.398-3.42 0-1.34.47-2.476 1.411-3.408.949-.94 2.134-1.41 3.554-1.41 1.419 0 2.595.465 3.527 1.397.94.932 1.41 2.072 1.41 3.42 0 1.34-.474 2.48-1.424 3.421zm-5.537-1.344c.533.568 1.207.852 2.024.852.816 0 1.486-.28 2.009-.839.524-.568.786-1.264.786-2.09 0-.816-.267-1.508-.799-2.076-.532-.568-1.207-.852-2.023-.852-.816 0-1.486.284-2.01.852-.523.56-.785 1.251-.785 2.077 0 .816.266 1.508.798 2.076zm14.82-4.885v1.624h2.462c1.038 0 1.841.262 2.409.785.577.515.865 1.216.865 2.103 0 .94-.306 1.668-.918 2.183-.612.515-1.464.772-2.556.772h-4.312v-9.317h7.147v1.85h-5.097zm2.249 3.328h-2.249v2.289h2.262c.95 0 1.425-.395 1.425-1.184 0-.737-.48-1.105-1.438-1.105zm13.202-5.178v9.317h-2.023v-6.11l-4.073 6.11h-1.93v-9.317h2.024v6.11l4.099-6.11h1.903zm5.557-.159c.994 0 1.801.235 2.422.705.63.47.945 1.07.945 1.797 0 .994-.501 1.708-1.504 2.143 1.163.372 1.744 1.104 1.744 2.196 0 .816-.324 1.486-.972 2.01-.639.523-1.495.785-2.569.785-.949 0-1.748-.129-2.395-.386a5.211 5.211 0 01-1.744-1.171l1.091-1.425c.808.79 1.797 1.185 2.968 1.185.453 0 .826-.098 1.119-.293.301-.204.452-.479.452-.825 0-.373-.169-.648-.506-.825-.328-.178-.776-.266-1.344-.266h-1.078v-1.704h1.051c1.11 0 1.664-.36 1.664-1.078a.87.87 0 00-.413-.759c-.275-.186-.638-.28-1.091-.28-1.011 0-1.85.342-2.515 1.025l-1.079-1.304c.977-1.02 2.228-1.53 3.754-1.53zm5.394 9.476v-9.317h2.05v3.687h3.78v-3.687h2.05v9.317h-2.05v-3.74h-3.78v3.74h-2.05zm10.112 0v-9.317h7.028v1.824h-4.991v1.89h4.392v1.823h-4.392v1.957h5.058v1.823h-7.095zm13.283.16c-1.367 0-2.507-.462-3.421-1.384-.905-.932-1.358-2.077-1.358-3.434 0-1.349.457-2.49 1.371-3.42.914-.933 2.077-1.398 3.487-1.398.808 0 1.487.133 2.037.399a5.69 5.69 0 011.57 1.118l-1.224 1.41c-.399-.363-.777-.625-1.131-.785-.347-.168-.768-.252-1.265-.252-.781 0-1.429.283-1.943.851-.506.56-.759 1.251-.759 2.077 0 .816.253 1.508.759 2.076.514.568 1.162.852 1.943.852.497 0 .927-.089 1.291-.266.364-.178.75-.453 1.158-.826l1.304 1.398c-.505.541-1.055.94-1.65 1.198-.586.257-1.309.386-2.169.386zm4.662-.16l3.993-9.383h1.89l3.993 9.383h-2.143l-.852-2.09h-3.94l-.852 2.09h-2.089zm3.673-3.9h2.476l-1.238-3.021-1.238 3.021z" fill="#043464"/><defs><clipPath id="clip0"><path fill="#fff" d="M0 0h100.655v98.003H0z"/></clipPath></defs></svg>