<svg width="178" height="94" fill="none" xmlns="http://www.w3.org/2000/svg"><path d="M127.793 36.159h3.191v1.805c.337-.602.829-1.094 1.475-1.475a4.192 4.192 0 012.2-.594c1.453 0 2.641.506 3.565 1.518.969 1.057 1.453 2.516 1.453 4.38v.176c0 1.848-.477 3.308-1.431 4.38-.909 1.04-2.105 1.562-3.587 1.562-.851 0-1.599-.184-2.244-.55-.646-.382-1.123-.866-1.431-1.453v5.678h-3.191V36.159zm5.92 9.265c.88 0 1.555-.286 2.025-.858.469-.587.704-1.446.704-2.575v-.176c0-1.145-.25-2.01-.748-2.597-.499-.587-1.167-.88-2.003-.88-.866 0-1.555.3-2.069.902-.499.587-.748 1.445-.748 2.575v.176c0 1.13.249 1.988.748 2.575.499.572 1.196.858 2.091.858zm11.247 1.078l-4.577-10.343h3.433l2.795 6.91 2.575-6.91h3.059l-6.228 15.427h-3.081l2.024-5.084zm16.096-8.076h-4.049v9.243h-3.147v-11.51h10.343v11.51h-3.147v-9.243zm13.196 0h-4.05v9.243h-3.147v-11.51h10.344v11.51h-3.147v-9.243zM89.46 32.611v-11.51h3.147v7.68l4.445-7.68h3.148v11.51h-3.148v-7.68l-4.445 7.68H89.46zm22.475-9.243h-3.412v9.243h-3.169v-9.243h-3.411v-2.267h9.992v2.267zm1.81 9.243v-11.51h3.147v7.68l4.446-7.68h3.147v11.51h-3.147v-7.68l-4.446 7.68h-3.147zM57.855 7.152h-3.411v9.243h-3.17V7.152h-3.41V4.886h9.99v2.266zm1.92-2.266h3.192V6.69c.337-.601.828-1.093 1.474-1.474a4.196 4.196 0 012.2-.594c1.453 0 2.642.506 3.566 1.518.968 1.056 1.452 2.516 1.452 4.38v.176c0 1.848-.476 3.308-1.43 4.379-.91 1.042-2.105 1.563-3.587 1.563-.851 0-1.6-.184-2.245-.55-.646-.382-1.122-.866-1.43-1.453v5.678h-3.192V4.886zm5.92 9.265c.88 0 1.556-.286 2.025-.859.47-.586.704-1.445.704-2.574v-.177c0-1.144-.25-2.01-.748-2.596-.499-.587-1.166-.88-2.003-.88-.865 0-1.555.3-2.068.902-.5.587-.748 1.445-.748 2.574v.177c0 1.13.249 1.988.748 2.574.498.573 1.195.859 2.09.859zm13.463.066c.895 0 1.584-.308 2.068-.925.5-.616.749-1.474.749-2.574v-.155c0-1.1-.25-1.958-.749-2.574-.484-.631-1.173-.947-2.068-.947-.88 0-1.57.308-2.069.925-.499.601-.748 1.452-.748 2.553v.176c0 1.115.242 1.98.726 2.596.484.617 1.181.925 2.09.925zm-.022 2.42c-1.76 0-3.199-.535-4.314-1.606-1.159-1.071-1.738-2.494-1.738-4.27v-.175c0-1.776.58-3.22 1.738-4.336 1.13-1.086 2.575-1.628 4.336-1.628 1.775 0 3.22.535 4.335 1.606 1.145 1.115 1.717 2.546 1.717 4.292v.176c0 1.775-.58 3.22-1.739 4.335-1.115 1.071-2.56 1.606-4.335 1.606zM94.898 2.355c-.602.572-1.401.858-2.399.858-.997 0-1.79-.286-2.376-.858-.587-.587-.918-1.372-.99-2.355h2.288c.088.88.447 1.32 1.078 1.32.69 0 1.086-.44 1.189-1.32h2.244c-.073.983-.418 1.768-1.034 2.355zm-7.68 14.04V4.885h3.147v7.681l4.445-7.68h3.147v11.51H94.81V8.714l-4.445 7.68h-3.147zM1.159 49.985h11.583v11.583H1.159zm0 16.216h11.583v11.583H1.159zm32.431 0h11.583v11.583H33.59zM1.159 82.417h11.583V94H1.159zm32.431 0h11.583V94H33.59zm39.381 0h11.583V94H72.971zm0-46.33h11.583V47.67H72.971zm13.9 0h37.065V47.67H86.871z" fill="#fff"/><path fill="#fff" d="M86.871 47.669h11.583V94H86.871zm25.482 34.748h11.583V94h-11.583zM0 4.813h45.173v11.582H0V4.813zm12.162 11.582c8.557 19.873 16.13 26.602 32.432 34.17v11.582C19.108 51.825 8.987 42.143 0 16.395h12.162zm27.219 4.634h45.173v11.583H39.381V21.029z"/><path d="M51.543 32.612C60.1 52.484 67.673 59.214 83.975 66.78v11.583C58.49 68.04 48.37 58.359 39.381 32.612h12.162z" fill="#fff"/></svg>