<svg width="61" height="61" fill="none" xmlns="http://www.w3.org/2000/svg"><path d="M58.12 44.216c-1.862-1.861-4.383-2.858-7.05-2.87L27.056 17.33a13.723 13.723 0 00-3.567-13.305C19.85.362 14.398-1.223 8.046 1.095l8.802 8.802-1.165 5.8-5.8 1.165L1.081 8.06C-1.224 14.352.35 19.863 3.987 23.502a13.75 13.75 0 0013.305 3.566l24.016 24.016a9.844 9.844 0 002.87 7.05c4.035 4.034 10.34 3.578 13.93 0 3.854-3.831 3.854-10.075.012-13.918zm-1.393 12.536a7.885 7.885 0 01-11.144 0c-2.738-2.738-2.257-6.436-2.257-6.436l-25.47-25.481c-4.527 1.705-9.354.396-12.476-2.726a11.808 11.808 0 01-3.302-10.267L9.235 19l8.117-1.621 1.621-8.118-7.156-7.156a11.739 11.739 0 0110.266 3.302c3.122 3.122 4.42 8.13 2.726 12.476l25.47 25.47s3.662-.517 6.436 2.257a7.874 7.874 0 01.012 11.143z" fill="url(#paint0_linear)"/><path d="M54.637 47.698a4.928 4.928 0 00-6.964 0 4.928 4.928 0 000 6.965c2.293 2.294 5.415 1.549 6.964 0a4.928 4.928 0 000-6.965zm-1.393 5.572c-1.116 1.117-3.062 1.117-4.178 0a2.957 2.957 0 010-4.179c1.597-1.597 3.602-.576 4.178 0a2.957 2.957 0 010 4.179z" fill="url(#paint1_linear)"/><path d="M30.48 29.114l-1.393 1.392 1.392 1.393 1.393-1.393-1.393-1.392z" fill="url(#paint2_linear)"/><path d="M33.272 31.895l-1.393 1.392 1.393 1.393 1.392-1.393-1.392-1.392z" fill="url(#paint3_linear)"/><path d="M27.702 26.32l-1.392 1.392 1.392 1.393 1.393-1.393-1.393-1.392z" fill="url(#paint4_linear)"/><defs><linearGradient id="paint0_linear" x1="0" y1=".009" x2="61.681" y2=".706" gradientUnits="userSpaceOnUse"><stop stop-color="#FFDA0B"/><stop offset="1" stop-color="#FFAD33"/></linearGradient><linearGradient id="paint1_linear" x1="46.232" y1="46.257" x2="56.188" y2="46.37" gradientUnits="userSpaceOnUse"><stop stop-color="#FFDA0B"/><stop offset="1" stop-color="#FFAD33"/></linearGradient><linearGradient id="paint2_linear" x1="29.087" y1="30.506" x2="30.511" y2="29.114" gradientUnits="userSpaceOnUse"><stop stop-color="#FFDA0B"/><stop offset="1" stop-color="#FFAD33"/></linearGradient><linearGradient id="paint3_linear" x1="31.879" y1="33.287" x2="33.303" y2="31.895" gradientUnits="userSpaceOnUse"><stop stop-color="#FFDA0B"/><stop offset="1" stop-color="#FFAD33"/></linearGradient><linearGradient id="paint4_linear" x1="26.31" y1="27.712" x2="27.734" y2="26.32" gradientUnits="userSpaceOnUse"><stop stop-color="#FFDA0B"/><stop offset="1" stop-color="#FFAD33"/></linearGradient></defs></svg>