<svg width="53" height="76" fill="none" xmlns="http://www.w3.org/2000/svg"><path d="M38.569 75.844c-1.24.025-2.244-.983-2.248-2.226v-3.951H16.679v3.951h.114a2.247 2.247 0 01-2.243 2.251c-.011 0-.022 0-.033-.025H8.51c-1.239.025-2.243-.983-2.119-2.226v-3.404H3.776c-1.632.018-2.955-1.31-2.84-2.947v-9.186a5.96 5.96 0 011.674-4.368A4.524 4.524 0 01.022 49.62 1.08 1.08 0 011.1 48.538a1.08 1.08 0 011.08 1.082 2.367 2.367 0 002.12 2.347l2.785-12.052c.549-2.411 2.701-4.11 5.166-3.182H40.77c2.457-.909 4.595.79 5.145 3.193l2.804 12.039a2.367 2.367 0 002.103-2.345 1.08 1.08 0 011.079-1.082 1.08 1.08 0 011.078 1.082 4.524 4.524 0 01-2.587 4.093 5.96 5.96 0 011.674 4.368v9.186c.115 1.638-1.208 2.965-2.84 2.947h-2.46v3.404a2.132 2.132 0 01-2.189 2.226H38.57zm11.47-17.763c-.017-1.697-1.044-3.154-44.586-3.783a4.174 4.174 0 00-2.491 3.783v9.186c.015.443.372.8.813-.134h45.45c.44.935.798.577.813.134v-9.186zM22.616 1.754A5.438 5.438 0 0126.5.131c3.052 0 5.527 2.478 5.456 5.54v2.034a8.078 8.078 0 012.849 6.21c-.029.573-.497 1.023-1.068 1.285H19.263c-.596-.257-1.079-.741-1.079-1.339a8.172 8.172 0 012.86-6.221V5.67c-.067-1.473.521-2.887 1.573-3.916zm13.59 30.209a1.08 1.08 0 01-1.079-1.082v-1.082a1.08 1.08 0 011.079-1.082 1.08 1.08 0 011.078 1.082v1.082a1.08 1.08 0 01-1.078 1.082zm-12.943 0a1.08 1.08 0 01-1.078-1.082v-1.082a1.08 1.08 0 011.078-1.082 1.08 1.08 0 011.079 1.082v1.082a1.08 1.08 0 01-1.079 1.082zm5.393-7.239a1.08 1.08 0 011.079-1.082 1.08 1.08 0 011.078 1.082v1.082a1.08 1.08 0 01-1.078 1.082 1.08 1.08 0 01-1.079-1.082v-1.082zm-4.314-5.117v1.081a1.08 1.08 0 01-1.079 1.082 1.08 1.08 0 01-1.078-1.082v-1.081a1.08 1.08 0 011.078-1.082 1.08 1.08 0 011.079 1.082zm12.942 0v1.081a1.08 1.08 0 01-1.078 1.082 1.08 1.08 0 01-1.079-1.082v-1.081a1.08 1.08 0 011.079-1.082 1.08 1.08 0 011.078 1.082zm-21.57 5.117a1.08 1.08 0 011.078-1.082 1.08 1.08 0 011.079 1.082v1.082a1.08 1.08 0 01-1.079 1.082 1.08 1.08 0 01-1.078-1.082v-1.082zm21.57 1.082a1.08 1.08 0 01-1.078 1.082 1.08 1.08 0 01-1.079-1.082v-1.082a1.08 1.08 0 011.079-1.082 1.08 1.08 0 011.078 1.082v1.082zm-26.187 30.48a4.083 4.083 0 014.077 4.09c0 .34 0 .68 0 0a4.094 4.094 0 01-4.077 4.089 4.083 4.083 0 01-4.076-4.09 4.083 4.083 0 014.076-4.09zm13.245-30.48a1.08 1.08 0 01-1.079 1.082 1.08 1.08 0 01-1.078-1.082v-1.082a1.08 1.08 0 011.078-1.082 1.08 1.08 0 011.079 1.082v1.082zm-8.628-5.118v-1.081a1.08 1.08 0 011.078-1.082 1.08 1.08 0 011.079 1.082v1.081a1.08 1.08 0 01-1.079 1.082 1.08 1.08 0 01-1.078-1.082zm14.02 8.029a1.08 1.08 0 011.08 1.082v1.082a1.08 1.08 0 01-1.08 1.082 1.08 1.08 0 01-1.078-1.082v-1.082a1.08 1.08 0 011.079-1.082zm-1.078-8.029v-1.081a1.08 1.08 0 011.079-1.082 1.08 1.08 0 011.078 1.082v1.081a1.08 1.08 0 01-1.078 1.082 1.08 1.08 0 01-1.079-1.082zm-11.864 8.029a1.08 1.08 0 011.079 1.082v1.082a1.08 1.08 0 01-1.079 1.082 1.08 1.08 0 01-1.078-1.082v-1.082a1.08 1.08 0 011.078-1.082zm9.729-26.42a3.36 3.36 0 00-2.384.993c-.644.622-1.004 1.484-.912 2.38v2.478c-.081.335-.236.65-.5.855-1.204.93-2.02 2.276-2.287 3.664H32.56c-.259-1.383-1.067-2.726-2.265-3.653-.26-.206-.411-.522-.523-.855V5.671c.112-1.864-1.394-3.374-3.252-3.374zm11.98 71.321c-.02.048.02.087.067.036h6.007c.046.046.082.01.006-.036V70.37h-6.08v3.248zM6.535 51.923c.182-.01.366-.012.552.01h38.828c.183-.022.364-.02.543-.01l-2.7-11.51A3.108 3.108 0 0040.769 38H12.252a3.098 3.098 0 00-3.009 2.413l-2.71 11.51zM8.51 73.654h6.007c.048.051.087.012-.02-.036V70.37h-6.08v3.248c.011.046.047.082.093.036zM7.086 53.2c-.58.754-1.132.878-1.633 1.098 41.582-.223 41.035-.344 40.46-1.098H7.087zm39.076 7.121v.054a4.267 4.267 0 01-4.315 4.274 4.321 4.321 0 01-4.314-4.328 4.321 4.321 0 014.314-4.328 4.321 4.321 0 014.315 4.328zm-26.133 3.325c-.927.1-1.675-.654-1.675-1.583 0-.196.034-.39.1-.573l1.176-3.246c.25-.654.877-1.084 1.574-1.01H31.43c.698-.074 1.324.356 1.575 1.01l1.175 3.246a1.693 1.693 0 01-.13 1.536c-.315.463-.842.735-1.401.62h-12.62zm-8.93-5.197c-1.06 0-1.92.863-1.92 1.926 0 1.064.86 1.926 1.92 1.926s1.92-.862 1.92-1.926a1.934 1.934 0 00-1.92-1.926zm4.076 1.926c0-.34 0-.681 0 0zm28.83.054a2.16 2.16 0 00-2.158-2.164 2.16 2.16 0 00-2.157 2.163 2.16 2.16 0 002.157 2.165 2.16 2.16 0 002.158-2.164zm-12.048 1.028l-.82-2.033h-9.555l-.798 2.033h11.173z" fill="url(#paint0_linear)"/><defs><linearGradient id="paint0_linear" x1=".022" y1=".131" x2="53.572" y2=".554" gradientUnits="userSpaceOnUse"><stop stop-color="#FFDA0B"/><stop offset="1" stop-color="#FFAD33"/></linearGradient></defs></svg>