<svg width="71" height="70" fill="none" xmlns="http://www.w3.org/2000/svg"><path d="M71 35C70.978 15.68 55.097.022 35.5 0 15.894 0 0 15.67 0 35s15.894 35 35.5 35S71 54.33 71 35zm-2.396 1.167a32.062 32.062 0 01-1.253 7.81l-2.224-.713-.732 2.216 2.233.715a32.486 32.486 0 01-3.652 7.04l-1.893-1.353-1.392 1.887 1.879 1.347a33.226 33.226 0 01-5.663 5.592l-1.366-1.853-1.915 1.372L54 62.094a33.295 33.295 0 01-7.139 3.595l-.725-2.201-2.249.722.723 2.192a33.389 33.389 0 01-7.926 1.236v-2.305h-2.366v2.305a33.382 33.382 0 01-7.922-1.236l.723-2.192-2.248-.722-.73 2.201a33.303 33.303 0 01-7.14-3.6l1.372-1.867-1.914-1.372-1.366 1.853a33.22 33.22 0 01-5.668-5.589l1.88-1.346-1.392-1.888-1.894 1.354a32.476 32.476 0 01-3.64-7.034l2.233-.715-.732-2.217-2.224.713a32.07 32.07 0 01-1.259-7.814h2.337v-2.334H2.396a32.064 32.064 0 011.253-7.81l2.224.713.732-2.216-2.227-.72a32.49 32.49 0 013.652-7.04l1.893 1.354 1.392-1.888-1.89-1.345a33.221 33.221 0 015.668-5.588l1.366 1.852 1.915-1.372L17 7.907a33.294 33.294 0 017.139-3.59l.725 2.201 2.249-.722-.723-2.192a33.388 33.388 0 017.926-1.242v2.305h2.366V2.363c2.682.092 5.342.507 7.922 1.235l-.723 2.192 2.248.722.73-2.195c2.52.91 4.917 2.12 7.14 3.6l-1.372 1.867 1.914 1.372 1.366-1.853a33.219 33.219 0 015.668 5.588l-1.88 1.347 1.392 1.887 1.894-1.353a32.48 32.48 0 013.646 7.028l-2.233.715.732 2.217 2.224-.713a32.07 32.07 0 011.253 7.814h-2.337v2.334h2.337z" fill="url(#paint0_linear)"/><path d="M58.316 35c0 12.403-10.201 22.481-22.816 22.481-12.615 0-22.816-10.078-22.816-22.48 0-12.403 10.201-22.482 22.816-22.482 12.615 0 22.816 10.079 22.816 22.481z" stroke="url(#paint1_linear)" stroke-width="2"/><path d="M53.025 34.557c-.01-9.294-7.65-16.825-17.075-16.835-9.431 0-17.077 7.537-17.077 16.835 0 9.298 7.646 16.835 17.076 16.835 9.431 0 17.076-7.537 17.076-16.835zm-8.94-3.565l4.78-4.044a14.582 14.582 0 012.083 6.282l-6.29-.501a.995.995 0 01-.918-1.07.986.986 0 01.346-.667zm-11.49-10.906a14.83 14.83 0 016.708 0l-2.426 5.744a1.01 1.01 0 01-1.855 0l-2.426-5.744zM20.95 33.232a14.584 14.584 0 012.083-6.284l4.78 4.044a.98.98 0 01.11 1.396 1.01 1.01 0 01-.682.343l-6.291.501zm10.422 8.18a.978.978 0 01.12.745l-1.459 6.059a15.128 15.128 0 01-5.415-3.9h-.003l5.376-3.234a1.013 1.013 0 011.38.33zm15.906 2.904a15.13 15.13 0 01-5.412 3.9h-.003l-1.462-6.06a.99.99 0 01.745-1.192c.258-.06.53-.018.756.118l5.376 3.234zm1.238-1.579l-5.565-3.346c-1.421-.855-3.275-.412-4.142.988a2.936 2.936 0 00-.36 2.236l1.507 6.247c-2.62.733-5.395.733-8.015 0h-.002l1.506-6.247c.385-1.596-.615-3.198-2.234-3.577a3.05 3.05 0 00-2.267.354l-5.558 3.345a14.613 14.613 0 01-2.47-7.518l6.488-.516c1.658-.135 2.893-1.569 2.756-3.204a2.957 2.957 0 00-1.04-2.012l-4.943-4.18a15.109 15.109 0 016.484-4.643l2.503 5.925c.64 1.515 2.404 2.231 3.94 1.6a2.992 2.992 0 001.624-1.6l2.504-5.925a15.116 15.116 0 016.484 4.643l-4.936 4.18a2.942 2.942 0 00-.325 4.189 3.029 3.029 0 002.044 1.027l6.486.516a14.613 14.613 0 01-2.469 7.518z" fill="url(#paint2_linear)"/><defs><linearGradient id="paint0_linear" x1="0" y1="0" x2="71.792" y2=".822" gradientUnits="userSpaceOnUse"><stop stop-color="#FFDA0B"/><stop offset="1" stop-color="#FFAD33"/></linearGradient><linearGradient id="paint1_linear" x1="11.684" y1="11.519" x2="59.848" y2="12.07" gradientUnits="userSpaceOnUse"><stop stop-color="#FFDA0B"/><stop offset="1" stop-color="#FFAD33"/></linearGradient><linearGradient id="paint2_linear" x1="18.873" y1="17.722" x2="53.406" y2="18.117" gradientUnits="userSpaceOnUse"><stop stop-color="#FFDA0B"/><stop offset="1" stop-color="#FFAD33"/></linearGradient></defs></svg>