<svg width="71" height="71" fill="none" xmlns="http://www.w3.org/2000/svg"><g clip-path="url(#clip0)"><path d="M35.736 50.768c8.417 0 15.24-6.824 15.24-15.24 0-8.417-6.823-15.24-15.24-15.24s-15.24 6.823-15.24 15.24c0 8.416 6.823 15.24 15.24 15.24z" fill="url(#paint0_linear)"/><path d="M17.667 14.27a4.646 4.646 0 11-9.292-.001 4.646 4.646 0 019.292 0zM35.472 1.04a4.646 4.646 0 104.646 4.646 4.655 4.655 0 00-4.646-4.646zm0 59.643a4.646 4.646 0 104.646 4.645c-.014-2.565-2.094-4.645-4.646-4.645zm22.992-51.06a4.646 4.646 0 100 9.292 4.646 4.646 0 000-9.291zM13.021 52.017a4.646 4.646 0 100 9.291 4.646 4.646 0 000-9.291zm45.443 0a4.646 4.646 0 100 9.291 4.646 4.646 0 000-9.291zM69.932 35.5a4.646 4.646 0 10-9.291 0 4.646 4.646 0 009.291 0zm-59.643 0a4.646 4.646 0 10-9.291 0 4.646 4.646 0 009.291 0z" fill="url(#paint1_linear)"/><path d="M35.846 19.262c-8.972 0-16.28 7.308-16.28 16.28 0 8.972 7.308 16.28 16.28 16.28 8.972 0 16.28-7.308 16.28-16.294s-7.308-16.266-16.28-16.266zm-5.755 3.286a12.86 12.86 0 00-1.095 1.706c-.292.54-.569 1.11-.819 1.705a14.468 14.468 0 01-1.594-1.192 14.872 14.872 0 013.508-2.219zm-4.978 3.703c.735.651 1.525 1.22 2.343 1.72-.596 1.996-.956 4.215-1.04 6.517h-4.742a14.219 14.219 0 013.439-8.237zm-3.425 10.317h4.742c.083 2.482.5 4.867 1.179 6.989a17.36 17.36 0 00-2.219 1.567 14.06 14.06 0 01-3.702-8.556zm5.228 9.998a12.88 12.88 0 011.442-1.026c.194.444.402.873.638 1.276.346.624.707 1.192 1.095 1.705a14.935 14.935 0 01-3.175-1.955zm7.89 3.023c-1.817-.527-3.44-2.371-4.59-5.02a14.022 14.022 0 014.59-1.123v6.143zm0-8.223c-1.844.11-3.633.54-5.311 1.248a23.962 23.962 0 01-.999-6.046h6.31v4.798zm0-6.864h-6.31c.084-1.983.375-3.856.846-5.547a15.85 15.85 0 005.45 1.303l.014 4.244zm0-6.324a14.053 14.053 0 01-4.784-1.206c1.15-2.885 2.87-4.937 4.784-5.492v6.698zm15.198 6.324h-4.742c-.083-2.302-.43-4.521-1.04-6.518a16.73 16.73 0 002.343-1.72 13.968 13.968 0 013.44 8.238zM45.11 24.78c-.499.43-1.04.832-1.595 1.192a19.414 19.414 0 00-.818-1.705 14.438 14.438 0 00-1.095-1.706 14.032 14.032 0 013.508 2.219zm-8.223-3.3c1.927.554 3.633 2.592 4.784 5.49a14.134 14.134 0 01-4.784 1.207V21.48zm0 8.777c1.9-.125 3.744-.568 5.45-1.303.471 1.692.776 3.564.846 5.547h-6.296v-4.244zm0 6.31h6.31a23.962 23.962 0 01-.999 6.046 16.156 16.156 0 00-5.311-1.248v-4.798zm0 13.021v-6.143c1.595.11 3.148.5 4.59 1.123-1.15 2.635-2.773 4.493-4.59 5.02zm4.715-1.068a12.87 12.87 0 001.095-1.705c.222-.403.43-.832.638-1.276.5.305.985.652 1.442 1.026a14.933 14.933 0 01-3.175 1.955zm4.7-3.383a16.43 16.43 0 00-2.218-1.567c.693-2.122 1.096-4.507 1.179-6.99h4.742c-.235 3.287-1.594 6.255-3.702 8.557zM13.063 19.955a5.62 5.62 0 003.231-1.012L20.8 23.24l1.428-1.497-4.479-4.285a5.637 5.637 0 00.985-3.19 5.693 5.693 0 00-5.686-5.685 5.693 5.693 0 00-5.685 5.685c0 3.134 2.565 5.686 5.7 5.686zm0-9.291a3.616 3.616 0 013.606 3.605 3.616 3.616 0 01-3.606 3.606 3.616 3.616 0 01-3.605-3.606 3.607 3.607 0 013.605-3.605zm21.397.596v4.881h2.08v-4.88c2.635-.486 4.646-2.802 4.646-5.575A5.693 5.693 0 0035.499 0a5.693 5.693 0 00-5.685 5.686c0 2.773 2.01 5.089 4.645 5.574zm1.04-9.18a3.616 3.616 0 013.606 3.606A3.616 3.616 0 0135.5 9.291a3.616 3.616 0 01-3.605-3.605A3.616 3.616 0 0135.5 2.08zm1.04 57.66v-4.812h-2.08v4.812a5.689 5.689 0 00-4.645 5.588 5.693 5.693 0 005.685 5.686 5.693 5.693 0 005.686-5.686 5.689 5.689 0 00-4.646-5.588zm-1.04 9.18a3.616 3.616 0 01-3.605-3.606 3.616 3.616 0 013.605-3.605 3.616 3.616 0 013.606 3.605A3.607 3.607 0 0135.5 68.92zm22.992-17.944a5.63 5.63 0 00-3.924 1.58l-4.285-4.09-1.429 1.498 4.493 4.284a5.571 5.571 0 00-.527 2.4 5.693 5.693 0 005.686 5.685 5.693 5.693 0 005.685-5.685c-.013-3.12-2.565-5.672-5.699-5.672zm0 9.29a3.616 3.616 0 01-3.605-3.605 3.616 3.616 0 013.605-3.605 3.616 3.616 0 013.605 3.605 3.607 3.607 0 01-3.605 3.606zm6.823-30.451c-2.704 0-4.965 1.9-5.547 4.437h-4.535v2.08h4.465a5.69 5.69 0 005.617 4.853A5.693 5.693 0 0071 35.5a5.693 5.693 0 00-5.685-5.686zm0 9.29a3.616 3.616 0 01-3.606-3.605 3.616 3.616 0 013.606-3.605A3.616 3.616 0 0168.92 35.5a3.607 3.607 0 01-3.605 3.605zM11.3 36.332h5.159v-2.08h-5.242a5.694 5.694 0 00-5.547-4.438A5.693 5.693 0 00-.015 35.5a5.693 5.693 0 005.686 5.685 5.704 5.704 0 005.63-4.853zm-5.616 2.773A3.616 3.616 0 012.079 35.5a3.616 3.616 0 013.606-3.605A3.616 3.616 0 019.29 35.5c-.014 1.983-1.622 3.605-3.605 3.605zm15.392 9.028l-4.382 4.174a5.69 5.69 0 00-3.633-1.317 5.693 5.693 0 00-5.685 5.685 5.693 5.693 0 005.685 5.686 5.693 5.693 0 005.686-5.686c0-.998-.264-1.941-.707-2.745l4.479-4.272-1.443-1.525zm-8.015 12.134a3.616 3.616 0 01-3.605-3.606 3.616 3.616 0 013.605-3.605 3.616 3.616 0 013.606 3.605c-.014 1.983-1.623 3.606-3.606 3.606zm37.51-37.386l4.383-4.174a5.668 5.668 0 003.55 1.248 5.693 5.693 0 005.685-5.686 5.693 5.693 0 00-5.685-5.685 5.693 5.693 0 00-5.686 5.685c0 1.04.278 2.025.777 2.857l-4.451 4.257 1.428 1.498zm7.92-12.217a3.616 3.616 0 013.605 3.605 3.616 3.616 0 01-3.606 3.606 3.616 3.616 0 01-3.605-3.606 3.616 3.616 0 013.605-3.605z" fill="url(#paint2_linear)"/></g><defs><linearGradient id="paint0_linear" x1="35.742" y1="20.297" x2="35.742" y2="50.774" gradientUnits="userSpaceOnUse"><stop offset="0" stop-color="#96D1F3"/><stop offset="1" stop-color="#CCFFF4"/></linearGradient><linearGradient id="paint1_linear" x1="35.465" y1="1.041" x2="35.465" y2="69.961" gradientUnits="userSpaceOnUse"><stop offset="0" stop-color="#A8ABFF"/><stop offset="1" stop-color="#FAC8FF"/></linearGradient><linearGradient id="paint2_linear" x1="35.498" y1=".002" x2="35.498" y2="71" gradientUnits="userSpaceOnUse"><stop offset="0" stop-color="#174FA3"/><stop offset="1" stop-color="#B044AF"/></linearGradient><clipPath id="clip0"><path fill="#fff" d="M0 0h71v71H0z"/></clipPath></defs></svg>