<svg width="71" height="71" fill="none" xmlns="http://www.w3.org/2000/svg"><path d="M59.116 49.52v-6.352l-5.062-1.802-1.913-4.632 2.302-4.853-4.493-4.493-4.854 2.302-4.631-1.914-1.803-5.062H32.31l-1.802 5.062-4.632 1.914-4.853-2.302-4.493 4.493 2.302 4.853-1.914 4.632-5.062 1.803v6.35l5.062 1.803 1.914 4.632-2.302 4.854 4.493 4.492 4.853-2.3 4.632 1.913 1.802 5.062h6.352l1.803-5.062L45.096 63l4.854 2.3 4.493-4.492-2.302-4.854 1.913-4.632 5.062-1.802zM35.5 58.838c-6.906 0-12.508-5.602-12.508-12.508 0-6.906 5.602-12.494 12.508-12.494 6.906 0 12.508 5.602 12.508 12.508 0 6.906-5.602 12.494-12.508 12.494z" fill="url(#paint0_linear)"/><path d="M24.378 23.27c0-11.58 4.979-22.23 11.122-22.23-13.812 0-25.016 10.65-25.016 22.23 0-2.303 3.106-4.175 6.947-4.175 3.841.014 6.947 1.872 6.947 4.174z" fill="url(#paint1_linear)"/><path d="M35.5 1.04c6.143 0 11.121 10.65 11.121 22.23 0-2.303 3.107-4.175 6.948-4.175s6.947 1.872 6.947 4.174C60.516 11.69 49.312 1.04 35.5 1.04z" fill="url(#paint2_linear)"/><path d="M45.914 58.839H25.086L35.5 39.397l10.414 19.442z" fill="url(#paint3_linear)"/><path d="M46.621 23.27c0-11.58-4.978-22.23-11.121-22.23-6.143 0-11.122 10.65-11.122 22.23 0-2.303 4.979-5.007 11.122-5.007s11.121 2.704 11.121 5.006z" fill="#fff"/><path d="M53.278 36.762l2.427-5.09-5.533-5.532-5.09 2.426L41.31 27l-1.886-5.31H31.59L29.704 27l-3.771 1.567-5.09-2.426-5.533 5.533 2.427 5.089-1.567 3.772-5.311 1.886v7.835l5.311 1.886 1.567 3.772-2.44 5.103 5.532 5.533 5.09-2.427 3.772 1.567L31.576 71h7.834l1.887-5.311 3.771-1.567 5.09 2.427 5.533-5.533-2.427-5.09 1.567-3.772 5.311-1.885v-7.835l-5.311-1.886-1.553-3.786zm4.798 12.023l-4.798 1.705-2.274 5.478 2.19 4.604-3.452 3.453-4.604-2.177-5.478 2.274-1.72 4.798h-4.88l-1.706-4.798-5.492-2.274-4.604 2.19-3.453-3.452 2.192-4.604-2.275-5.478-4.798-1.705v-4.882l4.798-1.705 2.274-5.478-2.19-4.604 3.452-3.453 4.604 2.191 5.478-2.274 1.705-4.798h4.882l1.705 4.798 5.478 2.274 4.604-2.19 3.453 3.452-2.191 4.604 2.274 5.478 4.798 1.705v4.868h.028zm3.48-25.654c-.041-5.839-2.828-11.704-7.668-16.086C48.882 2.496 42.35 0 35.5 0c-6.85 0-13.382 2.496-18.388 7.045-4.84 4.395-7.627 10.247-7.668 16.086v.138h2.08c0-1.484 2.426-3.12 5.907-3.12 3.48 0 5.907 1.65 5.907 3.12h2.08c0-.554.833-1.553 2.663-2.427 2.038-.97 4.743-1.539 7.405-1.539 2.663 0 5.367.555 7.405 1.54 1.83.873 2.663 1.872 2.663 2.426h2.08c0-1.484 2.426-3.12 5.907-3.12 3.48 0 5.908 1.65 5.908 3.12h2.08l.027-.138zm-38.065-3.287c-1.456-1.096-3.605-1.775-6.046-1.775-2.136 0-4.05.527-5.478 1.387 1.79-7.96 9-14.658 17.847-16.71-1.137 1.178-2.19 2.732-3.106 4.617-1.72 3.481-2.843 7.905-3.217 12.48zm20.315-.874c-2.343-1.123-5.297-1.733-8.306-1.733-3.01 0-5.963.624-8.306 1.733-.61.292-1.151.61-1.623.943.36-4.285 1.414-8.39 3.01-11.634C30.507 4.34 33.017 2.08 35.5 2.08c2.482 0 4.992 2.26 6.92 6.185 1.594 3.245 2.634 7.35 3.009 11.634a12.53 12.53 0 00-1.623-.929zm9.763-.901c-2.44 0-4.59.68-6.046 1.775-.375-4.576-1.512-8.986-3.217-12.48-.93-1.886-1.97-3.44-3.107-4.618 8.848 2.066 16.059 8.75 17.861 16.71-1.442-.874-3.355-1.387-5.491-1.387zm-19.11 28.275h2.081v5.56h-2.08v-5.56zm0 7.641h2.081v2.08h-2.08v-2.08zm1.041-21.19c-7.474 0-13.548 6.075-13.548 13.55a13.46 13.46 0 003.674 9.276l-2.288 4.271h24.323l-2.288-4.285a13.434 13.434 0 003.675-9.277c0-7.46-6.074-13.534-13.548-13.534zm-8.68 25.003l8.68-16.196 8.68 16.196H26.82zm17.5-4.146L35.5 37.178l-8.82 16.474a11.37 11.37 0 01-2.634-7.322c0-6.323 5.144-11.468 11.468-11.468 6.323 0 11.468 5.145 11.468 11.468-.014 2.718-.943 5.27-2.663 7.322z" fill="url(#paint4_linear)"/><defs><linearGradient id="paint0_linear" x1="35.502" y1="22.715" x2="35.502" y2="69.958" gradientUnits="userSpaceOnUse"><stop offset="0" stop-color="#96D1F3"/><stop offset="1" stop-color="#CCFFF4"/></linearGradient><linearGradient id="paint1_linear" x1="22.996" y1="1.039" x2="22.996" y2="23.271" gradientUnits="userSpaceOnUse"><stop offset="0" stop-color="#A8ABFF"/><stop offset="1" stop-color="#FAC8FF"/></linearGradient><linearGradient id="paint2_linear" x1="48.007" y1="1.039" x2="48.007" y2="23.271" gradientUnits="userSpaceOnUse"><stop offset="0" stop-color="#A8ABFF"/><stop offset="1" stop-color="#FAC8FF"/></linearGradient><linearGradient id="paint3_linear" x1="35.502" y1="39.389" x2="35.502" y2="58.842" gradientUnits="userSpaceOnUse"><stop offset="0" stop-color="#A8ABFF"/><stop offset="1" stop-color="#FAC8FF"/></linearGradient><linearGradient id="paint4_linear" x1="35.502" y1="-.003" x2="35.502" y2="71" gradientUnits="userSpaceOnUse"><stop offset="0" stop-color="#174FA3"/><stop offset="1" stop-color="#B044AF"/></linearGradient></defs></svg>