<svg width="71" height="71" fill="none" xmlns="http://www.w3.org/2000/svg"><g clip-path="url(#clip0)"><path d="M50.782 1.04H10.484v36.956h50.019V10.775L50.782 1.04z" fill="#fff"/><path d="M60.517 69.96H10.483a4.178 4.178 0 01-4.174-4.174v-31.95a4.178 4.178 0 014.174-4.174h14.033c1.581 0 3.107.54 4.34 1.525l6.615 5.297a6.955 6.955 0 004.34 1.526h20.69a4.178 4.178 0 014.175 4.174V65.8a4.163 4.163 0 01-4.16 4.16z" fill="url(#paint0_linear)"/><path d="M35.5 27.998c6.142 0 11.121-4.98 11.121-11.122 0-6.142-4.979-11.121-11.121-11.121s-11.122 4.98-11.122 11.121c0 6.143 4.98 11.122 11.122 11.122z" fill="url(#paint1_linear)"/><path d="M60.517 10.775h-9.721V1.04l9.72 9.735z" fill="url(#paint2_linear)"/><path d="M61.556 37.067V10.331L51.212 0H9.444v28.733a5.208 5.208 0 00-4.16 5.103V65.8a5.226 5.226 0 005.214 5.214h50.019A5.226 5.226 0 0065.73 65.8V42.17a5.234 5.234 0 00-4.174-5.103zM51.822 3.564l6.17 6.17h-6.17v-6.17zM11.537 2.08h38.205v9.721h9.72v25.155h-19.65a5.94 5.94 0 01-3.688-1.29L29.51 30.37a8.07 8.07 0 00-4.992-1.747h-12.98V2.08zm52.1 63.706c0 1.72-1.401 3.12-3.12 3.12H10.483c-1.72 0-3.12-1.4-3.12-3.12v-31.95c0-1.72 1.4-3.12 3.12-3.12h14.033c1.332 0 2.649.457 3.689 1.29l6.615 5.297a8.069 8.069 0 004.992 1.747h20.69c1.72 0 3.12 1.4 3.12 3.12v23.616h.014zM35.5 29.038c6.698 0 12.162-5.45 12.162-12.162 0-6.711-5.464-12.147-12.162-12.147s-12.162 5.45-12.162 12.161c0 6.712 5.464 12.148 12.162 12.148zm0-22.23c5.56 0 10.068 4.521 10.068 10.068S41.047 26.944 35.5 26.944s-10.067-4.52-10.067-10.068c0-5.547 4.506-10.067 10.067-10.067zm-2.496 16.683l-5.186-5.186 1.47-1.47 3.702 3.702 8.154-8.154 1.47 1.47-9.61 9.638z" fill="url(#paint3_linear)"/></g><defs><linearGradient id="paint0_linear" x1="35.502" y1="29.663" x2="35.502" y2="69.958" gradientUnits="userSpaceOnUse"><stop offset="0" stop-color="#96D1F3"/><stop offset="1" stop-color="#CCFFF4"/></linearGradient><linearGradient id="paint1_linear" x1="35.502" y1="5.763" x2="35.502" y2="27.995" gradientUnits="userSpaceOnUse"><stop offset="0" stop-color="#A8ABFF"/><stop offset="1" stop-color="#FAC8FF"/></linearGradient><linearGradient id="paint2_linear" x1="55.649" y1="1.039" x2="55.649" y2="10.765" gradientUnits="userSpaceOnUse"><stop offset="0" stop-color="#96D1F3"/><stop offset="1" stop-color="#CCFFF4"/></linearGradient><linearGradient id="paint3_linear" x1="35.502" y1="-.003" x2="35.502" y2="71" gradientUnits="userSpaceOnUse"><stop offset="0" stop-color="#174FA3"/><stop offset="1" stop-color="#B044AF"/></linearGradient><clipPath id="clip0"><path fill="#fff" d="M0 0h71v71H0z"/></clipPath></defs></svg>