<svg width="72" height="71" fill="none" xmlns="http://www.w3.org/2000/svg"><path d="M58.669 37.47l-3.727.748-10.069-3.827H30.952l-13.894 3.84-2.616-.526-3.417 17.25 5.794.75.323.124a2.716 2.716 0 00.113 3.744 2.786 2.786 0 003.91 0l1.588-1.58.084.027a2.705 2.705 0 00.366 3.425 2.786 2.786 0 003.91 0l1.096-1.081c-1.814 2.288 1.435 5.145 3.516 3.092l1.448-1.442.352.139c-.605 2.288 2.25 3.924 3.938 2.246l.52-.513c.028 0 3.375 1.65 6.637-.735l10.786-6.712 6.75-1.22-3.487-17.75z" fill="url(#paint0_linear)"/><path d="M67.177 35.75l-8.508 1.72 3.515 17.75 8.691-1.554-3.698-17.916z" fill="url(#paint1_linear)"/><path d="M4.823 35.75L1.125 53.666l9.9 1.29 3.417-17.251-9.619-1.955z" fill="url(#paint2_linear)"/><path d="M9.577 5.907c-4.711 0-8.522 3.758-8.522 8.404 0 4.645 8.522 13.964 8.522 13.964s8.521-9.319 8.521-13.964c0-4.646-3.81-8.404-8.521-8.404zm0 11.801c-2.222 0-4.022-1.775-4.022-3.966 0-2.19 1.8-3.966 4.022-3.966 2.221 0 4.021 1.775 4.021 3.966 0 2.191-1.8 3.966-4.021 3.966z" fill="url(#paint3_linear)"/><path d="M62.423 5.907c-4.71 0-8.521 3.758-8.521 8.404 0 4.645 8.521 13.964 8.521 13.964s8.522-9.319 8.522-13.964c0-4.646-3.825-8.404-8.522-8.404zm0 11.801c-2.221 0-4.022-1.775-4.022-3.966 0-2.19 1.8-3.966 4.022-3.966 2.222 0 4.022 1.775 4.022 3.966 0 2.191-1.814 3.966-4.022 3.966z" fill="url(#paint4_linear)"/><path d="M55.027 37.15l-9.957-3.8H30.53l-.113.111-13.401 3.69L3.98 34.514.014 54.553l15.54 2.039c-1.013 3.48 3.037 6.268 5.976 4.077.703 2.233 3.262 3.273 5.33 2.26.83 2.372 3.867 3.037 5.638 1.276l.17-.166c.927 2.246 3.866 2.8 5.568 1.109l.042-.042a7.858 7.858 0 006.975-1.081l10.59-6.587 15.988-2.94-3.81-19.969-12.994 2.621zM2.517 52.78l3.136-15.795 7.552 1.525-3.024 15.282-7.664-1.012zm16.706 6.559c-1.504 0-2.292-1.83-1.209-2.899 2.292-2.093 2.588-3.023 3.755-3.023 1.519 0 2.292 1.83 1.21 2.899-2.293 2.107-2.602 3.023-3.756 3.023zm7.144 1.386c-1.575 1.567-4.022-.804-2.419-2.399l2.546-2.524c1.49-1.483 3.839.555 2.573 2.22-1.195 1.178-2.151 2.163-2.7 2.703zm7.749-1.081l-3.122 3.092c-1.097 1.082-2.911-.374-1.969-1.664 1.195-1.179-.773.777 3.263-3.259 1.209-1.206 3.037.624 1.828 1.83zm4.289 2.371l-1.688 1.664c-1.21 1.193-3.051-.624-1.828-1.83 1.49-1.346 1.73-2.039 2.602-2.039 1.153 0 1.743 1.387.914 2.205zm5.667.264c-.085.041-1.674 1.372-4.064 1.081 2.32-2.524-.197-6.504-3.516-5.505-.59-2.205-3.192-3.217-5.133-1.983-.773-2.482-3.839-3.467-5.948-1.9a3.8 3.8 0 00-3.642-2.649c-2.363 0-3.206 1.859-4.936 3.315l-4.542-.597 2.995-15.129 1.828.375 10.013-2.774-7.299 6.81.76.762c3.206 3.175 8.339 3.272 11.671.222l1.52-1.4c5.807 6.67 9.646 8.403 19.532 13.617l-9.24 5.755zm11.517-6.92c-11.784-6.13-15.244-7.697-21.6-15.49l-3.178 2.898c-2.222 2.039-5.513 2.191-7.903.527l8.451-7.862h13.303l10.168 3.883 2.98-.61 3.095 15.67-5.316.984zm7.425-1.36l-3.108-15.71 6.427-1.304 3.023 15.85L63.014 54zM9.577 29.829c3.065-3.397 9.576-10.969 9.576-15.517 0-5.214-4.303-9.444-9.576-9.444C4.303 4.867 0 9.097 0 14.311c0 4.548 6.51 12.12 9.577 15.517zm0-22.88c4.12 0 7.467 3.3 7.467 7.363 0 3.134-4.824 9.346-7.467 12.383-2.63-3.037-7.468-9.25-7.468-12.383 0-4.063 3.361-7.364 7.468-7.364zm5.076 6.808c0-2.76-2.278-5.006-5.076-5.006-2.799 0-5.063 2.247-5.063 5.006 0 2.76 2.278 5.006 5.077 5.006 2.798 0 5.062-2.246 5.062-5.006zm-8.03 0c0-1.608 1.322-2.912 2.954-2.912 1.63 0 2.953 1.304 2.953 2.912 0 1.609-1.322 2.912-2.953 2.912-1.632 0-2.954-1.303-2.954-2.912zm55.8 16.072C65.49 26.431 72 18.86 72 14.311c0-5.214-4.303-9.444-9.577-9.444-5.273 0-9.576 4.244-9.576 9.444-.014 4.548 6.51 12.12 9.576 15.517zm0-22.88c4.12 0 7.468 3.3 7.468 7.363 0 3.134-4.824 9.346-7.468 12.383-2.643-3.037-7.467-9.25-7.467-12.383 0-4.063 3.347-7.364 7.467-7.364zm5.063 6.808c0-2.76-2.278-5.006-5.077-5.006-2.798 0-5.076 2.247-5.076 5.006 0 2.76 2.278 5.006 5.076 5.006 2.799 0 5.077-2.246 5.077-5.006zm-8.03 0c0-1.608 1.322-2.912 2.953-2.912 1.632 0 2.953 1.304 2.953 2.912 0 1.609-1.321 2.912-2.953 2.912-1.617 0-2.953-1.303-2.953-2.912zm-4.781 15.42v-2.08h2.11v2.08h-2.11zm-39.6 0v-2.08h2.11v2.08h-2.11zm37.477 0H19.308v-2.08h33.258v2.08h-.014z" fill="url(#paint5_linear)"/><defs><linearGradient id="paint0_linear" x1="36.605" y1="34.387" x2="36.605" y2="65.102" gradientUnits="userSpaceOnUse"><stop offset="0" stop-color="#A8ABFF"/><stop offset="1" stop-color="#FAC8FF"/></linearGradient><linearGradient id="paint1_linear" x1="64.772" y1="35.755" x2="64.772" y2="55.23" gradientUnits="userSpaceOnUse"><stop offset="0" stop-color="#96D1F3"/><stop offset="1" stop-color="#CCFFF4"/></linearGradient><linearGradient id="paint2_linear" x1="7.784" y1="35.755" x2="7.784" y2="54.953" gradientUnits="userSpaceOnUse"><stop offset="0" stop-color="#96D1F3"/><stop offset="1" stop-color="#CCFFF4"/></linearGradient><linearGradient id="paint3_linear" x1="9.582" y1="5.902" x2="9.582" y2="28.273" gradientUnits="userSpaceOnUse"><stop offset="0" stop-color="#A8ABFF"/><stop offset="1" stop-color="#FAC8FF"/></linearGradient><linearGradient id="paint4_linear" x1="62.422" y1="5.902" x2="62.422" y2="28.273" gradientUnits="userSpaceOnUse"><stop offset="0" stop-color="#A8ABFF"/><stop offset="1" stop-color="#FAC8FF"/></linearGradient><linearGradient id="paint5_linear" x1="36.002" y1="4.86" x2="36.002" y2="66.137" gradientUnits="userSpaceOnUse"><stop offset="0" stop-color="#174FA3"/><stop offset="1" stop-color="#B044AF"/></linearGradient></defs></svg>