<svg width="71" height="71" fill="none" xmlns="http://www.w3.org/2000/svg"><path d="M0 39.757h7.627v18.041H0v-18.04zm69.475 5.353a6.645 6.645 0 00-8.612-1.97L47.8 50.27c.042-.208.07-.43.07-.652a3.329 3.329 0 00-3.329-3.328H34.46s-1.58-3.44-2.857-4.34c-6.711-6.13-19.386.512-19.386.512h-4.59v12.647h7.28l25.64 8.113L69.49 45.178l-.014-.069z" fill="#fff"/><path d="M10.54 25.738H7.765a2.773 2.773 0 01-2.774-2.774v-5.547a2.773 2.773 0 012.774-2.773h2.773v11.094z" fill="url(#paint0_linear)"/><path d="M63.262 25.738H60.49V14.644h2.773a2.773 2.773 0 012.773 2.773v5.547a2.764 2.764 0 01-2.773 2.774z" fill="url(#paint1_linear)"/><path d="M54.942 32.671h-3.203c-2.816 0-5.575-.721-8.03-2.08a16.573 16.573 0 00-8.029-2.08h-.319c-2.815 0-5.574.721-8.029 2.08a16.574 16.574 0 01-8.029 2.08H16.1a5.545 5.545 0 01-5.547-5.547V13.257A5.545 5.545 0 0116.1 7.71h38.842a5.545 5.545 0 015.547 5.547v13.867a5.545 5.545 0 01-5.547 5.547z" fill="url(#paint2_linear)"/><path d="M70.32 44.5a7.72 7.72 0 00-9.956-2.288L48.77 48.535a4.362 4.362 0 00-4.243-3.3h-9.43c-.555-1.123-1.72-3.259-2.857-4.105-6.725-6.088-18.43-.652-20.288.277H8.667v-2.69H0v2.08h6.587v15.961H0v2.08h8.667v-2.704h6.088l25.945 8.21L71 45.457l-.68-.957zM40.423 62.07l-25.336-8.016h-6.42V43.501h3.8l.221-.124c.125-.07 12.106-6.24 18.194-.666.014.014.125.097.111.083 1.123.79 2.774 4.507 2.788 4.52h10.747a2.29 2.29 0 012.288 2.289 2.29 2.29 0 01-2.288 2.288H30.383v2.08h14.158a4.38 4.38 0 004.16-3.023l12.675-6.906a5.613 5.613 0 016.573.874L40.423 62.07zM7.766 26.778h1.733v.346a6.593 6.593 0 006.587 6.587c1.928-.166 6.462.721 11.745-2.219 4.701-2.607 10.664-2.607 15.365 0 5.284 2.94 9.818 2.053 11.746 2.22a6.593 6.593 0 006.587-6.588v-.346h1.733a3.811 3.811 0 003.814-3.814v-5.547a3.811 3.811 0 00-3.814-3.813H61.53v-.347a6.593 6.593 0 00-6.587-6.587H16.1a6.593 6.593 0 00-6.587 6.587v.347H7.766a3.811 3.811 0 00-3.814 3.813v5.547a3.82 3.82 0 003.814 3.814zm53.763-11.094h1.733c.957 0 1.734.776 1.734 1.733v5.547c0 .957-.777 1.734-1.734 1.734H61.53v-9.014zm-49.95-2.427a4.516 4.516 0 014.507-4.507h38.842a4.516 4.516 0 014.507 4.507v13.867a4.516 4.516 0 01-4.507 4.507c-1.97-.152-6.005.68-10.733-1.955-5.214-2.898-11.94-3.023-17.376 0-4.715 2.62-8.722 1.789-10.733 1.955a4.516 4.516 0 01-4.507-4.507V13.257zm-5.547 4.16c0-.957.777-1.733 1.734-1.733h1.733v9.014H7.766a1.734 1.734 0 01-1.734-1.734v-5.547zm48.91-3.12H16.1v-2.08h38.842v2.08zm-2.08 2.08h2.08v2.08h-2.08v-2.08zm-9.014 0h6.934v2.08h-6.934v-2.08z" fill="url(#paint3_linear)"/><defs><linearGradient id="paint0_linear" x1="7.77" y1="14.64" x2="7.77" y2="25.74" gradientUnits="userSpaceOnUse"><stop offset="0" stop-color="#A8ABFF"/><stop offset="1" stop-color="#FAC8FF"/></linearGradient><linearGradient id="paint1_linear" x1="63.266" y1="14.64" x2="63.266" y2="25.74" gradientUnits="userSpaceOnUse"><stop offset="0" stop-color="#A8ABFF"/><stop offset="1" stop-color="#FAC8FF"/></linearGradient><linearGradient id="paint2_linear" x1="35.518" y1="7.703" x2="35.518" y2="32.677" gradientUnits="userSpaceOnUse"><stop offset="0" stop-color="#96D1F3"/><stop offset="1" stop-color="#CCFFF4"/></linearGradient><linearGradient id="paint3_linear" x1="35.5" y1="6.663" x2="35.5" y2="64.337" gradientUnits="userSpaceOnUse"><stop offset="0" stop-color="#174FA3"/><stop offset="1" stop-color="#B044AF"/></linearGradient></defs></svg>