<svg width="72" height="61" fill="none" xmlns="http://www.w3.org/2000/svg"><path d="M46.547 13.864l-6.328-4.16v4.16H7.734v37.431h56.532V13.864h-17.72z" fill="url(#paint0_linear)"/><path d="M70.594 51.295c0 4.59-3.783 8.319-8.438 8.319H9.844c-4.655 0-8.438-3.73-8.438-8.319h69.188z" fill="url(#paint1_linear)"/><path d="M52.875 18.023L40.219 9.705l12.656-8.319v16.637z" fill="url(#paint2_linear)"/><path d="M44.438 45.75v5.545H27.561V45.75c0-4.589 3.783-8.318 8.438-8.318 4.655 0 8.438 3.73 8.438 8.318z" fill="#fff"/><path d="M40.219 18.023H19.125V1.386h21.094v16.637z" fill="url(#paint3_linear)"/><path d="M36 34.66c2.33 0 4.219-1.863 4.219-4.16S38.33 26.34 36 26.34s-4.219 1.863-4.219 4.16S33.67 34.66 36 34.66z" fill="#fff"/><path d="M41.625 30.5c0-3.064-2.517-5.545-5.625-5.545s-5.625 2.481-5.625 5.545 2.517 5.545 5.625 5.545 5.625-2.481 5.625-5.545zM36 33.273c-1.547 0-2.813-1.248-2.813-2.773 0-1.525 1.266-2.773 2.813-2.773 1.547 0 2.813 1.248 2.813 2.773 0 1.525-1.266 2.773-2.813 2.773z" fill="url(#paint4_linear)"/><path d="M70.594 50.394H65.18v-36.53c0-.5-.408-.902-.914-.902H53.789V1.386a.887.887 0 00-.478-.79.953.953 0 00-.942.042L41.133 8.027v-6.64c0-.5-.408-.902-.914-.902H19.125a.906.906 0 00-.914.901v11.577H7.734a.906.906 0 00-.914.9v36.531H1.406a.906.906 0 00-.914.901c0 5.088 4.19 9.22 9.352 9.22h19.828a.906.906 0 00.914-.901c0-.5-.408-.901-.914-.901H9.844c-3.558 0-6.666-2.496-7.369-5.934l-.127-.582h67.304l-.127.582c-.717 3.438-3.81 5.933-7.369 5.933H42.328a.906.906 0 00-.914.902c0 .499.408.9.914.9h19.828c5.161 0 9.352-4.13 9.352-9.219 0-.499-.408-.9-.914-.9zM51.96 3.064V16.33L41.864 9.705l10.097-6.641zm-31.922-.776h19.266v14.834H20.039V2.287zm23.484 48.106H28.477V45.75c0-4.09 3.375-7.417 7.523-7.417s7.523 3.327 7.523 7.417v4.644zm19.829 0h-18V45.75c0-5.088-4.191-9.22-9.352-9.22-5.16 0-9.352 4.132-9.352 9.22v4.644h-18v-35.63h9.563v3.259c0 .499.408.9.914.9h21.094a.906.906 0 00.914-.9v-6.641l11.236 7.39a.92.92 0 00.942.041.887.887 0 00.478-.79v-3.258h9.563v35.63z" fill="url(#paint5_linear)"/><path d="M36 38.333c-4.148 0-7.523 3.327-7.523 7.417v4.644h15.046V45.75c0-4.09-3.375-7.417-7.523-7.417zm6.54 11.09H29.46V45.75c0-3.55 2.94-6.447 6.54-6.447s6.54 2.898 6.54 6.447v3.674z" fill="#FCFCFC"/><path d="M36 61c.777 0 1.406-.62 1.406-1.386 0-.766-.63-1.387-1.406-1.387-.777 0-1.406.621-1.406 1.387 0 .765.63 1.386 1.406 1.386z" fill="url(#paint6_linear)"/><defs><linearGradient id="paint0_linear" x1="36" y1="51.295" x2="36" y2="9.704" gradientUnits="userSpaceOnUse"><stop offset="0" stop-color="#A8ABFF"/><stop offset="1" stop-color="#FAC8FF"/></linearGradient><linearGradient id="paint1_linear" x1="1.406" y1="55.455" x2="70.594" y2="55.455" gradientUnits="userSpaceOnUse"><stop offset="0" stop-color="#96D1F3"/><stop offset="1" stop-color="#CCFFF4"/></linearGradient><linearGradient id="paint2_linear" x1="40.219" y1="9.705" x2="52.875" y2="9.705" gradientUnits="userSpaceOnUse"><stop offset="0" stop-color="#96D1F3"/><stop offset="1" stop-color="#CCFFF4"/></linearGradient><linearGradient id="paint3_linear" x1="19.125" y1="9.705" x2="40.219" y2="9.705" gradientUnits="userSpaceOnUse"><stop offset="0" stop-color="#96D1F3"/><stop offset="1" stop-color="#CCFFF4"/></linearGradient><linearGradient id="paint4_linear" x1="36" y1="36.045" x2="36" y2="24.955" gradientUnits="userSpaceOnUse"><stop offset="0" stop-color="#174FA3"/><stop offset="1" stop-color="#B044AF"/></linearGradient><linearGradient id="paint5_linear" x1="36" y1="61" x2="36" y2="0" gradientUnits="userSpaceOnUse"><stop offset="0" stop-color="#174FA3"/><stop offset="1" stop-color="#B044AF"/></linearGradient><linearGradient id="paint6_linear" x1="36" y1="61" x2="36" y2="58.227" gradientUnits="userSpaceOnUse"><stop offset="0" stop-color="#174FA3"/><stop offset="1" stop-color="#B044AF"/></linearGradient></defs></svg>