<svg width="27" height="27" fill="none" xmlns="http://www.w3.org/2000/svg"><g clip-path="url(#clip0)" fill="#00A6CA"><path d="M21.938 27H5.063a2.816 2.816 0 01-2.813-2.813V2.813A2.816 2.816 0 015.063 0h16.875a2.816 2.816 0 012.812 2.813v21.375A2.816 2.816 0 0121.937 27zM5.063 1.125a1.69 1.69 0 00-1.688 1.688v21.375c0 .93.757 1.687 1.688 1.687h16.875a1.69 1.69 0 001.687-1.688V2.813a1.69 1.69 0 00-1.688-1.687H5.063z"/><path d="M19.688 9H7.313a1.69 1.69 0 01-1.688-1.688v-2.25c0-.93.757-1.687 1.688-1.687h12.375c.93 0 1.687.757 1.687 1.688v2.25A1.69 1.69 0 0119.687 9zM7.313 4.5a.563.563 0 00-.563.563v2.25c0 .31.252.562.563.562h12.375c.31 0 .562-.252.562-.563v-2.25a.563.563 0 00-.563-.562H7.313zM9 15.75a.563.563 0 01-.563-.563v-3.374a.563.563 0 011.126 0v3.374A.563.563 0 019 15.75z"/><path d="M10.688 14.063H7.312a.563.563 0 010-1.126h3.375a.563.563 0 010 1.126zm9 0h-3.375a.563.563 0 010-1.126h3.375a.563.563 0 010 1.126zm0 5.062h-3.375a.563.563 0 010-1.125h3.375a.563.563 0 010 1.125zm0 3.375h-3.375a.563.563 0 010-1.125h3.375a.563.563 0 010 1.125zm-12.375 0a.563.563 0 01-.398-.96l3.374-3.375a.563.563 0 01.796.796L7.71 22.336a.56.56 0 01-.397.164z"/><path d="M10.688 22.5a.565.565 0 01-.399-.164L6.914 18.96a.563.563 0 01.796-.796l3.375 3.375a.563.563 0 01-.398.96z"/></g><defs><clipPath id="clip0"><rect width="27" height="27" rx="3" fill="#fff"/></clipPath></defs></svg>