<svg width="261" height="53" fill="none" xmlns="http://www.w3.org/2000/svg"><g clip-path="url(#clip0)"><path d="M130.754 6.912l5.39 6.856h-8.49l-4.044-6.856h7.144z" fill="#fff"/><path d="M136.144 13.768h-5.525l-5.263 12.135 10.788-12.135zm-16.576-6.856l-4.044 6.856h12.13l-4.044-6.856h-4.042z" fill="#B0E7FF"/><path d="M127.654 13.768l-8.086 18.646-8.087-18.647h16.173z" fill="#fff"/><path d="M111.481 13.768h-5.054l9.867 11.099-4.813-11.1z" fill="#B0E7FF"/><path d="M115.524 6.912l-4.043 6.856h-8.49l5.39-6.856h7.143z" fill="#fff"/><path d="M123.61 15.824a.68.68 0 00-.673.686.68.68 0 00.673.685.68.68 0 00.674-.685.68.68 0 00-.674-.686z" fill="#113E4A"/><path d="M102.485 14.22a.027.027 0 00.005.006l.001.001 16.577 18.647a.68.68 0 00.5.226.679.679 0 00.499-.226l16.577-18.647h.001l.005-.007a.694.694 0 00.026-.873l-.006-.008-5.39-6.855a.67.67 0 00-.526-.257h-22.373a.672.672 0 00-.526.257l-5.391 6.855a.694.694 0 00.021.88zm13.421-6.622h7.323l3.234 5.484h-13.792l3.235-5.484zm-3.391 6.855h14.105l-7.052 16.263-7.053-16.263zm15.578 0h6.533l-12.755 14.349 6.222-14.349zm-17.051 0l6.222 14.349-12.755-14.349h6.533zm23.7-1.371h-6.707l-3.234-5.484h5.628l4.313 5.484zm-26.037-5.484h5.629l-3.235 5.484h-6.707l4.313-5.484z" fill="#113E4A"/><path d="M120.915 15.824h-5.002a.68.68 0 00-.673.686.68.68 0 00.673.685h5.002a.68.68 0 00.674-.685.68.68 0 00-.674-.686zm-1.348-12.34a.68.68 0 00.674-.685v-4.113a.68.68 0 00-.674-.686.68.68 0 00-.673.686v4.113a.68.68 0 00.673.685zm4.52-.2L126.782.54a.692.692 0 000-.97.666.666 0 00-.953 0l-2.695 2.743a.694.694 0 000 .97c.263.267.69.267.953 0zm-9.039 0c.263.267.69.267.953 0a.694.694 0 000-.97l-2.696-2.742a.666.666 0 00-.953 0 .694.694 0 000 .97l2.696 2.742zM.424 24.328v-.329l1.506-.625 4.443-11.87h.246l4.197 12.26L12.23 24v.329H7.71V24l1.26-.203-1.306-3.706H3.575L2.33 23.374l1.383.625v.329H.423zm3.274-4.567h3.858l-1.844-5.505-2.014 5.505zm17.521 4.723c-.492 0-.856-.114-1.091-.344a1.231 1.231 0 01-.339-.876c0-.27.087-.505.262-.703.184-.209.435-.313.753-.313a.8.8 0 01.461.125.722.722 0 01.277.235.61.61 0 01.107.156c-.184.125-.276.287-.276.485 0 .125.036.23.107.313.082.083.19.125.323.125.338 0 .625-.256.861-.767.246-.521.446-1.386.6-2.596.163-1.21.287-2.851.369-4.926l.107-2.534-1.63-.688v-.36h8.948v.345l-1.43.218v11.386l1.43.234v.329h-4.55v-.329l1.429-.234V12.207h-3.751l-.139 3.206c-.102 2.336-.235 4.13-.4 5.38-.163 1.241-.435 2.169-.814 2.784-.369.605-.907.907-1.614.907zm19.056-.5l1.415-.22V12.38l-1.415-.234v-.329h4.52v.329l-1.414.234v4.911h2.183c1.506 0 2.628.292 3.366.876.748.573 1.122 1.454 1.122 2.643 0 1.189-.374 2.075-1.122 2.659-.738.573-1.86.86-3.366.86h-5.289v-.344zm5.073-.047c.953 0 1.666-.23 2.137-.688.472-.459.707-1.168.707-2.127v-.626c0-.959-.235-1.668-.707-2.127-.471-.469-1.184-.703-2.137-.703h-1.967v6.27h1.967zm18.232.062l1.414-.234v-1.627c-1.988-.01-3.449-.375-4.381-1.094-.933-.73-1.4-1.825-1.4-3.285 0-1.48.467-2.58 1.4-3.3.943-.719 2.403-1.079 4.38-1.079v-1.313l-1.413-.22v-.343h4.52v.344l-1.415.219v1.313c1.978 0 3.433.36 4.366 1.08.943.719 1.414 1.819 1.414 3.3 0 1.459-.466 2.554-1.399 3.284-.933.719-2.393 1.084-4.381 1.094v1.627l1.414.234v.329h-4.52v-.329zm1.414-10.259c-1.25 0-2.209.329-2.875.985-.666.647-.999 1.517-.999 2.612v.845c0 1.094.333 1.965 1 2.611.665.647 1.624.975 2.874.986V13.74zm1.69 8.039c1.251-.01 2.21-.34 2.876-.986.666-.646.999-1.517.999-2.611v-.845c0-1.095-.333-1.965-1-2.612-.665-.656-1.624-.985-2.874-.985v8.039zm13.604 2.549v-.329l1.507-.625 4.442-11.87h.246l4.197 12.26 1.414.235v.329h-4.52v-.329l1.261-.203-1.306-3.706h-4.09l-1.245 3.284 1.384.625v.329h-3.29zm3.275-4.567h3.858l-1.845-5.505-2.013 5.505z" fill="#113E4A"/><path d="M.423 24.328h-.17v.174h.17v-.174zm0-.329l-.064-.16-.106.044v.116h.17zm1.507-.625l.065.16.068-.028.027-.07-.16-.062zm4.443-11.87v-.174h-.118l-.042.112.16.062zm.246 0l.161-.058-.04-.116h-.12v.174zm4.196 12.26l-.16.058.033.098.1.016.027-.171zM12.23 24h.17v-.147l-.143-.024-.027.171zm0 .329v.174h.17v-.174h-.17zm-4.52 0h-.17v.174h.17v-.174zm0-.329l-.027-.171-.144.023V24h.171zm1.26-.203l.027.172.204-.033-.07-.197-.16.058zM7.665 20.09l.16-.059-.04-.115h-.12v.174zm-4.09 0v-.174h-.116l-.042.111.159.063zM2.33 23.374l-.16-.063-.058.154.148.068.07-.16zm1.383.625h.171v-.112l-.101-.046-.07.158zm0 .329v.174h.171v-.174h-.17zm-.015-4.567l-.16-.06-.086.234h.246v-.174zm3.858 0v.174h.24l-.078-.23-.162.056zm-1.844-5.505l.161-.056-.154-.461-.167.456.16.061zM.594 24.328v-.329H.253v.329h.341zm-.106-.168l1.507-.625-.13-.322-1.506.625.129.322zm1.602-.724l4.442-11.87-.319-.124-4.443 11.87.32.124zm4.283-11.759h.246v-.347h-.246v.347zm.084-.116l4.197 12.261.323-.114L6.78 11.446l-.323.115zm4.33 12.375l1.415.235.055-.343-1.414-.235-.055.343zM12.06 24v.329h.341V24h-.341zm.17.155H7.71v.348h4.52v-.348zm-4.348.174V24H7.54v.329h.342zm-.144-.157l1.26-.203-.053-.343-1.26.203.053.343zm1.395-.433L7.825 20.03l-.322.117 1.307 3.707.322-.117zm-1.468-3.822h-4.09v.347h4.09v-.347zm-4.248.111L2.17 23.311l.32.125 1.244-3.284-.318-.125zM2.26 23.533l1.384.625.139-.317-1.384-.626-.139.318zm1.282.466v.329h.342v-.329h-.342zm.171.155H.423v.348h3.29v-.348zm-.015-4.22h3.858v-.347H3.698v.348zm4.02-.229L5.873 14.2l-.323.112 1.845 5.505.323-.112zm-2.166-5.51l-2.014 5.506.32.12 2.014-5.504-.32-.122zm14.575 9.945l-.123.12.005.006.118-.126zm-.076-1.58l-.127-.116.127.117zm1.214-.187l-.095.144.007.005.007.004.081-.153zm.277.235l-.145.092.007.01.008.01.13-.112zm.107.156l.095.145.109-.074-.042-.126-.162.055zm-.169.797l-.129.115.008.008.121-.123zm1.184-.64l-.154-.076v.002l.154.073zm.6-2.597l-.17-.024v.002l.17.022zm.368-4.926l-.17-.008.17.008zm.108-2.534l.17.008.006-.122-.11-.046-.066.16zm-1.63-.688h-.17v.116l.105.045.065-.16zm0-.36v-.173h-.17v.173h.17zm8.947 0h.171v-.173h-.17v.173zm0 .345l.026.171.145-.022v-.15h-.17zm-1.43.218l-.025-.171-.145.022v.15h.17zm0 11.386h-.17v.148l.144.023.027-.171zm1.43.234h.171v-.147l-.144-.024-.027.171zm0 .329v.174h.171v-.174h-.17zm-4.55 0h-.17v.174h.17v-.174zm0-.329l-.027-.171-.144.024v.147h.171zm1.43-.234l.027.171.144-.023v-.148h-.171zm0-11.558h.17v-.173h-.17v.173zm-3.751 0v-.173h-.164l-.007.166.17.007zm-.139 3.206l.171.008-.17-.008zm-.4 5.38l.17.024-.17-.024zm-.814 2.784l-.145-.092.145.092zm-1.614.733c-.47 0-.783-.11-.974-.295l-.236.25c.28.274.696.393 1.21.393v-.348zm-.968-.29a1.057 1.057 0 01-.291-.756h-.342c0 .387.129.723.386.996l.247-.24zm-.291-.756c0-.229.072-.422.218-.587l-.255-.232c-.203.23-.305.506-.305.82h.342zm.217-.587c.148-.166.35-.255.627-.255v-.348c-.358 0-.659.12-.88.37l.253.233zm.627-.255c.159 0 .277.035.366.095l.19-.289a.97.97 0 00-.556-.154v.348zm.38.104c.12.066.184.126.213.174l.29-.185a.888.888 0 00-.341-.295l-.162.306zm.228.195a1.044 1.044 0 01.076.1c.003.005.001.004 0-.002l.323-.11a.432.432 0 00-.056-.107 1.446 1.446 0 00-.084-.108l-.259.227zm.143-.102c-.225.152-.353.365-.353.63h.341c0-.131.056-.242.201-.34l-.19-.29zm-.353.63c0 .161.047.308.15.427l.257-.229a.288.288 0 01-.066-.198h-.341zm.157.435c.12.121.273.176.444.176v-.347c-.095 0-.157-.028-.202-.074l-.242.245zm.444.176c.44 0 .771-.336 1.015-.866l-.309-.148c-.227.493-.47.667-.706.667v.347zm1.015-.864c.258-.548.46-1.437.615-2.65l-.339-.044c-.153 1.207-.35 2.048-.584 2.543l.308.15zm.615-2.648c.165-1.218.288-2.866.37-4.943l-.341-.014c-.082 2.072-.205 3.708-.368 4.91l.339.047zm.37-4.943l.108-2.533-.342-.015-.107 2.533.341.015zm.002-2.701l-1.629-.688-.131.32 1.63.689.13-.321zm-1.524-.528v-.36h-.341v.36h.341zm-.17-.186h8.946v-.347H22.11v.347zm8.776-.174v.345h.341v-.345h-.341zm.145.173l-1.43.218.051.344 1.43-.219-.051-.343zm-1.575.39v11.386h.341V12.379h-.341zm.144 11.557l1.43.235.053-.343-1.43-.235-.053.343zm1.286.063v.329h.341v-.329h-.341zm.17.155h-4.55v.348h4.55v-.348zm-4.38.174v-.329h-.34v.329h.34zm-.143-.157l1.43-.235-.054-.343-1.43.235.054.343zm1.574-.406V12.207h-.342v11.558h.342zm-.171-11.731h-3.751v.347h3.75v-.347zm-3.922.166l-.138 3.206.341.015.138-3.206-.34-.015zm-.138 3.206c-.103 2.334-.236 4.12-.398 5.364l.338.046c.165-1.258.299-3.058.401-5.395l-.341-.015zm-.398 5.364c-.163 1.232-.43 2.13-.79 2.715l.289.184c.398-.646.674-1.602.839-2.852l-.338-.047zm-.791 2.715c-.337.553-.82.826-1.47.826v.347c.766 0 1.36-.333 1.76-.99l-.29-.183zm17.587.499l-.025-.172-.145.022v.15h.17zm1.415-.22l.025.173.145-.023v-.15h-.17zm0-11.385h.17v-.147l-.143-.024-.027.171zm-1.415-.234h-.17v.148l.143.023.027-.171zm0-.329v-.173h-.17v.173h.17zm4.52 0h.17v-.173h-.17v.173zm0 .329l.027.171.144-.024v-.147h-.171zm-1.415.234l-.027-.171-.143.024v.147h.17zm0 4.911h-.17v.174h.17v-.174zm5.55.876l-.105.137.002.002.103-.139zm0 5.302l.104.138-.104-.138zm-8.655.86h-.17v.174h.17v-.174zm7.21-1.08l-.118-.125.118.126zm0-4.879l-.12.125h.002l.118-.125zm-4.105-.703v-.174h-.17v.174h.17zm0 6.27h-.17v.175h.17v-.174zm-3.08.22l1.415-.22-.051-.343-1.414.219.05.344zm1.56-.391V12.379h-.341v11.386h.341zm-.143-11.557l-1.414-.235-.055.343 1.414.235.055-.343zm-1.27-.063v-.329h-.343v.329h.342zm-.172-.155h4.52v-.347h-4.52v.347zm4.349-.174v.329h.342v-.329h-.342zm.143.157l-1.414.235.055.343 1.414-.235-.055-.343zm-1.557.406v4.911h.341v-4.91h-.341zm.17 5.085h2.183v-.348H43.38v.348zm2.183 0c1.49 0 2.568.29 3.262.84l.21-.275c-.781-.618-1.949-.913-3.471-.913v.348zm3.264.84c.695.533 1.055 1.356 1.055 2.505h.341c0-1.228-.389-2.168-1.19-2.782l-.206.278zm1.055 2.505c0 1.149-.36 1.978-1.056 2.52l.208.277c.8-.625 1.19-1.569 1.19-2.797h-.342zm-1.056 2.52c-.694.54-1.772.825-3.263.825v.348c1.523 0 2.69-.29 3.47-.896l-.207-.276zm-3.263.825h-5.288v.348h5.288v-.348zm-5.117.174v-.344h-.341v.344h.341zm4.902-.217c.977 0 1.74-.235 2.255-.737l-.236-.25c-.428.415-1.09.64-2.019.64v.347zm2.255-.737c.518-.503.76-1.267.76-2.252h-.342c0 .933-.229 1.587-.654 2.001l.236.251zm.76-2.252v-.626h-.342v.626h.342zm0-.626c0-.985-.242-1.748-.76-2.252l-.236.25c.425.415.654 1.07.654 2.002h.342zm-.759-2.251c-.515-.513-1.278-.753-2.256-.753v.347c.928 0 1.59.229 2.018.655l.238-.249zm-2.256-.753H43.38v.347h1.968v-.347zm-2.138.174v6.27h.341v-6.27h-.341zm.17 6.445h1.968v-.348H43.38v.348zm20.2-.112l-.028-.171-.143.024v.147h.17zm1.414-.234l.027.171.144-.023v-.148h-.171zm0-1.627h.17v-.173h-.17v.173zm-4.381-1.094l-.105.137.002.001.103-.138zm0-6.585l-.103-.139.103.14zm4.38-1.079v.174h.172v-.174h-.171zm0-1.313h.172v-.15l-.146-.022-.025.172zm-1.413-.22h-.171v.15l.145.022.026-.171zm0-.343v-.174h-.171v.174h.17zm4.52 0h.17v-.174h-.17v.174zm0 .344l.025.171.145-.022v-.15h-.17zm-1.415.219l-.026-.172-.145.022v.15h.17zm0 1.313h-.171v.174h.17v-.174zm4.366 1.08l-.103.138.103-.139zm.015 6.584l.103.138h.001l-.104-.138zm-4.381 1.094l-.001-.173h-.17v.173h.17zm0 1.627h-.171v.148l.143.023.028-.171zm1.414.234h.17v-.147l-.142-.024-.028.171zm0 .329v.174h.17v-.174h-.17zm-4.52 0h-.17v.174h.17v-.174zm1.415-10.588h.17v-.174h-.17v.174zm-2.875.985l.118.126h.001l-.119-.126zm2.875 7.054l-.001.173.172.002v-.175h-.171zm1.69 0h-.17v.175l.172-.002-.001-.173zm2.876-7.054l-.12.125.002.001.118-.126zm-2.875-.985v-.174h-.171v.174h.17zm-3.078 10.431l1.414-.235-.055-.343-1.414.235.055.343zm1.558-.406v-1.627h-.342v1.627h.342zm-.17-1.8c-1.975-.01-3.39-.374-4.28-1.06l-.206.277c.977.753 2.482 1.12 4.484 1.13l.002-.347zm-4.278-1.06c-.881-.689-1.332-1.727-1.332-3.146h-.342c0 1.5.482 2.652 1.465 3.422l.209-.275zm-1.332-3.146c0-1.44.451-2.482 1.33-3.161l-.206-.277c-.985.76-1.466 1.918-1.466 3.438h.342zm1.33-3.16c.9-.687 2.315-1.045 4.279-1.045v-.347c-1.992 0-3.497.36-4.484 1.113l.205.278zm4.45-1.219v-1.313h-.342v1.313h.342zm-.146-1.485l-1.414-.22-.051.344 1.414.22.051-.344zm-1.269-.047v-.344h-.341v.344h.341zm-.17-.17h4.52v-.348h-4.52v.347zm4.348-.174v.344h.342v-.344h-.342zm.145.172l-1.414.219.051.343 1.415-.219-.052-.343zm-1.559.39v1.314h.342v-1.313h-.342zm.17 1.488c1.965 0 3.375.358 4.264 1.044l.206-.277c-.977-.753-2.477-1.114-4.47-1.114v.347zm4.264 1.044c.89.68 1.346 1.721 1.346 3.161h.342c0-1.52-.487-2.679-1.483-3.439l-.205.278zm1.346 3.161c0 1.42-.45 2.457-1.332 3.147l.208.275c.984-.77 1.466-1.921 1.466-3.422h-.342zm-1.331 3.146c-.889.686-2.304 1.05-4.279 1.06l.002.347c2.002-.01 3.507-.377 4.483-1.13l-.206-.277zm-4.449 1.233v1.627h.342v-1.627h-.342zm.143 1.798l1.415.235.055-.343-1.415-.235-.055.343zm1.271.063v.329h.342v-.329h-.342zm.171.155h-4.52v.348h4.52v-.348zm-4.349.174v-.329h-.341v.329h.341zm1.244-10.762c-1.279 0-2.286.337-2.994 1.034l.238.25c.625-.616 1.534-.936 2.756-.936v-.348zM62 14.6c-.705.684-1.052 1.604-1.052 2.737h.342c0-1.056.32-1.878.946-2.486L62 14.6zm-1.052 2.737v.845h.342v-.845h-.342zm0 .845c0 1.133.347 2.052 1.052 2.737l.236-.251c-.627-.608-.946-1.43-.946-2.486h-.342zM62 20.919c.708.687 1.714 1.023 2.992 1.033l.002-.347c-1.222-.01-2.133-.331-2.758-.937l-.236.251zm3.164.86V13.74h-.342v8.039h.342zm1.521.173c1.278-.01 2.284-.346 2.991-1.033l-.235-.251c-.625.606-1.536.927-2.758.937l.002.347zm2.991-1.033c.706-.685 1.053-1.604 1.053-2.737h-.342c0 1.056-.32 1.878-.946 2.486l.236.251zm1.053-2.737v-.845h-.342v.845h.342zm0-.845c0-1.133-.347-2.053-1.053-2.737l-.235.251c.626.608.946 1.43.946 2.486h.342zm-1.052-2.736c-.707-.698-1.714-1.035-2.993-1.035v.348c1.222 0 2.131.32 2.756.936l.237-.25zm-3.164-.861v8.039h.342V13.74h-.342zm13.774 10.588h-.17v.174h.17v-.174zm0-.329l-.064-.16-.107.044v.116h.171zm1.507-.625l.064.16.069-.028.026-.07-.16-.062zm4.442-11.87v-.174h-.118l-.041.112.16.062zm.246 0l.161-.058-.04-.116h-.12v.174zm4.197 12.26l-.162.058.035.098.1.016.027-.171zm1.414.235h.171v-.147l-.144-.024-.027.171zm0 .329v.174h.171v-.174h-.17zm-4.52 0h-.17v.174h.17v-.174zm0-.329l-.026-.171-.144.023v.148h.17zm1.261-.203l.028.172.203-.033-.07-.197-.16.058zM87.53 20.09l.16-.059-.04-.115h-.12v.174zm-4.09 0v-.174h-.117l-.042.111.16.063zm-1.245 3.284l-.159-.063-.058.154.148.068.07-.16zm1.384.625h.17v-.112l-.1-.046-.07.158zm0 .329v.174h.17v-.174h-.17zm-.016-4.567l-.16-.06-.085.234h.246v-.174zm3.859 0v.174h.239l-.077-.23-.162.056zm-1.845-5.505l.162-.056-.155-.461-.167.456.16.061zM80.46 24.328v-.329h-.342v.329h.342zm-.106-.168l1.506-.625-.129-.322-1.507.625.13.322zm1.601-.724l4.443-11.87-.32-.124-4.442 11.87.32.124zm4.283-11.759h.246v-.347h-.246v.347zm.085-.116l4.196 12.261.323-.114-4.197-12.262-.322.115zm4.33 12.375l1.415.235.055-.343-1.415-.235-.054.343zm1.271.063v.329h.342v-.329h-.342zm.171.155h-4.52v.348h4.52v-.348zm-4.349.174v-.329h-.341v.329h.341zm-.143-.157l1.26-.203-.053-.343-1.26.203.053.343zm1.394-.433l-1.307-3.707-.321.117 1.307 3.707.32-.117zm-1.468-3.822H83.44v.347h4.09v-.347zm-4.248.111l-1.245 3.284.319.125 1.245-3.284-.319-.125zm-1.155 3.506l1.383.625.14-.317-1.384-.626-.139.318zm1.282.466v.329h.342v-.329h-.342zm.17.155h-3.289v.348h3.29v-.348zm-.014-4.22h3.858v-.347h-3.859v.348zm4.02-.229L85.738 14.2l-.323.112 1.844 5.505.324-.112zm-2.167-5.51l-2.014 5.506.32.12 2.015-5.504-.32-.122zm71.807 10.445c-1.117 0-2.095-.276-2.936-.828-.84-.553-1.491-1.324-1.952-2.315-.451-.99-.677-2.132-.677-3.425 0-1.293.231-2.434.692-3.425.472-1 1.133-1.772 1.983-2.315.861-.552 1.85-.828 2.967-.828.441 0 .887.078 1.338.234.461.157.876.376 1.245.657l1.03-.891h.323v3.878h-.323l-.953-2.424a4.148 4.148 0 00-1.261-.797 3.59 3.59 0 00-1.399-.298c-.717 0-1.353.188-1.906.563-.543.376-.968.923-1.276 1.643-.307.719-.461 1.574-.461 2.564v2.862c0 .99.148 1.846.446 2.565.297.72.712 1.272 1.245 1.658.533.375 1.158.563 1.875.563a3.87 3.87 0 001.568-.344 3.85 3.85 0 001.307-.954l.892-2.518h.322v4.02h-.322l-1.107-.798a4.154 4.154 0 01-1.261.703 4.17 4.17 0 01-1.399.25zm16.174-.312v-.329l1.414-.234V12.207h-2.536l-1.168 3.097h-.446v-3.488h10.007v3.488h-.461l-1.153-3.097h-2.552v11.558l1.415.234v.329h-4.52zm16.252 0v-.329l1.415-.234V12.379l-1.415-.218v-.345h9.255v3.582h-.415l-1.184-3.19h-4.55v5.63h1.998l.907-2.268h.4v4.942h-.4l-.922-2.3h-1.983v5.74h4.827l1.26-3.44h.4v3.816h-9.593zm28.004.156c-.574 0-1.004-.14-1.291-.422-.287-.282-.482-.761-.584-1.439l-.369-2.643c-.103-.74-.323-1.277-.661-1.61-.338-.334-.881-.501-1.63-.501h-1.291v5.896l1.414.234v.329h-4.519v-.329l1.414-.234V12.379l-1.414-.218v-.345h4.519v.345l-1.414.218v5.115h1.614a1.714 1.714 0 001.261-.58c.348-.385.599-.896.753-1.532l.477-1.97c.143-.584.358-1.022.645-1.314a1.462 1.462 0 011.061-.438c.338 0 .63.099.876.297a.941.941 0 01.384.782c0 .302-.087.547-.261.735-.164.188-.384.282-.661.282h-.307c-.164-.449-.421-.673-.769-.673-.338 0-.548.177-.63.532l-.477 1.97a3.85 3.85 0 01-.538 1.252c-.236.333-.507.573-.815.719.851.104 1.502.354 1.953.75.451.397.727.934.83 1.612l.353 2.361c.082.532.17.902.262 1.11.092.209.225.334.399.376a.46.46 0 00.139.015c.307 0 .63-.177.968-.531l.262.281c-.554.636-1.205.954-1.953.954zm11.119 0c-.492 0-.856-.114-1.091-.344a1.23 1.23 0 01-.339-.876c0-.27.087-.505.262-.703.184-.209.435-.313.753-.313a.8.8 0 01.461.125.723.723 0 01.277.235.61.61 0 01.107.156c-.184.125-.276.287-.276.485 0 .125.036.23.107.313.082.083.19.125.323.125.338 0 .625-.256.861-.767.246-.521.446-1.386.6-2.596.164-1.21.287-2.851.369-4.926l.107-2.534-1.629-.688v-.36h8.947v.345l-1.43.218v11.386l1.43.234v.329h-4.551v-.329l1.43-.234V12.207h-3.751l-.138 3.206c-.103 2.336-.236 4.13-.4 5.38-.164 1.241-.436 2.169-.815 2.784-.369.605-.907.907-1.614.907zm25.068.157c-1.117 0-2.117-.277-2.998-.83-.881-.552-1.568-1.323-2.06-2.314-.492-1-.738-2.142-.738-3.425 0-1.282.246-2.419.738-3.41.492-1 1.179-1.777 2.06-2.33.881-.552 1.881-.828 2.998-.828 1.117 0 2.116.276 2.997.829.882.552 1.568 1.329 2.06 2.33.492.99.738 2.127.738 3.41 0 1.282-.246 2.423-.738 3.424-.492.99-1.178 1.762-2.06 2.315-.881.552-1.88.829-2.997.829zm0-.36a3.45 3.45 0 001.983-.594c.594-.396 1.06-.97 1.399-1.72.338-.762.507-1.658.507-2.69v-2.41c0-1.031-.169-1.923-.507-2.673-.339-.762-.805-1.34-1.399-1.736a3.45 3.45 0 00-1.983-.595c-.748 0-1.415.198-1.999.595-.584.396-1.045.974-1.383 1.736-.338.75-.508 1.642-.508 2.674v2.408c0 1.033.17 1.93.508 2.69.338.751.799 1.325 1.383 1.72.584.397 1.251.595 1.999.595z" fill="#113E4A"/><path d="M154.288 23.812l-.093.146.093-.146zm-1.952-2.315l-.155.073v.002l.155-.075zm.015-6.85l-.154-.075.154.075zm1.983-2.315l.091.148h.001l-.092-.148zm4.305-.594l-.056.165h.002l.054-.165zm1.245.657l-.103.14.11.082.104-.09-.111-.132zm1.03-.891v-.174h-.064l-.047.041.111.133zm.323 0h.17v-.174h-.17v.174zm0 3.878v.174h.17v-.174h-.17zm-.323 0l-.159.065.043.109h.116v-.174zm-.953-2.424l.158-.065-.014-.036-.029-.027-.115.128zm-1.261-.797l-.065.16h.001l.064-.16zm-3.305.265l-.095-.144h-.001l.096.144zm-.046 11.292l-.099.142h.001l.098-.142zm3.443.219l.068.16.002-.002-.07-.158zm1.307-.954l.127.116.022-.025.011-.032-.16-.06zm.892-2.518v-.174h-.121l-.04.115.161.059zm.322 0h.171v-.174h-.171v.174zm0 4.02v.173h.171v-.174h-.171zm-.322 0l-.1.141.045.032h.055v-.174zm-1.107-.798l.099-.142-.106-.076-.1.082.107.136zm-1.261.703l-.056-.164.056.164zm-1.399.077c-1.088 0-2.033-.269-2.843-.801l-.186.292c.871.573 1.883.856 3.029.856v-.347zm-2.843-.801c-.812-.534-1.442-1.28-1.891-2.243l-.309.149c.474 1.017 1.145 1.814 2.014 2.386l.186-.292zm-1.891-2.242c-.438-.964-.66-2.08-.66-3.352h-.341c0 1.314.228 2.481.692 3.498l.309-.146zm-.66-3.352c0-1.272.227-2.387.676-3.35l-.309-.15c-.474 1.018-.708 2.186-.708 3.5h.341zm.675-3.35c.458-.974 1.099-1.72 1.92-2.242l-.181-.295c-.881.561-1.562 1.36-2.047 2.387l.308.15zm1.921-2.243c.831-.533 1.787-.802 2.875-.802v-.347c-1.146 0-2.167.284-3.058.856l.183.293zm2.875-.802c.42 0 .848.075 1.282.226l.111-.33a4.238 4.238 0 00-1.393-.243v.347zm1.284.226c.444.15.843.361 1.196.631l.205-.278a4.473 4.473 0 00-1.294-.683l-.107.33zm1.41.624l1.03-.891-.222-.265-1.03.892.222.264zm.919-.85h.323v-.347h-.323v.347zm.152-.173v3.878h.341v-3.878h-.341zm.171 3.704h-.323v.348h.323v-.348zm-.164.11l-.954-2.425-.317.13.953 2.424.318-.13zm-.997-2.488a4.31 4.31 0 00-1.312-.83l-.128.322c.464.19.867.446 1.209.764l.231-.256zm-1.311-.83a3.755 3.755 0 00-1.464-.31v.347c.437 0 .881.094 1.334.284l.13-.321zm-1.464-.31c-.748 0-1.417.196-2.001.592l.19.289c.522-.355 1.124-.534 1.811-.534v-.348zm-2.002.593c-.575.396-1.019.972-1.336 1.716l.312.139c.297-.695.704-1.214 1.216-1.568l-.192-.287zm-1.336 1.716c-.32.746-.476 1.626-.476 2.634h.342c0-.972.151-1.803.446-2.495l-.312-.139zm-.476 2.634v2.862h.342v-2.862h-.342zm0 2.862c0 1.008.151 1.887.459 2.633l.315-.135c-.286-.693-.432-1.524-.432-2.498h-.342zm.459 2.633c.308.744.741 1.324 1.304 1.732l.198-.284c-.503-.364-.9-.888-1.187-1.583l-.315.135zm1.305 1.733c.565.397 1.225.594 1.973.594v-.348c-.686 0-1.277-.179-1.778-.532l-.195.286zm1.973.594c.549 0 1.093-.12 1.636-.359l-.135-.319a3.707 3.707 0 01-1.501.33v.348zm1.638-.36c.543-.248.999-.58 1.364-.996l-.254-.232a3.7 3.7 0 01-1.25.912l.14.316zm1.397-1.053l.892-2.518-.321-.118-.892 2.518.321.118zm.732-2.403h.322v-.348h-.322v.348zm.152-.174v4.02h.341v-4.02h-.341zm.17 3.846h-.322v.347h.322v-.348zm-.223.032l-1.107-.798-.198.283 1.106.798.199-.284zm-1.313-.792c-.354.29-.756.515-1.21.675l.113.329a4.32 4.32 0 001.31-.733l-.213-.27zm-1.21.675c-.455.161-.902.24-1.343.24v.348c.482 0 .967-.087 1.456-.26l-.113-.328zm14.831.102h-.171v.174h.171v-.174zm0-.329l-.027-.171-.144.024v.147h.171zm1.414-.234l.028.171.143-.023v-.148h-.171zm0-11.558h.171v-.173h-.171v.173zm-2.536 0v-.173h-.117l-.043.111.16.062zm-1.169 3.097v.174h.118l.042-.112-.16-.062zm-.445 0h-.171v.174h.171v-.174zm0-3.488v-.173h-.171v.173h.171zm10.007 0h.171v-.173h-.171v.173zm0 3.488v.174h.171v-.174h-.171zm-.461 0l-.16.062.042.112h.118v-.174zm-1.153-3.097l.16-.061-.042-.112h-.118v.173zm-2.552 0v-.173h-.171v.173h.171zm0 11.558h-.171v.148l.144.023.027-.171zm1.415.234h.17v-.147l-.143-.024-.027.171zm0 .329v.174h.17v-.174h-.17zm-4.349 0v-.329h-.342v.329h.342zm-.144-.157l1.415-.235-.055-.343-1.414.235.054.343zm1.558-.406V12.207h-.342v11.558h.342zm-.171-11.731h-2.536v.347h2.536v-.347zm-2.696.111l-1.168 3.097.319.124 1.168-3.096-.319-.125zm-1.009 2.985h-.445v.348h.445v-.348zm-.275.174v-3.488h-.341v3.488h.341zm-.17-3.314h10.007v-.347h-10.007v.347zm9.836-.174v3.488h.342v-3.488h-.342zm.171 3.314h-.461v.348h.461v-.348zm-.301.112l-1.153-3.096-.32.123 1.153 3.097.32-.123zm-1.313-3.208h-2.552v.347h2.552v-.347zm-2.723.173v11.558h.342V12.207h-.342zm.144 11.73l1.414.234.055-.343-1.414-.235-.055.343zm1.271.062v.329h.341v-.329h-.341zm.171.155h-4.52v.348h4.52v-.348zm11.732.174h-.17v.174h.17v-.174zm0-.329l-.028-.171-.142.024v.147h.17zm1.415-.234l.027.171.143-.023v-.148h-.17zm0-11.386h.17v-.149l-.145-.022-.025.171zm-1.415-.218h-.17v.149l.145.022.025-.171zm0-.345v-.173h-.17v.173h.17zm9.255 0h.17v-.173h-.17v.173zm0 3.582v.174h.17v-.174h-.17zm-.415 0l-.16.061.041.113h.119v-.174zm-1.184-3.19l.16-.062-.042-.112h-.118v.173zm-4.55 0v-.174h-.171v.173h.171zm0 5.63h-.171v.173h.171v-.174zm1.998 0v.173h.114l.044-.108-.158-.066zm.907-2.268v-.174h-.115l-.044.108.159.066zm.4 0h.171v-.174h-.171v.174zm0 4.942v.174h.171v-.174h-.171zm-.4 0l-.159.066.044.108h.115v-.174zm-.922-2.3l.158-.065-.044-.108h-.114v.174zm-1.983 0v-.173h-.171v.174h.171zm0 5.74h-.171v.174h.171v-.174zm4.827 0v.174h.118l.041-.113-.159-.06zm1.26-3.44v-.174h-.119l-.041.113.16.06zm.4 0h.171v-.174h-.171v.174zm0 3.816v.174h.171v-.174h-.171zm-9.422 0v-.329h-.341v.329h.341zm-.143-.157l1.414-.235-.056-.343-1.414.235.056.343zm1.557-.406V12.379h-.341v11.386h.341zm-.145-11.557l-1.414-.22-.051.344 1.414.22.051-.344zm-1.269-.047v-.345h-.341v.345h.341zm-.171-.17h9.255v-.348h-9.255v.347zm9.084-.175v3.582h.341v-3.582h-.341zm.171 3.408h-.415v.348h.415v-.348zm-.256.112l-1.183-3.19-.32.123 1.184 3.19.319-.123zm-1.343-3.302h-4.55v.347h4.55v-.347zm-4.721.173v5.63h.341v-5.63h-.341zm.171 5.804h1.998v-.347h-1.998v.347zm2.156-.108l.907-2.268-.317-.13-.907 2.267.317.131zm.749-2.16h.4v-.347h-.4v.348zm.229-.173v4.942h.342V15.57h-.342zm.171 4.768h-.4v.348h.4v-.348zm-.242.108l-.922-2.299-.317.132.922 2.299.317-.132zm-1.08-2.407h-1.983v.348h1.983v-.348zm-2.154.174v5.74h.341v-5.74h-.341zm.171 5.913h4.827v-.347h-4.827v.347zm4.986-.113l1.261-3.44-.32-.122-1.261 3.44.32.122zm1.101-3.327h.4v-.348h-.4v.348zm.229-.174v3.816h.342v-3.816h-.342zm.171 3.642h-9.593v.348h9.593v-.348zm17.12-.092l-.119.125.119-.125zm-.584-1.439l-.169.025v.002l.169-.027zm-.369-2.643l-.169.024.169-.024zm-.661-1.61l-.119.124.119-.125zm-2.921-.501v-.174h-.171v.174h.171zm0 5.896h-.171v.148l.144.023.027-.171zm1.414.234h.171v-.147l-.143-.024-.028.171zm0 .329v.174h.171v-.174h-.171zm-4.519 0h-.171v.174h.171v-.174zm0-.329l-.028-.171-.143.024v.147h.171zm1.414-.234l.027.171.144-.023v-.148h-.171zm0-11.386h.171v-.149l-.145-.022-.026.171zm-1.414-.218h-.171v.149l.145.022.026-.171zm0-.345v-.173h-.171v.173h.171zm4.519 0h.171v-.173h-.171v.173zm0 .345l.026.171.145-.022v-.15h-.171zm-1.414.218l-.026-.171-.145.022v.15h.171zm0 5.115h-.171v.173h.171v-.174zm1.614 0v.173h.004l-.004-.174zm1.261-.58l.124.12.002-.002-.126-.117zm.753-1.532l-.166-.041.166.041zm.476-1.97l-.165-.043v.001l.165.042zm.646-1.314l-.119-.125-.001.002.12.123zm1.937-.14l-.106.135.003.002.103-.138zm.123 1.516l-.124-.12-.003.005.127.115zm-.968.282l-.16.06.041.113h.119v-.173zm-1.399-.141l.166.041v-.001l-.166-.04zm-.477 1.97l.166.043v-.001l-.166-.042zm-.538 1.252l.139.101.001-.002-.14-.1zm-.815.719l-.071-.157-.543.257.594.073.02-.173zm1.953.75l.112-.13-.112.13zm.83 1.612l.169-.027-.169.027zm.353 2.361l-.168.026v.001l.168-.027zm.262 1.11l-.156.072.156-.071zm.399.376l.055-.165-.008-.003-.007-.001-.04.169zm1.107-.516l.125-.12-.123-.132-.124.13.122.122zm.262.281l.128.115.103-.119-.107-.115-.124.12zm-1.953.78c-.549 0-.929-.134-1.172-.373l-.238.25c.331.324.812.471 1.41.471v-.348zm-1.172-.373c-.247-.242-.434-.677-.534-1.34l-.338.053c.105.691.308 1.216.634 1.537l.238-.25zm-.534-1.338l-.369-2.643-.338.049.369 2.643.338-.05zm-.369-2.643c-.105-.758-.334-1.34-.711-1.712l-.238.25c.3.296.511.788.611 1.51l.338-.048zm-.711-1.712c-.385-.379-.981-.549-1.749-.549v.348c.73 0 1.219.163 1.511.451l.238-.25zm-1.749-.549h-1.291v.348h1.291v-.348zm-1.462.174v5.896h.342v-5.896h-.342zm.144 6.067l1.414.235.055-.343-1.415-.235-.054.343zm1.27.063v.329h.342v-.329h-.342zm.171.155h-4.519v.348h4.519v-.348zm-4.348.174v-.329h-.342v.329h.342zm-.144-.157l1.414-.235-.054-.343-1.415.235.055.343zm1.558-.406V12.379h-.342v11.386h.342zm-.145-11.557l-1.415-.22-.051.344 1.414.22.052-.344zm-1.269-.047v-.345h-.342v.345h.342zm-.171-.17h4.519v-.348h-4.519v.347zm4.348-.175v.345h.342v-.345h-.342zm.146.173l-1.415.219.052.343 1.414-.219-.051-.343zm-1.56.39v5.115h.342v-5.115h-.342zm.171 5.288h1.614v-.347h-1.614v.347zm1.618 0a1.88 1.88 0 001.381-.633l-.248-.238a1.547 1.547 0 01-1.14.524l.007.347zm1.383-.635c.372-.412.634-.95.793-1.608l-.332-.083c-.148.614-.388 1.097-.713 1.456l.252.235zm.793-1.608l.476-1.97-.331-.084-.477 1.97.332.084zm.476-1.97c.139-.567.343-.972.601-1.233l-.241-.246c-.317.322-.543.793-.691 1.395l.331.084zm.599-1.231c.265-.261.577-.39.942-.39v-.347c-.455 0-.851.164-1.18.487l.238.25zm.942-.39c.303 0 .557.088.77.26l.212-.272a1.52 1.52 0 00-.982-.335v.348zm.773.262a.768.768 0 01.317.644h.341c0-.378-.154-.69-.452-.92l-.206.276zm.317.644c0 .266-.076.466-.215.616l.249.239c.209-.226.307-.516.307-.855h-.341zm-.218.62c-.127.146-.299.223-.534.223v.347c.319 0 .588-.11.789-.34l-.255-.23zm-.534.223h-.307v.347h.307v-.347zm-.147.113c-.089-.241-.207-.438-.364-.575a.835.835 0 00-.565-.21v.347c.135 0 .246.042.342.126.099.087.191.226.267.433l.32-.12zm-.929-.786a.782.782 0 00-.52.173.877.877 0 00-.276.493l.332.08a.539.539 0 01.162-.305.45.45 0 01.302-.093v-.348zm-.796.664l-.477 1.97.332.084.476-1.97-.331-.084zm-.477 1.97c-.118.473-.29.87-.512 1.194l.28.199a4.02 4.02 0 00.564-1.307l-.332-.086zm-.51 1.192c-.222.314-.473.532-.748.664l.144.314c.338-.16.632-.422.881-.775l-.277-.203zm-.697.994c.831.101 1.445.344 1.862.71l.223-.264c-.486-.427-1.174-.685-2.044-.791l-.041.345zm1.862.71c.416.365.675.862.773 1.505l.337-.053c-.108-.713-.402-1.289-.887-1.716l-.223.263zm.773 1.505l.353 2.361.337-.052-.353-2.362-.337.053zm.353 2.362c.082.532.172.923.274 1.155l.312-.143c-.082-.185-.167-.534-.249-1.066l-.337.054zm.274 1.155c.108.244.278.416.516.473l.079-.338c-.11-.026-.207-.105-.283-.278l-.312.143zm.502.469a.61.61 0 00.192.024v-.347a.575.575 0 01-.084-.007l-.108.33zm.192.024c.375 0 .738-.215 1.091-.584l-.245-.242c-.324.34-.605.479-.846.479v.347zm.844-.586l.262.282.248-.239-.261-.282-.249.239zm.258.047c-.525.604-1.131.896-1.825.896v.347c.804 0 1.499-.344 2.081-1.013l-.256-.23zm8.202.725l-.123.12.006.006.117-.126zm-.076-1.58l-.127-.116h-.001l.128.117zm1.214-.187l-.095.144.007.005.008.004.08-.153zm.277.235l-.145.092.007.01.008.01.13-.112zm.107.156l.095.145.109-.074-.041-.126-.163.055zm-.169.797l-.129.115.009.008.12-.123zm1.184-.64l-.154-.076-.001.002.155.073zm.599-2.597l-.169-.024v.002l.169.022zm.369-4.926l-.17-.008.17.008zm.108-2.534l.171.008.005-.122-.11-.046-.066.16zm-1.629-.688h-.171v.116l.106.045.065-.16zm0-.36v-.173h-.171v.173h.171zm8.946 0h.171v-.173h-.171v.173zm0 .345l.026.171.145-.022v-.15h-.171zm-1.429.218l-.025-.171-.146.022v.15h.171zm0 11.386h-.171v.148l.143.023.028-.171zm1.429.234h.171v-.147l-.143-.024-.028.171zm0 .329v.174h.171v-.174h-.171zm-4.55 0h-.171v.174h.171v-.174zm0-.329l-.027-.171-.144.024v.147h.171zm1.43-.234l.027.171.144-.023v-.148h-.171zm0-11.558h.171v-.173h-.171v.173zm-3.751 0v-.173h-.163l-.007.166.17.007zm-.139 3.206l.171.008-.171-.008zm-.399 5.38l.17.024-.17-.024zm-.815 2.784l-.144-.092h-.001l.145.092zm-1.614.733c-.47 0-.782-.11-.973-.295l-.236.25c.28.274.695.393 1.209.393v-.348zm-.968-.29a1.056 1.056 0 01-.291-.756h-.342c0 .387.129.723.386.996l.247-.24zm-.291-.756c0-.229.073-.422.218-.587l-.255-.232a1.21 1.21 0 00-.305.82h.342zm.218-.587c.147-.166.349-.255.626-.255v-.348c-.358 0-.658.12-.88.37l.254.233zm.626-.255c.16 0 .278.035.366.095l.19-.289a.97.97 0 00-.556-.154v.348zm.381.104a.56.56 0 01.212.174l.29-.185a.894.894 0 00-.341-.295l-.161.306zm.227.195a1.141 1.141 0 01.076.098l.324-.11a.443.443 0 00-.057-.107 1.294 1.294 0 00-.083-.108l-.26.227zm.143-.102c-.224.152-.353.365-.353.63h.341c0-.131.057-.242.201-.34l-.189-.29zm-.353.63a.64.64 0 00.15.427l.257-.229a.288.288 0 01-.066-.198h-.341zm.158.435a.6.6 0 00.443.176v-.347c-.095 0-.156-.028-.201-.074l-.242.245zm.443.176c.441 0 .771-.336 1.016-.866l-.31-.148c-.227.493-.47.667-.706.667v.347zm1.016-.864c.257-.548.46-1.437.614-2.65l-.339-.044c-.153 1.207-.351 2.048-.584 2.543l.309.15zm.614-2.648c.165-1.218.288-2.866.37-4.943l-.341-.014c-.082 2.072-.204 3.708-.368 4.91l.339.047zm.37-4.943l.108-2.533-.341-.015-.108 2.533.341.015zm.003-2.701l-1.63-.688-.13.32 1.629.689.131-.321zm-1.525-.528v-.36h-.341v.36h.341zm-.17-.186h8.946v-.347h-8.946v.347zm8.776-.174v.345h.341v-.345h-.341zm.146.173l-1.43.218.05.344 1.43-.219-.05-.343zm-1.576.39v11.386h.342V12.379h-.342zm.143 11.557l1.43.235.055-.343-1.43-.235-.055.343zm1.287.063v.329h.341v-.329h-.341zm.17.155h-4.55v.348h4.55v-.348zm-4.379.174v-.329h-.342v.329h.342zm-.144-.157l1.43-.235-.055-.343-1.429.235.054.343zm1.574-.406V12.207h-.342v11.558h.342zm-.171-11.731h-3.751v.347h3.751v-.347zm-3.921.166l-.138 3.206.34.015.139-3.206-.341-.015zm-.138 3.206c-.103 2.334-.236 4.12-.399 5.364l.339.046c.165-1.258.298-3.058.4-5.395l-.34-.015zm-.399 5.364c-.163 1.232-.43 2.13-.79 2.715l.289.184c.398-.646.674-1.602.84-2.852l-.339-.047zm-.791 2.715c-.337.553-.82.826-1.469.826v.347c.766 0 1.359-.333 1.759-.99l-.29-.183zm20.601.327l-.09.148.09-.148zm-2.06-2.315l-.153.078.153-.078zm0-6.834l.152.078-.152-.078zm2.06-2.33l.09.147-.09-.148zm5.995 0l-.089.147.089-.148zm2.06 2.33l-.153.077v.001l.153-.078zm0 6.834l.152.079v-.001l-.152-.078zm-2.06 2.315l.09.148-.09-.148zm-1.014-.125l-.094-.146-.001.001.095.145zm1.399-1.72l.154.072.001-.001-.155-.072zm0-7.773l-.157.071h.001l.156-.071zm-1.399-1.736l-.095.144.001.001.094-.145zm-3.982 0l-.095-.145.095.145zm-1.383 1.736l.154.072h.001l-.155-.072zm0 7.772l-.157.072h.001l.156-.072zm1.383 1.72l.095-.144-.095.145zm1.999.78c-1.088 0-2.057-.268-2.908-.802l-.18.296c.911.57 1.942.854 3.088.854v-.347zm-2.908-.802c-.854-.535-1.52-1.282-1.998-2.245l-.305.157c.506 1.017 1.213 1.813 2.123 2.384l.18-.296zm-1.998-2.245c-.478-.973-.719-2.088-.719-3.347h-.342c0 1.306.251 2.475.756 3.503l.305-.155zm-.719-3.347c0-1.26.241-2.368.719-3.33l-.305-.158c-.505 1.019-.756 2.183-.756 3.488h.342zm.719-3.332c.479-.973 1.144-1.725 1.998-2.26l-.18-.296c-.91.571-1.618 1.373-2.123 2.401l.305.155zm1.998-2.26c.851-.534 1.82-.803 2.908-.803v-.347c-1.146 0-2.177.284-3.088.854l.18.296zm2.908-.803c1.088 0 2.055.269 2.908.803l.179-.296c-.911-.57-1.941-.854-3.087-.854v.347zm2.908.803c.852.535 1.517 1.287 1.996 2.26l.305-.155c-.504-1.028-1.212-1.83-2.122-2.4l-.179.295zm1.996 2.261c.479.963.72 2.072.72 3.331h.342c0-1.305-.251-2.47-.757-3.488l-.305.157zm.72 3.331c0 1.26-.241 2.374-.72 3.348l.305.155c.506-1.028.757-2.197.757-3.503h-.342zm-.72 3.347c-.478.963-1.144 1.71-1.996 2.245l.179.296c.91-.57 1.617-1.367 2.122-2.384l-.305-.157zm-1.996 2.245c-.853.534-1.82.803-2.908.803v.347c1.146 0 2.176-.284 3.087-.854l-.179-.296zm-2.908.79a3.62 3.62 0 002.077-.623l-.189-.289a3.285 3.285 0 01-1.888.565v.348zm2.076-.622c.625-.417 1.111-1.017 1.46-1.793l-.31-.145c-.327.725-.774 1.272-1.337 1.647l.187.291zm1.461-1.794c.35-.788.523-1.71.523-2.762h-.342c0 1.014-.166 1.885-.493 2.619l.312.143zm.523-2.762v-2.408h-.342v2.408h.342zm0-2.408c0-1.051-.173-1.968-.524-2.747l-.31.145c.326.723.492 1.589.492 2.602h.342zm-.523-2.746c-.349-.786-.835-1.393-1.461-1.81l-.187.291c.563.375 1.01.926 1.336 1.662l.312-.143zm-1.46-1.809a3.62 3.62 0 00-2.077-.623v.347c.705 0 1.333.19 1.888.565l.189-.289zm-2.077-.623c-.78 0-1.48.207-2.094.623l.19.29c.553-.377 1.186-.566 1.904-.566v-.348zm-2.094.623c-.615.417-1.095 1.023-1.445 1.809l.312.143c.327-.736.77-1.288 1.323-1.663l-.19-.289zm-1.444 1.808c-.351.778-.522 1.696-.522 2.747h.341c0-1.013.166-1.879.491-2.602l-.31-.145zm-.522 2.747v2.408h.341v-2.408h-.341zm0 2.408c0 1.052.171 1.974.521 2.762l.312-.143c-.326-.734-.492-1.605-.492-2.619h-.341zm.522 2.763c.35.775.829 1.375 1.444 1.792l.19-.289c-.554-.376-.997-.922-1.324-1.648l-.31.145zm1.444 1.792c.614.417 1.314.624 2.094.624v-.348c-.718 0-1.351-.19-1.904-.565l-.19.29z" fill="#113E4A"/><path d="M5.244 44.574v6.514h-.95v-4.482c0-.136.003-.278.009-.426a4.51 4.51 0 01.045-.472 5.77 5.77 0 01-.174.404c-.06.124-.12.234-.179.331l-2.862 4.341a.83.83 0 01-.179.209.358.358 0 01-.245.095H0v-6.514h.954v4.482c0 .136-.004.28-.013.431-.006.148-.02.305-.04.472a4.681 4.681 0 01.348-.74l2.867-4.341a.874.874 0 01.174-.209.358.358 0 01.245-.095h.709zm5.138.608c.243-.218.527-.384.851-.499a3.228 3.228 0 011.102-.177c.333 0 .633.042.9.127.268.082.495.197.683.345.187.148.331.325.432.53.101.206.152.431.152.676 0 .321-.078.605-.232.853a1.61 1.61 0 01-.656.586c.161.072.307.158.437.258.131.1.243.213.335.34a1.4 1.4 0 01.218.409c.054.145.08.299.08.462 0 .288-.051.557-.155.808a1.869 1.869 0 01-.46.653 2.2 2.2 0 01-.736.44 2.916 2.916 0 01-.998.159c-.458 0-.874-.077-1.249-.232a2.9 2.9 0 01-.954-.621l.272-.463a.3.3 0 01.094-.09.232.232 0 01.124-.037c.066 0 .143.033.232.1a2.82 2.82 0 00.816.44c.19.067.42.1.691.1.455 0 .807-.104 1.057-.313.25-.212.375-.511.375-.898a1.025 1.025 0 00-.37-.799 1.252 1.252 0 00-.433-.222 1.793 1.793 0 00-.575-.077h-.883v-.794h.834c.184 0 .352-.021.504-.064a1.24 1.24 0 00.397-.19.87.87 0 00.254-.308.926.926 0 00.093-.422.854.854 0 00-.339-.69 1.137 1.137 0 00-.4-.195 1.838 1.838 0 00-.54-.073 2.057 2.057 0 00-1.021.245c-.116.06-.213.117-.29.168a.37.37 0 01-.192.073.204.204 0 01-.125-.036.367.367 0 01-.094-.114l-.231-.458zm13.32.15h-2.925v5.756h-.954v-6.514h3.879v.758zm10.513 2.5c0 .486-.077.934-.232 1.342a3.097 3.097 0 01-.646 1.052c-.28.294-.614.522-1.004.685a3.306 3.306 0 01-1.297.245c-.473 0-.905-.081-1.298-.245a2.935 2.935 0 01-1.003-.685 3.191 3.191 0 01-.646-1.052 3.763 3.763 0 01-.232-1.343c0-.484.077-.93.232-1.338.154-.408.37-.76.646-1.053.28-.296.614-.526 1.003-.689a3.3 3.3 0 011.298-.25c.476 0 .908.084 1.297.25.39.163.724.393 1.004.69.28.293.495.644.646 1.052.155.408.232.854.232 1.338zm-.972 0c0-.388-.052-.736-.156-1.044a2.211 2.211 0 00-.446-.785 1.898 1.898 0 00-.695-.494 2.305 2.305 0 00-.91-.173c-.336 0-.64.058-.914.173a1.95 1.95 0 00-.696.494 2.216 2.216 0 00-.446.785 3.256 3.256 0 00-.156 1.043c0 .39.052.74.156 1.048.104.306.253.566.446.78.194.215.425.38.696.495.273.112.578.168.914.168.336 0 .64-.056.91-.168.273-.115.505-.28.695-.495.194-.214.342-.474.446-.78a3.27 3.27 0 00.156-1.048zm10.184-2.45h-2.033v5.706h-.945v-5.706h-2.043v-.808h5.021v.808zm10.541 2.45c0 .486-.077.934-.232 1.342a3.097 3.097 0 01-.646 1.052c-.28.294-.614.522-1.004.685a3.306 3.306 0 01-1.297.245c-.473 0-.905-.081-1.298-.245a2.935 2.935 0 01-1.003-.685 3.193 3.193 0 01-.646-1.052 3.763 3.763 0 01-.232-1.343c0-.484.077-.93.232-1.338.154-.408.37-.76.646-1.053.28-.296.614-.526 1.003-.689a3.3 3.3 0 011.298-.25c.476 0 .908.084 1.297.25.39.163.724.393 1.004.69.28.293.495.644.646 1.052.155.408.232.854.232 1.338zm-.972 0c0-.388-.052-.736-.156-1.044a2.213 2.213 0 00-.446-.785 1.9 1.9 0 00-.695-.494 2.306 2.306 0 00-.91-.173c-.336 0-.64.058-.914.173-.27.114-.503.28-.696.494a2.214 2.214 0 00-.446.785 3.256 3.256 0 00-.156 1.043c0 .39.052.74.156 1.048.104.306.253.566.446.78.193.215.425.38.696.495.273.112.578.168.914.168.336 0 .639-.056.91-.168a1.9 1.9 0 00.695-.495 2.21 2.21 0 00.446-.78 3.27 3.27 0 00.156-1.048zm8.376 2.49c.241 0 .446-.03.616-.087.172-.057.312-.136.419-.235.11-.1.19-.218.24-.354.051-.14.076-.29.076-.454 0-.324-.11-.578-.33-.762-.22-.188-.56-.281-1.02-.281h-1.338v2.173h1.337zm-1.337-4.99v2.132h1.092c.467 0 .813-.096 1.039-.286.229-.194.343-.454.343-.78 0-.372-.108-.643-.325-.812-.217-.17-.555-.254-1.012-.254h-1.137zm1.137-.758c.4 0 .744.04 1.03.118.288.079.524.192.709.34.184.149.32.328.405.54.09.209.134.446.134.712 0 .158-.024.309-.071.454-.048.145-.12.281-.219.408a1.613 1.613 0 01-.37.336 2.14 2.14 0 01-.526.25c.93.187 1.396.681 1.396 1.483 0 .278-.05.532-.152.762a1.665 1.665 0 01-.441.59 2.028 2.028 0 01-.714.385c-.282.09-.603.136-.963.136h-2.305v-6.514h2.087zm12.56 6.514h-.954v-5.756h-2.02c-.042.831-.1 1.553-.174 2.163a14.482 14.482 0 01-.259 1.566c-.1.429-.215.78-.343 1.052a2.242 2.242 0 01-.424.64c-.152.154-.315.26-.49.317a1.867 1.867 0 01-.558.082c-.35 0-.526-.064-.526-.19v-.613h.317a.96.96 0 00.339-.064.795.795 0 00.33-.272 2.32 2.32 0 00.303-.594c.098-.26.186-.603.263-1.03.077-.43.142-.956.196-1.579.056-.622.1-1.368.13-2.236h3.87v6.514zm9.48-.785l-.005.785h-3.969v-6.514h3.969v.785h-3.014v2.064h2.425v.758h-2.425v2.123h3.019zm10.341-5.729v6.514h-.95v-2.935h-3.34v2.935h-.954v-6.514h.955v2.876h3.34v-2.876h.95zm10.752 0v6.514h-.95v-4.482c0-.136.003-.278.009-.426.005-.151.021-.309.044-.472-.056.145-.114.28-.173.404-.06.124-.119.234-.178.331l-2.863 4.341a.865.865 0 01-.178.209.36.36 0 01-.246.095h-.709v-6.514h.955v4.482c0 .136-.005.28-.014.431-.006.148-.02.305-.04.472a4.665 4.665 0 01.348-.74l2.867-4.341a.868.868 0 01.174-.209.356.356 0 01.245-.095h.709zm9.481 5.73l-.005.784h-3.969v-6.514h3.969v.785h-3.014v2.064h2.425v.758h-2.425v2.123h3.019zm10.907-5.122c.243-.218.528-.384.851-.499a3.233 3.233 0 011.102-.177c.333 0 .633.042.901.127.267.082.495.197.682.345.187.148.331.325.433.53.1.206.151.431.151.676 0 .321-.078.605-.232.853a1.6 1.6 0 01-.655.586c.16.072.306.158.437.258s.242.213.334.34a1.4 1.4 0 01.218.409c.054.145.081.299.081.462 0 .288-.052.557-.156.808a1.872 1.872 0 01-.46.653 2.188 2.188 0 01-.735.44 2.918 2.918 0 01-.999.159 3.23 3.23 0 01-1.248-.232 2.905 2.905 0 01-.955-.621l.272-.463a.301.301 0 01.094-.09.23.23 0 01.125-.037c.065 0 .143.033.232.1a2.83 2.83 0 00.815.44c.191.067.421.1.692.1.455 0 .807-.104 1.056-.313.25-.212.375-.511.375-.898a1.029 1.029 0 00-.37-.799 1.25 1.25 0 00-.433-.222 1.785 1.785 0 00-.575-.077h-.882v-.794h.833c.185 0 .353-.021.504-.064a1.24 1.24 0 00.397-.19.875.875 0 00.254-.308.918.918 0 00.094-.422.848.848 0 00-.339-.69 1.137 1.137 0 00-.402-.195 1.832 1.832 0 00-.539-.073 2.059 2.059 0 00-1.021.245c-.116.06-.213.117-.29.168a.369.369 0 01-.192.073.21.21 0 01-.125-.036.367.367 0 01-.093-.114l-.232-.458zm13.414 5.121l-.004.785h-3.969v-6.514h3.969v.785h-3.015v2.064h2.426v.758h-2.426v2.123h3.019zm7.038-2.377c.24 0 .451-.031.633-.095a1.143 1.143 0 00.74-.685 1.51 1.51 0 00.094-.54c0-.396-.122-.707-.366-.934-.24-.227-.608-.34-1.101-.34h-.99v2.594h.99zm0-3.352c.41 0 .766.049 1.07.145.303.097.554.235.754.413a1.6 1.6 0 01.441.64c.098.25.147.529.147.834 0 .306-.052.587-.156.844a1.807 1.807 0 01-.459.658 2.125 2.125 0 01-.758.43c-.301.1-.647.15-1.039.15h-.99v2.4h-.95v-6.514h1.94zm12.578 6.514h-.851a.376.376 0 01-.241-.077.784.784 0 01-.178-.222l-1.611-2.332a.756.756 0 00-.12-.15.438.438 0 00-.129-.1.455.455 0 00-.161-.054.96.96 0 00-.2-.018h-.754v2.953h-.949v-6.514h.949v2.817h.647c.13 0 .242-.02.334-.059a.684.684 0 00.272-.25l1.61-2.24a.665.665 0 01.169-.19.398.398 0 01.246-.078h.802l-1.886 2.658c-.074.11-.159.2-.254.273-.096.07-.199.125-.312.167.16.043.296.114.405.214.114.096.222.231.326.403l1.886 2.8zm8.153-2.427l-.949-2.526a5.988 5.988 0 01-.103-.29 11.545 11.545 0 01-.098-.36 5.3 5.3 0 01-.102.364 5.599 5.599 0 01-.098.295l-.946 2.517h2.296zm1.882 2.427h-.735a.318.318 0 01-.205-.063.395.395 0 01-.116-.163l-.567-1.511h-2.818l-.566 1.51a.423.423 0 01-.121.16.297.297 0 01-.2.067h-.736l2.55-6.514h.964l2.55 6.514zm9.76 0h-.955v-5.756h-2.019c-.042.831-.1 1.553-.174 2.163a14.482 14.482 0 01-.259 1.566c-.101.429-.216.78-.343 1.052a2.24 2.24 0 01-.424.64c-.152.154-.315.26-.49.317a1.87 1.87 0 01-.557.082c-.351 0-.527-.064-.527-.19v-.613h.317a.952.952 0 00.338-.064.789.789 0 00.33-.272 2.29 2.29 0 00.304-.594c.098-.26.185-.603.263-1.03a17.6 17.6 0 00.196-1.579c.056-.622.1-1.368.129-2.236h3.871v6.514zm16.93-6.514v6.514h-.95v-4.482c0-.136.003-.278.009-.426.006-.151.021-.309.044-.472-.056.145-.114.28-.173.404a3.67 3.67 0 01-.179.331l-2.862 4.341a.848.848 0 01-.179.209.357.357 0 01-.245.095h-.709v-6.514h.954v4.482c0 .136-.004.28-.013.431-.006.148-.02.305-.04.472a4.37 4.37 0 01.348-.74l2.866-4.341a.873.873 0 01.175-.209.357.357 0 01.245-.095h.709zm16.159 5.117c.054 0 .1.021.139.064l.375.417a2.68 2.68 0 01-.96.73c-.374.173-.826.259-1.355.259a3.15 3.15 0 01-1.262-.245 2.811 2.811 0 01-.963-.685 3.094 3.094 0 01-.615-1.053 3.976 3.976 0 01-.219-1.347c0-.49.076-.939.228-1.347.154-.408.37-.76.646-1.053a2.9 2.9 0 01.99-.684 3.258 3.258 0 011.28-.245c.455 0 .859.075 1.213.226.353.151.661.353.923.604l-.313.449a.25.25 0 01-.08.081.202.202 0 01-.12.032c-.057 0-.123-.029-.201-.086a2.38 2.38 0 00-.298-.19 2.22 2.22 0 00-.455-.196 2.28 2.28 0 00-.678-.086c-.318 0-.61.058-.874.173a1.902 1.902 0 00-.686.49 2.24 2.24 0 00-.446.784 3.243 3.243 0 00-.157 1.048c0 .396.055.749.166 1.057.109.309.261.57.454.785.193.215.421.378.682.49.262.112.544.168.847.168.185 0 .35-.01.496-.032a2.16 2.16 0 00.405-.104c.125-.046.242-.103.353-.173a2.48 2.48 0 00.325-.258.3.3 0 01.076-.05.17.17 0 01.084-.023zm9.757-4.31h-2.034v5.707h-.945v-5.706h-2.042v-.808h5.021v.808zm8.818 4.922l-.005.785h-3.968v-6.514h3.968v.785h-3.014v2.064h2.425v.758h-2.425v2.123h3.019zm10.293.785h-.852a.38.38 0 01-.241-.077.82.82 0 01-.178-.222l-1.61-2.332a.835.835 0 00-.12-.15.465.465 0 00-.129-.1.47.47 0 00-.161-.054.978.978 0 00-.201-.018h-.753v2.953h-.95v-6.514h.95v2.817h.646c.131 0 .242-.02.335-.059a.683.683 0 00.271-.25l1.611-2.24a.637.637 0 01.169-.19.395.395 0 01.245-.078h.802l-1.885 2.658c-.075.11-.16.2-.255.273-.095.07-.199.125-.312.167a.953.953 0 01.406.214c.113.096.222.231.325.403l1.887 2.8zm9.748 0h-.954v-5.756h-2.021a30.347 30.347 0 01-.173 2.163 14.004 14.004 0 01-.259 1.566c-.101.429-.215.78-.343 1.052a2.24 2.24 0 01-.424.64 1.22 1.22 0 01-.49.317 1.871 1.871 0 01-.558.082c-.35 0-.526-.064-.526-.19v-.613h.317a.961.961 0 00.339-.064.795.795 0 00.33-.272c.107-.139.208-.337.303-.594.098-.26.186-.603.263-1.03a17.6 17.6 0 00.196-1.579c.057-.622.1-1.368.13-2.236h3.87v6.514zm8.895-2.427l-.949-2.526a5.988 5.988 0 01-.103-.29 11.545 11.545 0 01-.098-.36 6.908 6.908 0 01-.2.659l-.946 2.517h2.296zM260 51.088h-.735a.318.318 0 01-.205-.063.386.386 0 01-.116-.163l-.567-1.511h-2.818l-.566 1.51a.423.423 0 01-.121.16.297.297 0 01-.2.067h-.736l2.55-6.514h.963L260 51.088z" fill="#989898"/></g><defs><clipPath id="clip0"><path fill="#fff" d="M0 0h261v53H0z"/></clipPath></defs></svg>