<svg width="39" height="38" fill="none" xmlns="http://www.w3.org/2000/svg"><g clip-path="url(#clip0)"><path d="M39 19c0 6.273-5.2 11.4-11.7 11.4-6.438 0-11.7-5.127-11.7-11.4 0-6.273 5.2-11.4 11.638-11.4C33.8 7.6 39 12.727 39 19z" fill="#FFB600"/><path d="M27.3 7.6C33.738 7.6 39 12.727 39 19c0 6.273-5.2 11.4-11.7 11.4-6.438 0-11.7-5.127-11.7-11.4" fill="#F7981D"/><path d="M27.3 7.6C33.738 7.6 39 12.727 39 19c0 6.273-5.2 11.4-11.7 11.4" fill="#FF8500"/><path d="M11.576 7.6C5.2 7.66 0 12.727 0 19c0 6.273 5.2 11.4 11.7 11.4 3.033 0 5.757-1.146 7.862-2.955.433-.362.805-.785 1.176-1.207h-2.414c-.31-.362-.62-.784-.867-1.146h4.148c.247-.362.495-.784.68-1.206h-5.509a7.083 7.083 0 01-.495-1.206h6.438c.371-1.147.62-2.353.62-3.62 0-.844-.125-1.628-.248-2.412h-7.182c.062-.422.186-.784.31-1.207h6.438a7.08 7.08 0 00-.495-1.206h-5.448c.186-.422.434-.784.681-1.206h4.148a5.753 5.753 0 00-.929-1.207h-2.29c.371-.422.743-.784 1.176-1.146-2.043-1.87-4.829-2.955-7.862-2.955 0-.12 0-.12-.062-.12z" fill="#FF5050"/><path d="M0 19c0 6.273 5.2 11.4 11.7 11.4 3.033 0 5.757-1.146 7.862-2.955.433-.362.805-.785 1.176-1.207h-2.414c-.31-.362-.62-.784-.867-1.146h4.148a7.67 7.67 0 00.68-1.206h-5.509a7.08 7.08 0 01-.495-1.207h6.438c.371-1.146.62-2.352.62-3.619 0-.844-.125-1.628-.248-2.412h-7.182c.062-.422.186-.784.31-1.207h6.438a7.083 7.083 0 00-.495-1.206h-5.448c.186-.422.434-.784.681-1.206h4.148a5.755 5.755 0 00-.929-1.207h-2.29c.371-.422.743-.784 1.176-1.146-2.043-1.87-4.829-2.955-7.862-2.955h-.062" fill="#E52836"/><path d="M11.7 30.4c3.033 0 5.757-1.146 7.862-2.955.433-.362.805-.785 1.176-1.207h-2.414c-.31-.362-.62-.784-.867-1.146h4.148c.247-.362.495-.784.68-1.206h-5.509a7.081 7.081 0 01-.495-1.207h6.438c.371-1.146.62-2.352.62-3.619 0-.844-.125-1.628-.248-2.412h-7.182c.062-.422.186-.784.31-1.207h6.438a7.083 7.083 0 00-.495-1.206h-5.448c.186-.422.434-.784.681-1.206h4.148a5.75 5.75 0 00-.929-1.207h-2.29c.371-.422.743-.784 1.176-1.146-2.043-1.87-4.829-2.955-7.862-2.955h-.062" fill="#CB2026"/><path d="M15.848 21.895l.185-1.025c-.062 0-.185.06-.31.06-.432 0-.494-.241-.432-.362l.371-2.11h.681l.186-1.147h-.62l.124-.724h-1.238s-.742 3.981-.742 4.464c0 .724.433 1.025.99 1.025.371 0 .68-.12.805-.18zm.432-1.93c0 1.689 1.177 2.111 2.167 2.111.929 0 1.3-.18 1.3-.18l.248-1.147s-.68.302-1.3.302c-1.362 0-1.114-.965-1.114-.965h2.538s.186-.784.186-1.086c0-.784-.434-1.75-1.796-1.75-1.3-.12-2.228 1.207-2.228 2.715zm2.167-1.75c.681 0 .558.785.558.845h-1.362c0-.06.123-.844.804-.844zm7.863 3.68l.247-1.327s-.619.302-1.052.302c-.867 0-1.238-.664-1.238-1.387 0-1.448.742-2.232 1.61-2.232.618 0 1.114.362 1.114.362l.185-1.267s-.743-.302-1.424-.302c-1.423 0-2.847 1.207-2.847 3.499 0 1.508.743 2.533 2.228 2.533.496 0 1.177-.18 1.177-.18zM9.038 17.13c-.866 0-1.486.241-1.486.241l-.185 1.026s.557-.241 1.362-.241c.433 0 .804.06.804.422 0 .241-.061.301-.061.301h-.558c-1.052 0-2.228.423-2.228 1.81 0 1.086.743 1.327 1.176 1.327.867 0 1.238-.543 1.3-.543l-.062.483h1.114l.496-3.318c0-1.448-1.238-1.508-1.672-1.508zm.248 2.714c0 .181-.124 1.146-.867 1.146-.371 0-.495-.301-.495-.482 0-.302.186-.724 1.114-.724.186.06.248.06.248.06zm2.6 2.172c.31 0 1.857.06 1.857-1.568 0-1.508-1.486-1.207-1.486-1.81 0-.302.248-.422.681-.422.186 0 .867.06.867.06l.186-1.085s-.434-.121-1.177-.121c-.928 0-1.857.362-1.857 1.568 0 1.387 1.548 1.267 1.548 1.81 0 .361-.434.422-.743.422-.557 0-1.114-.181-1.114-.181l-.186 1.086c.062.12.371.24 1.424.24zm24.7-5.851l-.248 1.629s-.495-.604-1.176-.604c-1.114 0-2.105 1.327-2.105 2.896 0 .965.495 1.99 1.548 1.99a1.67 1.67 0 001.176-.482l-.062.422h1.238l.929-5.79-1.3-.061zm-.557 3.197c0 .663-.31 1.508-.99 1.508-.434 0-.682-.362-.682-.965 0-.965.434-1.569.99-1.569.434 0 .682.302.682 1.026zM2.29 21.956l.743-4.343.124 4.343h.867l1.61-4.343-.682 4.343h1.3l.99-5.791H5.2l-1.238 3.559-.062-3.559H2.105l-.99 5.79H2.29zm19.19 0c.372-1.991.434-3.62 1.3-3.318.125-.784.31-1.086.434-1.387h-.247c-.558 0-.991.723-.991.723l.124-.663h-1.176l-.805 4.705h1.362v-.06zm7.677-4.826c-.867 0-1.486.241-1.486.241l-.185 1.026s.557-.241 1.361-.241c.434 0 .805.06.805.422 0 .241-.062.301-.062.301h-.557c-1.052 0-2.228.423-2.228 1.81 0 1.086.742 1.327 1.176 1.327.866 0 1.238-.543 1.3-.543l-.062.483h1.114l.495-3.318c.062-1.448-1.238-1.508-1.67-1.508zm.31 2.714c0 .181-.124 1.146-.867 1.146-.372 0-.495-.301-.495-.482 0-.302.185-.724 1.114-.724.186.06.186.06.248.06zm2.413 2.112c.372-1.991.434-3.62 1.3-3.318.125-.784.31-1.086.434-1.387h-.247c-.557 0-.99.723-.99.723l.123-.663h-1.176l-.805 4.705h1.362v-.06z" fill="#fff"/><path d="M13.928 21.05c0 .725.434 1.026.99 1.026.434 0 .806-.12.93-.18l.185-1.026c-.062 0-.186.06-.31.06-.433 0-.495-.241-.433-.362l.372-2.11h.68l.187-1.147h-.62l.124-.724m.867 3.378c0 1.689.557 2.111 1.548 2.111.928 0 1.3-.18 1.3-.18l.247-1.147s-.68.302-1.3.302c-1.362 0-1.114-.965-1.114-.965h2.538s.186-.784.186-1.086c0-.784-.434-1.75-1.796-1.75-1.3-.12-1.61 1.207-1.61 2.715zm1.548-1.75c.68 0 .804.785.804.845h-1.61c0-.06.125-.844.806-.844zm7.862 3.68l.247-1.327s-.619.302-1.052.302c-.867 0-1.238-.664-1.238-1.387 0-1.448.742-2.232 1.61-2.232.618 0 1.113.362 1.113.362l.186-1.267s-.743-.302-1.424-.302c-1.424 0-2.228 1.207-2.228 3.499 0 1.508.123 2.533 1.61 2.533.494 0 1.175-.18 1.175-.18zM7.367 18.457s.557-.241 1.362-.241c.433 0 .804.06.804.422 0 .241-.061.302-.061.302h-.558c-1.052 0-2.228.422-2.228 1.81 0 1.085.743 1.326 1.176 1.326.867 0 1.238-.543 1.3-.543l-.062.483h1.114l.496-3.318c0-1.387-1.238-1.447-1.734-1.447l-1.61 1.206zm2.538 1.387c0 .181-.743 1.146-1.486 1.146-.371 0-.495-.301-.495-.482 0-.302.186-.724 1.114-.724.186.06.867.06.867.06zm.619 2.051s.371.12 1.424.12c.31 0 1.857.061 1.857-1.567 0-1.508-1.486-1.207-1.486-1.81 0-.302.248-.422.681-.422.186 0 .867.06.867.06l.185-1.085s-.433-.121-1.176-.121c-.928 0-1.238.362-1.238 1.568 0 1.387.929 1.267.929 1.81 0 .361-.434.422-.743.422m24.514-3.076s-.495-.604-1.176-.604c-1.114 0-1.486 1.327-1.486 2.896 0 .965-.124 1.99.929 1.99a1.67 1.67 0 001.176-.482l-.062.422h1.238l.929-5.79-1.548 1.568zm-.062 1.568c0 .663-.557 1.508-1.238 1.508-.433 0-.68-.362-.68-.965 0-.965.432-1.569.99-1.569.433 0 .928.302.928 1.026zM2.29 21.956l.743-4.343.124 4.343h.867l1.61-4.343-.682 4.343h1.3l.99-5.791H5.696l-1.733 3.559-.062-3.559H3.22l-2.105 5.79H2.29zm17.89 0h1.3c.372-1.991.434-3.62 1.3-3.318.125-.784.31-1.086.434-1.387h-.247c-.557 0-.99.723-.99.723l.123-.663m5.386 1.146s.557-.241 1.361-.241c.434 0 .805.06.805.422 0 .241-.062.302-.062.302h-.557c-1.052 0-2.228.422-2.228 1.81 0 1.085.742 1.326 1.176 1.326.866 0 1.238-.543 1.3-.543l-.062.483h1.114l.495-3.318c0-1.387-1.238-1.447-1.733-1.447l-1.61 1.206zm2.538 1.387c0 .181-.743 1.146-1.486 1.146-.371 0-.495-.301-.495-.482 0-.302.186-.724 1.114-.724.248.06.867.06.867.06zm.556 2.112h1.3c.372-1.991.434-3.62 1.3-3.318.125-.784.31-1.086.434-1.387h-.247c-.558 0-.991.723-.991.723l.124-.663" fill="#DCE5E5"/></g><defs><clipPath id="clip0"><path fill="#fff" d="M0 0h39v38H0z"/></clipPath></defs></svg>