<svg width="42" height="11" fill="none" xmlns="http://www.w3.org/2000/svg"><g clip-path="url(#clip0)" fill-rule="evenodd" clip-rule="evenodd"><path d="M11.318 0v.005c-.005 0-1.64-.005-2.077 1.44-.4 1.327-1.526 4.987-1.557 5.088h-.312S6.22 2.79 5.815 1.44C5.378-.005 3.738 0 3.738 0H0v11h3.738V4.467h.311L6.23 11h2.597l2.18-6.528h.312V11h3.738V0h-3.738zm13.654 0s-1.096.091-1.61 1.153l-2.647 5.38h-.312V0h-3.738v11h3.53s1.148-.096 1.662-1.153l2.595-5.38h.312V11h3.738V0h-3.53zm5.191 4.996V11h3.738V7.493h4.05c1.765 0 3.26-1.042 3.815-2.497H30.163z" fill="#4DB45E"/><path d="M37.95 0h-8.31c.415 2.094 2.113 3.776 4.309 4.323a6.427 6.427 0 001.563.192h6.406a3.43 3.43 0 00.083-.768C42 1.677 40.188 0 37.95 0z" fill="url(#paint0_linear)"/></g><defs><linearGradient id="paint0_linear" x1="29.64" y1="2.258" x2="42" y2="2.258" gradientUnits="userSpaceOnUse"><stop offset=".3" stop-color="#00B4E6"/><stop offset="1" stop-color="#088CCB"/></linearGradient><clipPath id="clip0"><path fill="#fff" d="M0 0h42v11H0z"/></clipPath></defs></svg>