<svg width="14" height="14" fill="none" xmlns="http://www.w3.org/2000/svg"><path d="M8.433 3.294a2.874 2.874 0 012.269 2.264M8.432 1c1.167.13 2.254.65 3.084 1.478A5.157 5.157 0 0113 5.553m-.575 4.575v1.72a1.144 1.144 0 01-.78 1.092c-.152.05-.313.07-.472.055a11.383 11.383 0 01-4.958-1.76 11.191 11.191 0 01-3.447-3.44 11.334 11.334 0 01-1.763-4.972 1.145 1.145 0 011.143-1.25H3.87a1.15 1.15 0 011.15.987 7.35 7.35 0 00.401 1.61 1.145 1.145 0 01-.258 1.21l-.73.729a9.183 9.183 0 003.447 3.44l.73-.728a1.15 1.15 0 011.212-.258 7.387 7.387 0 001.614.401 1.15 1.15 0 01.989 1.164z" stroke="#00A6CA" stroke-linecap="round" stroke-linejoin="round"/></svg>