<svg width="10" height="8" fill="none" xmlns="http://www.w3.org/2000/svg"><path d="M8.183.197l1.55 1.973H7.292L6.127.197h2.056z" fill="#113E4A"/><path d="M9.734 2.17h-1.59L6.629 5.662 9.734 2.17zM4.964.197L3.8 2.17h3.49L6.128.197H4.964z" fill="#B0E7FF"/><path d="M7.29 2.17L4.965 7.536 2.637 2.17h4.654z" fill="#113E4A"/><path d="M2.637 2.17H1.183l2.839 3.194L2.637 2.17z" fill="#B0E7FF"/><path d="M3.8.197L2.637 2.17H.194L1.745.197H3.8z" fill="#113E4A"/><path d="M6.127 2.762a.196.196 0 00-.194.197c0 .109.087.197.194.197a.196.196 0 00.194-.197.196.196 0 00-.194-.197z" fill="#fff"/><path d="M.048 2.3l.002.002 4.77 5.366c.035.04.09.065.144.065a.196.196 0 00.144-.065l4.77-5.366.001-.002a.2.2 0 00.008-.251l-.002-.002L8.334.074A.193.193 0 008.183 0H1.745a.193.193 0 00-.151.074L.042 2.047l-.001.002a.2.2 0 00.007.251zM3.91.395h2.107l.931 1.578H2.979L3.91.395zm-.976 1.972h4.059l-2.03 4.68-2.029-4.68zm4.483 0h1.88l-3.67 4.129 1.79-4.129zm-4.906 0L4.3 6.496.631 2.367h1.88zm6.82-.394H7.4L6.47.395h1.62l1.24 1.578zM1.837.395h1.62l-.93 1.578H.597L1.837.395z" fill="#fff"/><path d="M5.352 2.762h-1.44a.196.196 0 00-.193.197c0 .109.086.197.193.197h1.44a.196.196 0 00.194-.197.196.196 0 00-.194-.197z" fill="#fff"/></svg>