<svg width="38" height="38" fill="none" xmlns="http://www.w3.org/2000/svg"><g clip-path="url(#clip0)"><path d="M13.933 24.459l1.93-10.857h3.016l-1.87 10.857h-3.076z" fill="#3C58BF"/><path d="M13.933 24.459l2.473-10.857h2.473l-1.87 10.857h-3.076z" fill="#293688"/><path d="M27.927 13.722c-.603-.241-1.568-.482-2.774-.482-3.016 0-5.188 1.508-5.188 3.68 0 1.628 1.508 2.472 2.714 3.015 1.207.543 1.569.905 1.569 1.387 0 .724-.965 1.086-1.81 1.086-1.206 0-1.87-.181-2.895-.603l-.422-.181-.422 2.473c.723.301 2.05.603 3.438.603 3.196 0 5.308-1.508 5.308-3.8 0-1.267-.785-2.232-2.594-3.016-1.086-.543-1.75-.844-1.75-1.387 0-.483.544-.965 1.75-.965 1.025 0 1.75.18 2.292.422l.302.12.482-2.352z" fill="#3C58BF"/><path d="M27.927 13.722c-.603-.241-1.568-.482-2.774-.482-3.016 0-4.645 1.508-4.645 3.68 0 1.628.965 2.472 2.171 3.015 1.207.543 1.569.905 1.569 1.387 0 .724-.965 1.086-1.81 1.086-1.206 0-1.87-.181-2.895-.603l-.422-.181-.422 2.473c.723.301 2.05.603 3.438.603 3.196 0 5.308-1.508 5.308-3.8 0-1.267-.785-2.232-2.594-3.016-1.086-.543-1.75-.844-1.75-1.387 0-.483.544-.965 1.75-.965 1.025 0 1.75.18 2.292.422l.302.12.482-2.352z" fill="#293688"/><path d="M33.114 13.602c-.723 0-1.266.06-1.568.784l-4.524 10.073h3.257l.604-1.81h3.86l.362 1.81H38l-2.533-10.857h-2.353zm-1.387 7.238c.18-.543 1.206-3.197 1.206-3.197s.242-.664.422-1.086l.181 1.026s.604 2.714.724 3.317h-2.533v-.06z" fill="#3C58BF"/><path d="M33.838 13.602c-.724 0-1.267.06-1.568.784l-5.248 10.073h3.257l.604-1.81h3.86l.362 1.81H38l-2.533-10.857h-1.629zm-2.111 7.238c.241-.604 1.206-3.197 1.206-3.197s.242-.664.422-1.086l.181 1.026s.604 2.714.724 3.317h-2.533v-.06z" fill="#293688"/><path d="M8.384 21.201l-.301-1.568c-.543-1.81-2.292-3.8-4.223-4.765l2.715 9.651h3.257l4.885-10.857H11.46l-3.076 7.54z" fill="#3C58BF"/><path d="M8.384 21.201l-.301-1.568c-.543-1.81-2.292-3.8-4.223-4.765l2.715 9.651h3.257l4.885-10.857h-2.654l-3.679 7.54z" fill="#293688"/><path d="M0 13.602l.543.12c3.86.905 6.514 3.197 7.54 5.911l-1.086-5.127c-.181-.723-.724-.904-1.387-.904H0z" fill="#FFBC00"/><path d="M0 13.602c3.86.904 7.057 3.257 8.083 5.971L7.057 15.29a1.472 1.472 0 00-1.447-1.146L0 13.602z" fill="#F7981D"/><path d="M0 13.602c3.86.904 7.057 3.257 8.083 5.971l-.724-2.352c-.181-.724-.422-1.448-1.267-1.75L0 13.601z" fill="#ED7C00"/><path d="M11.4 20.84l-2.05-2.051-.966 2.292-.241-1.508c-.543-1.81-2.292-3.8-4.222-4.765l2.714 9.65h3.257L11.4 20.84zm5.61 3.619l-2.594-2.654-.483 2.654h3.076zm6.936-3.74c.241.241.362.422.302.663 0 .724-.965 1.086-1.81 1.086-1.206 0-1.87-.18-2.895-.603l-.422-.18-.422 2.472c.723.302 2.05.603 3.438.603 1.93 0 3.498-.543 4.403-1.508l-2.594-2.533zm3.499 3.74h2.834l.604-1.81h3.86l.362 1.81H38l-1.025-4.404-3.62-3.498.182.965s.603 2.715.723 3.318h-2.533c.241-.604 1.207-3.197 1.207-3.197s.24-.664.422-1.086" fill="#051244"/></g><defs><clipPath id="clip0"><path fill="#fff" d="M0 0h38v38H0z"/></clipPath></defs></svg>